<svg width="8" height="9" viewBox="0 0 8 9" fill="none" xmlns="http://www.w3.org/2000/svg">
<path d="M7 3H6.5V2.14286C6.5 0.96 5.38 0 4 0C2.62 0 1.5 0.96 1.5 2.14286V3H1C0.45 3 0 3.38571 0 3.85714V8.14286C0 8.61429 0.45 9 1 9H7C7.55 9 8 8.61429 8 8.14286V3.85714C8 3.38571 7.55 3 7 3ZM4 6.85714C3.45 6.85714 3 6.47143 3 6C3 5.52857 3.45 5.14286 4 5.14286C4.55 5.14286 5 5.52857 5 6C5 6.47143 4.55 6.85714 4 6.85714ZM5.55 3H2.45V2.14286C2.45 1.41 3.145 0.814286 4 0.814286C4.855 0.814286 5.55 1.41 5.55 2.14286V3Z" fill="#384989"/>
</svg>
