<svg width="128" height="128" viewBox="0 0 128 128" fill="none" xmlns="http://www.w3.org/2000/svg">
<path d="M81.3618 63.9865L62.8352 79.253L83.4658 87.3551L81.3618 63.9865Z" fill="#914C75" fill-opacity="0.85"/>
<g style="mix-blend-mode:hard-light">
<path d="M32.4943 52.4834L60.8615 59.9667L52.4667 30.0304L32.4943 52.4834Z" fill="#384989"/>
</g>
<g style="mix-blend-mode:color">
<path d="M62.1064 84.3696L78.7453 67.8691L57.4908 62.0186L62.1064 84.3696Z" fill="#EE9062"/>
</g>
<g style="mix-blend-mode:color">
<path d="M62.9035 48.3236L36.1385 62.1617L61.3571 77.9392L62.9035 48.3236Z" fill="#F8C164"/>
</g>
<path d="M71.9337 66.7575L66.7289 51.308L55.5862 64.7906L71.9337 66.7575Z" fill="#639CC8" fill-opacity="0.85"/>
<path d="M79.5182 28.2891L62.1525 44.8642L56.5669 23.415L79.5182 28.2891Z" fill="#914C75" fill-opacity="0.85"/>
<g style="mix-blend-mode:hard-light">
<path d="M85.1151 78.1793L81.0661 49.1224L109.788 61.0252L85.1151 78.1793Z" fill="#384989"/>
</g>
<g style="mix-blend-mode:color">
<path d="M56.9856 44.9781L75.3515 30.4243L78.6271 52.2247L56.9856 44.9781Z" fill="#EE9062"/>
</g>
<g style="mix-blend-mode:color">
<path d="M92.8695 48.4827L75.9402 73.4077L63.2807 46.4884L92.8695 48.4827Z" fill="#F8C164"/>
</g>
<path d="M75.6433 37.32L90.3623 44.329L75.6478 53.7854L75.6433 37.32Z" fill="#639CC8" fill-opacity="0.85"/>
<path d="M49.2832 59.8783L31.9176 76.4535L26.3319 55.0042L49.2832 59.8783Z" fill="#914C75" fill-opacity="0.85"/>
<g style="mix-blend-mode:hard-light">
<path d="M54.8803 109.769L50.8312 80.7116L79.5536 92.6145L54.8803 109.769Z" fill="#384989"/>
</g>
<g style="mix-blend-mode:color">
<path d="M26.7508 76.5674L45.1167 62.0136L48.3923 83.8139L26.7508 76.5674Z" fill="#EE9062"/>
</g>
<g style="mix-blend-mode:color">
<path d="M62.6347 80.072L45.7053 104.997L33.0459 78.0778L62.6347 80.072Z" fill="#F8C164"/>
</g>
<path d="M45.4084 68.9091L60.1274 75.9181L45.4129 85.3745L45.4084 68.9091Z" fill="#639CC8" fill-opacity="0.85"/>
</svg>
