<svg width="22" height="22" viewBox="0 0 22 22" fill="none" xmlns="http://www.w3.org/2000/svg">
<rect width="22" height="22" fill="#E5E5E5"/>
<g clip-path="url(#clip0)">
<rect width="1440" height="1974" transform="translate(-115 -1848)" fill="white"/>
<path fill-rule="evenodd" clip-rule="evenodd" d="M11.0005 6C8.23907 6 6.00049 8.23858 6.00049 11C6.00049 13.7614 8.23907 16 11.0005 16C13.7619 16 16.0005 13.7614 16.0005 11C16.0005 8.23858 13.7619 6 11.0005 6ZM8.00049 11C8.00049 12.6569 9.34363 14 11.0005 14C12.6573 14 14.0005 12.6569 14.0005 11C14.0005 9.34315 12.6573 8 11.0005 8C9.34363 8 8.00049 9.34315 8.00049 11Z" fill="black"/>
<path d="M17.0005 4C16.4482 4 16.0005 4.44772 16.0005 5C16.0005 5.55228 16.4482 6 17.0005 6C17.5528 6 18.0005 5.55228 18.0005 5C18.0005 4.44772 17.5528 4 17.0005 4Z" fill="black"/>
<path fill-rule="evenodd" clip-rule="evenodd" d="M4.00049 0C1.79135 0 0.000488281 1.79086 0.000488281 4V18C0.000488281 20.2091 1.79135 22 4.00049 22H18.0005C20.2096 22 22.0005 20.2091 22.0005 18V4C22.0005 1.79086 20.2096 0 18.0005 0H4.00049ZM18.0005 2H4.00049C2.89592 2 2.00049 2.89543 2.00049 4V18C2.00049 19.1046 2.89592 20 4.00049 20H18.0005C19.1051 20 20.0005 19.1046 20.0005 18V4C20.0005 2.89543 19.1051 2 18.0005 2Z" fill="black"/>
</g>
<defs>
<clipPath id="clip0">
<rect width="1440" height="1974" fill="white" transform="translate(-115 -1848)"/>
</clipPath>
</defs>
</svg>
