<svg width="697" height="1024" viewBox="0 0 697 1024" fill="none" xmlns="http://www.w3.org/2000/svg">
<rect width="697" height="1024" fill="#E5E5E5"/>
<g clip-path="url(#clip0)">
<rect width="1440" height="1024" fill="white"/>
<rect x="-4" width="701" height="1024" fill="url(#paint0_linear)"/>
<path d="M459.957 392.642L451.774 612.287L636.566 520.218L459.957 392.642Z" fill="#914C75" fill-opacity="0.85"/>
<g style="mix-blend-mode:hard-light">
<path d="M76.0519 657.438L304.546 508.622L42.9161 384.227L76.0519 657.438Z" fill="#384989"/>
</g>
<g style="mix-blend-mode:color">
<path d="M483.057 648.366L470.884 434.153L297.977 544.176L483.057 648.366Z" fill="#EE9062"/>
</g>
<g style="mix-blend-mode:color">
<path d="M235.739 423.895L166.41 691.285L433.402 614.428L235.739 423.895Z" fill="#F8C164"/>
</g>
<path d="M420.814 474.051L280.377 415.828L305.553 574.062L420.814 474.051Z" fill="#639CC8" fill-opacity="0.85"/>
<path d="M198.683 188.376L206.866 408.02L22.0744 315.952L198.683 188.376Z" fill="#914C75" fill-opacity="0.85"/>
<g style="mix-blend-mode:hard-light">
<path d="M582.588 453.172L354.095 304.355L615.724 179.96L582.588 453.172Z" fill="#384989"/>
</g>
<g style="mix-blend-mode:color">
<path d="M175.583 444.1L187.756 229.886L360.663 339.909L175.583 444.1Z" fill="#EE9062"/>
</g>
<g style="mix-blend-mode:color">
<path d="M422.901 219.628L492.23 487.018L225.238 410.162L422.901 219.628Z" fill="#F8C164"/>
</g>
<path d="M237.826 269.784L378.264 211.561L353.087 369.796L237.826 269.784Z" fill="#639CC8" fill-opacity="0.85"/>
<path d="M232.043 587.384L240.226 807.028L55.4343 714.96L232.043 587.384Z" fill="#914C75" fill-opacity="0.85"/>
<g style="mix-blend-mode:hard-light">
<path d="M615.948 852.18L387.454 703.364L649.084 578.968L615.948 852.18Z" fill="#384989"/>
</g>
<g style="mix-blend-mode:color">
<path d="M208.943 843.108L221.116 628.894L394.023 738.917L208.943 843.108Z" fill="#EE9062"/>
</g>
<g style="mix-blend-mode:color">
<path d="M456.261 618.637L525.59 886.026L258.598 809.17L456.261 618.637Z" fill="#F8C164"/>
</g>
<path d="M271.186 668.792L411.624 610.57L386.447 768.804L271.186 668.792Z" fill="#639CC8" fill-opacity="0.85"/>
<g opacity="0.9" filter="url(#filter0_d)">
<path d="M142.553 531L131.897 460.2H144.953L152.393 521.784L164.345 460.2H180.281L192.185 521.784L199.625 460.2H212.729L201.977 531H182.585L172.313 473.16L162.041 531H142.553ZM263.526 520.92V531H221.958V460.2H263.526V470.28H234.678V490.44H258.198V500.52H234.678V520.92H263.526ZM275.864 531V460.2H288.536V520.536H315.368V531H275.864ZM375.94 505.512C375.94 508.52 375.38 511.576 374.26 514.68C373.14 517.784 371.428 520.664 369.124 523.32C366.852 525.944 363.972 528.056 360.484 529.656C356.996 531.256 352.9 532.056 348.196 532.056C341.828 532.056 336.388 530.504 331.876 527.4C327.396 524.296 323.972 520.008 321.604 514.536C319.268 509.032 318.1 502.728 318.1 495.624C318.1 488.488 319.268 482.184 321.604 476.712C323.972 471.24 327.396 466.952 331.876 463.848C336.388 460.744 341.828 459.192 348.196 459.192C353.476 459.192 357.988 460.2 361.732 462.216C365.476 464.232 368.468 466.824 370.708 469.992C372.948 473.16 374.452 476.472 375.22 479.928C375.7 481.944 375.94 483.864 375.94 485.688H363.22C363.22 484.728 363.156 483.768 363.028 482.808C362.484 479.128 360.948 476.024 358.42 473.496C355.892 470.936 352.484 469.656 348.196 469.656C343.108 469.656 338.964 471.8 335.764 476.088C332.564 480.376 330.964 486.888 330.964 495.624C330.964 504.36 332.564 510.888 335.764 515.208C338.964 519.528 343.108 521.688 348.196 521.688C351.396 521.688 354.116 520.92 356.356 519.384C358.596 517.848 360.292 515.848 361.444 513.384C362.628 510.92 363.22 508.296 363.22 505.512H375.94ZM415.099 532.056C409.371 532.056 404.187 530.648 399.547 527.832C394.939 524.984 391.275 520.84 388.555 515.4C385.835 509.96 384.475 503.336 384.475 495.528C384.475 487.72 385.819 481.112 388.507 475.704C391.227 470.296 394.907 466.2 399.547 463.416C404.187 460.6 409.371 459.192 415.099 459.192C420.891 459.192 426.107 460.6 430.747 463.416C435.387 466.2 439.051 470.296 441.739 475.704C444.459 481.112 445.819 487.72 445.819 495.528C445.819 503.336 444.443 509.96 441.691 515.4C438.971 520.84 435.291 524.984 430.651 527.832C426.011 530.648 420.827 532.056 415.099 532.056ZM415.099 521.64C418.427 521.64 421.435 520.744 424.123 518.952C426.811 517.16 428.939 514.344 430.507 510.504C432.107 506.632 432.907 501.64 432.907 495.528C432.907 489.384 432.107 484.424 430.507 480.648C428.907 476.84 426.763 474.056 424.075 472.296C421.387 470.536 418.395 469.656 415.099 469.656C411.835 469.656 408.859 470.536 406.171 472.296C403.483 474.056 401.323 476.84 399.691 480.648C398.091 484.424 397.291 489.384 397.291 495.528C397.291 501.672 398.091 506.664 399.691 510.504C401.323 514.344 403.483 517.16 406.171 518.952C408.859 520.744 411.835 521.64 415.099 521.64ZM506.447 460.2H527.951V531H515.903V469.512L500.975 531H484.079L468.959 469.416V531H456.911V460.2H478.415L492.383 522.216L506.447 460.2ZM582.557 520.92V531H540.989V460.2H582.557V470.28H553.709V490.44H577.229V500.52H553.709V520.92H582.557ZM212.099 568.28H194.339V629H181.667V568.28H163.955V558.2H212.099V568.28ZM245.318 630.056C239.59 630.056 234.406 628.648 229.766 625.832C225.158 622.984 221.494 618.84 218.774 613.4C216.054 607.96 214.694 601.336 214.694 593.528C214.694 585.72 216.038 579.112 218.726 573.704C221.446 568.296 225.126 564.2 229.766 561.416C234.406 558.6 239.59 557.192 245.318 557.192C251.11 557.192 256.326 558.6 260.966 561.416C265.606 564.2 269.27 568.296 271.958 573.704C274.678 579.112 276.038 585.72 276.038 593.528C276.038 601.336 274.662 607.96 271.91 613.4C269.19 618.84 265.51 622.984 260.87 625.832C256.23 628.648 251.046 630.056 245.318 630.056ZM245.318 619.64C248.646 619.64 251.654 618.744 254.342 616.952C257.03 615.16 259.158 612.344 260.726 608.504C262.326 604.632 263.126 599.64 263.126 593.528C263.126 587.384 262.326 582.424 260.726 578.648C259.126 574.84 256.982 572.056 254.294 570.296C251.606 568.536 248.614 567.656 245.318 567.656C242.054 567.656 239.078 568.536 236.39 570.296C233.702 572.056 231.542 574.84 229.91 578.648C228.31 582.424 227.51 587.384 227.51 593.528C227.51 599.672 228.31 604.664 229.91 608.504C231.542 612.344 233.702 615.16 236.39 616.952C239.078 618.744 242.054 619.64 245.318 619.64ZM333.546 630.056C325.994 630.056 319.93 628.264 315.354 624.68C310.81 621.064 308.538 615.656 308.538 608.456V605.528H321.162V608.216C321.162 615.864 325.306 619.688 333.594 619.688C337.722 619.688 340.874 619 343.05 617.624C345.258 616.248 346.362 614.04 346.362 611C346.362 608.792 345.61 606.92 344.106 605.384C342.634 603.816 340.602 602.456 338.01 601.304C335.418 600.12 332.474 599 329.178 597.944C325.466 596.824 322.074 595.352 319.002 593.528C315.962 591.672 313.53 589.352 311.706 586.568C309.914 583.784 309.018 580.36 309.018 576.296C309.018 572.232 310.058 568.776 312.138 565.928C314.25 563.08 317.13 560.92 320.778 559.448C324.426 557.944 328.602 557.192 333.306 557.192C338.202 557.192 342.506 557.96 346.218 559.496C349.962 561.032 352.89 563.32 355.002 566.36C357.114 569.4 358.17 573.192 358.17 577.736V580.856H345.498V578.312C345.498 571.176 341.498 567.608 333.498 567.608C329.594 567.608 326.57 568.312 324.426 569.72C322.314 571.096 321.258 573.272 321.258 576.248C321.258 578.488 321.978 580.36 323.418 581.864C324.858 583.368 326.826 584.68 329.322 585.8C331.85 586.92 334.714 588.024 337.914 589.112C342.138 590.52 345.802 592.12 348.906 593.912C352.042 595.672 354.458 597.88 356.154 600.536C357.85 603.16 358.698 606.504 358.698 610.568C358.698 616.808 356.394 621.624 351.786 625.016C347.21 628.376 341.13 630.056 333.546 630.056ZM419.353 558.2H440.857V629H428.809V567.512L413.881 629H396.985L381.865 567.416V629H369.817V558.2H391.321L405.289 620.216L419.353 558.2ZM450.258 629L468.546 558.104H488.514L506.658 629H493.65L489.522 611.768H467.442L463.266 629H450.258ZM469.89 601.64H487.074L478.53 566.12L469.89 601.64ZM541.832 578.312C545.192 578.408 547.544 579.384 548.888 581.24C550.232 583.096 550.904 585.4 550.904 588.152C550.904 590.488 550.264 592.664 548.984 594.68C547.704 596.696 545.72 598.328 543.032 599.576C540.376 600.824 536.968 601.448 532.808 601.448C528.072 601.448 524.344 600.744 521.624 599.336C518.904 597.928 516.984 596.12 515.864 593.912C514.744 591.672 514.184 589.288 514.184 586.76V586.664H524.504V586.76C524.504 589.416 525.24 591.224 526.712 592.184C528.216 593.112 530.28 593.576 532.904 593.576C535.208 593.576 537.064 593.032 538.472 591.944C539.88 590.856 540.584 589.288 540.584 587.24C540.584 585.704 539.928 584.44 538.616 583.448C537.304 582.456 535.416 581.96 532.952 581.96H531.272V575.288H532.952C535.384 575.288 537.256 574.808 538.568 573.848C539.912 572.888 540.584 571.704 540.584 570.296C540.584 568.632 539.896 567.384 538.52 566.552C537.144 565.72 535.336 565.304 533.096 565.304C530.568 565.304 528.504 565.784 526.904 566.744C525.304 567.672 524.504 569.288 524.504 571.592H514.184C514.184 569.16 514.824 566.872 516.104 564.728C517.384 562.584 519.384 560.856 522.104 559.544C524.856 558.2 528.44 557.528 532.856 557.528C539.16 557.528 543.736 558.696 546.584 561.032C549.464 563.368 550.904 566.088 550.904 569.192C550.904 571.496 550.216 573.576 548.84 575.432C547.464 577.256 545.128 578.216 541.832 578.312Z" fill="white"/>
</g>
</g>
<defs>
<filter id="filter0_d" x="127.897" y="459.192" width="458.66" height="178.864" filterUnits="userSpaceOnUse" color-interpolation-filters="sRGB">
<feFlood flood-opacity="0" result="BackgroundImageFix"/>
<feColorMatrix in="SourceAlpha" type="matrix" values="0 0 0 0 0 0 0 0 0 0 0 0 0 0 0 0 0 0 127 0" result="hardAlpha"/>
<feOffset dy="4"/>
<feGaussianBlur stdDeviation="2"/>
<feColorMatrix type="matrix" values="0 0 0 0 0.219608 0 0 0 0 0.286275 0 0 0 0 0.537255 0 0 0 1 0"/>
<feBlend mode="normal" in2="BackgroundImageFix" result="effect1_dropShadow"/>
<feBlend mode="normal" in="SourceGraphic" in2="effect1_dropShadow" result="shape"/>
</filter>
<linearGradient id="paint0_linear" x1="346.5" y1="0" x2="346.5" y2="1024" gradientUnits="userSpaceOnUse">
<stop offset="0.604167" stop-color="#639CC8" stop-opacity="0.85"/>
<stop offset="1" stop-color="#384989"/>
</linearGradient>
<clipPath id="clip0">
<rect width="1440" height="1024" fill="white"/>
</clipPath>
</defs>
</svg>
