<svg width="765" height="547" viewBox="0 0 765 547" fill="none" xmlns="http://www.w3.org/2000/svg">
<path d="M688.273 177.094L682.761 165.362L707.558 172.476L688.273 177.094Z" fill="#914C75" fill-opacity="0.85"/>
<path d="M61.317 119.009L55.8049 107.276L80.6015 114.39L61.317 119.009Z" fill="#639CC8" fill-opacity="0.85"/>
<path d="M435.953 86.2761L430.441 74.5432L455.238 81.6579L435.953 86.2761Z" fill="#EE9062"/>
<path d="M612.272 15.0085L606.76 3.27563L631.556 10.3903L612.272 15.0085Z" fill="#F8C164"/>
<path d="M88.7754 414.308L65.3142 421.424L70.716 403.268L88.7754 414.308Z" fill="#F8C164"/>
<path d="M762.487 510.784L739.211 517.926L744.238 499.733L762.487 510.784Z" fill="#639CC8" fill-opacity="0.85"/>
<path d="M23.4979 542.892L29.01 531.159L4.21342 538.274L23.4979 542.892Z" fill="#914C75" fill-opacity="0.85"/>
<path d="M475.525 445.352L477.941 460.596L450.952 450.706L475.525 445.352Z" fill="#EE9062"/>
</svg>
