<svg width="312" height="203" viewBox="0 0 312 203" fill="none" xmlns="http://www.w3.org/2000/svg">
<path d="M102.263 20.2758L96.8795 21.7324L100.144 15.1798L102.263 20.2758Z" fill="#914C75" fill-opacity="0.85"/>
<path d="M85.1886 149.463L79.8048 150.92L83.0695 144.367L85.1886 149.463Z" fill="#639CC8" fill-opacity="0.85"/>
<path d="M6.88759 120.209L1.50375 121.666L4.76845 115.113L6.88759 120.209Z" fill="#EE9062"/>
<path d="M27.8873 40.3583L22.5035 41.8149L25.7682 35.2623L27.8873 40.3583Z" fill="#F8C164"/>
<path d="M211.112 178.696L214.378 184.895L206.046 183.468L211.112 178.696Z" fill="#F8C164"/>
<path d="M255.382 0.66416L258.659 6.81492L250.311 5.4866L255.382 0.66416Z" fill="#639CC8" fill-opacity="0.85"/>
<path d="M270.115 195.944L264.732 194.488L267.996 201.04L270.115 195.944Z" fill="#914C75" fill-opacity="0.85"/>
<path d="M304.27 74.5659L311.265 73.9277L306.726 81.0596L304.27 74.5659Z" fill="#EE9062"/>
</svg>
