<svg width="19" height="18" viewBox="0 0 19 18" fill="none" xmlns="http://www.w3.org/2000/svg">
<rect width="19" height="18" fill="#E5E5E5"/>
<g clip-path="url(#clip0)">
<rect width="1651" height="1502" transform="translate(-1148 -862)" fill="white"/>
</g>
<rect width="625" height="414" transform="translate(-122 -174)" fill="white"/>
<rect x="-121.5" y="-173.5" width="624" height="413" stroke="#0038FF"/>
<path d="M-2 -3H22V21H-2V-3Z" fill="white"/>
<path d="M1 0.7H18C18.1634 0.7 18.3 0.8366 18.3 1V7C18.3 7.1634 18.1634 7.3 18 7.3H1C0.836599 7.3 0.7 7.1634 0.7 7V1C0.7 0.836599 0.836599 0.7 1 0.7ZM1 10.7H18C18.1634 10.7 18.3 10.8366 18.3 11V17C18.3 17.1634 18.1634 17.3 18 17.3H1C0.8366 17.3 0.7 17.1634 0.7 17V11C0.7 10.8366 0.836599 10.7 1 10.7Z" stroke="#0038FF" stroke-width="1.4"/>
<defs>
<clipPath id="clip0">
<rect width="1651" height="1502" fill="white" transform="translate(-1148 -862)"/>
</clipPath>
</defs>
</svg>
