<svg width="821" height="612" viewBox="0 0 821 612" fill="none" xmlns="http://www.w3.org/2000/svg">
<path d="M820.639 537.354H0.000488281V537.764H820.639V537.354Z" fill="#E0E0E0"/>
<path d="M696.082 560.381H678.668V560.791H696.082V560.381Z" fill="#E0E0E0"/>
<path d="M666.621 560.578H595.8V560.988H666.621V560.578Z" fill="#E0E0E0"/>
<path d="M508.255 556.672H388.737V557.082H508.255V556.672Z" fill="#E0E0E0"/>
<path d="M319.984 563.795H282.054V564.205H319.984V563.795Z" fill="#E0E0E0"/>
<path d="M193.589 556.869H141.364V557.279H193.589V556.869Z" fill="#E0E0E0"/>
<path d="M251.51 556.869H202.698V557.279H251.51V556.869Z" fill="#E0E0E0"/>
<path d="M157.005 549.696H107.159V550.107H157.005V549.696Z" fill="#E0E0E0"/>
<path d="M388.983 464.153H72.0689C69.5862 464.149 67.2067 463.159 65.4527 461.402C63.6987 459.645 62.7136 457.264 62.7136 454.781V9.28962C62.7352 6.82119 63.7299 4.46095 65.4815 2.72159C67.2332 0.982235 69.6004 0.00422856 72.0689 0H388.983C391.469 0 393.852 0.987372 395.61 2.7449C397.367 4.50244 398.355 6.88616 398.355 9.37169V454.781C398.355 457.267 397.367 459.651 395.61 461.408C393.852 463.166 391.469 464.153 388.983 464.153ZM72.0689 0.328257C69.695 0.332604 67.4199 1.27866 65.7429 2.95877C64.0658 4.63888 63.1239 6.91576 63.1239 9.28962V454.781C63.1239 457.155 64.0658 459.432 65.7429 461.112C67.4199 462.792 69.695 463.738 72.0689 463.743H388.983C391.358 463.738 393.635 462.793 395.315 461.113C396.994 459.434 397.94 457.157 397.944 454.781V9.28962C397.94 6.91425 396.994 4.63741 395.315 2.95777C393.635 1.27813 391.358 0.332595 388.983 0.328257H72.0689Z" fill="#E0E0E0"/>
<path d="M744.007 464.153H427.077C424.593 464.149 422.212 463.16 420.455 461.403C418.698 459.647 417.71 457.265 417.705 454.781V9.28962C417.731 6.81969 418.73 4.45947 420.484 2.72057C422.238 0.981662 424.607 0.00418245 427.077 0H744.007C746.473 0.00854202 748.836 0.988457 750.584 2.72736C752.332 4.46625 753.325 6.82402 753.346 9.28962V454.781C753.346 457.261 752.363 459.64 750.613 461.396C748.863 463.153 746.487 464.144 744.007 464.153ZM427.077 0.328257C424.702 0.332595 422.425 1.27813 420.745 2.95777C419.066 4.63741 418.12 6.91425 418.116 9.28962V454.781C418.12 457.157 419.066 459.434 420.745 461.113C422.425 462.793 424.702 463.738 427.077 463.743H744.007C746.383 463.738 748.66 462.793 750.339 461.113C752.019 459.434 752.964 457.157 752.969 454.781V9.28962C752.964 6.91425 752.019 4.63741 750.339 2.95777C748.66 1.27813 746.383 0.332595 744.007 0.328257H427.077Z" fill="#E0E0E0"/>
<path d="M706.537 33.5969H110.819C104.003 33.5969 98.4771 39.1228 98.4771 45.9393V493.187C98.4771 500.004 104.003 505.53 110.819 505.53H706.537C713.354 505.53 718.88 500.004 718.88 493.187V45.9393C718.88 39.1228 713.354 33.5969 706.537 33.5969Z" fill="#E0E0E0"/>
<path d="M709.82 33.5969H114.102C107.285 33.5969 101.76 39.1228 101.76 45.9393V493.187C101.76 500.004 107.285 505.53 114.102 505.53H709.82C716.636 505.53 722.162 500.004 722.162 493.187V45.9393C722.162 39.1228 716.636 33.5969 709.82 33.5969Z" fill="#EBEBEB"/>
<path d="M101.76 65.5034V493.187C101.773 496.455 103.078 499.585 105.39 501.894C107.702 504.204 110.834 505.505 114.102 505.513H709.885C713.156 505.505 716.29 504.201 718.603 501.889C720.916 499.576 722.219 496.442 722.228 493.171V65.5034H101.76Z" fill="#E0E0E0"/>
<path d="M719.881 81.916H104.041V489.117H719.881V81.916Z" fill="#FAFAFA"/>
<path d="M698.101 451.86H125.821C125.767 451.856 125.717 451.831 125.68 451.792C125.644 451.752 125.624 451.7 125.624 451.646V108.324C125.624 108.298 125.629 108.273 125.639 108.249C125.649 108.225 125.663 108.203 125.681 108.185C125.7 108.167 125.721 108.152 125.745 108.142C125.769 108.132 125.795 108.127 125.821 108.127H698.101C698.153 108.127 698.203 108.148 698.24 108.185C698.277 108.222 698.298 108.272 698.298 108.324V451.646C698.3 451.674 698.297 451.701 698.288 451.727C698.279 451.753 698.265 451.776 698.246 451.796C698.228 451.816 698.205 451.832 698.18 451.843C698.155 451.854 698.128 451.86 698.101 451.86ZM126.034 451.449H697.888V108.538H126.034V451.449Z" fill="#E0E0E0"/>
<path d="M128.841 57.0344C127.38 57.0344 125.952 56.6013 124.737 55.7897C123.523 54.9782 122.576 53.8247 122.017 52.4751C121.458 51.1255 121.312 49.6405 121.597 48.2078C121.882 46.7751 122.585 45.4591 123.618 44.4262C124.651 43.3933 125.967 42.6898 127.4 42.4049C128.832 42.1199 130.317 42.2661 131.667 42.8252C133.017 43.3842 134.17 44.3308 134.982 45.5454C135.793 46.76 136.226 48.1879 136.226 49.6487C136.222 51.6062 135.442 53.4823 134.058 54.8664C132.674 56.2506 130.798 57.0301 128.841 57.0344ZM128.841 43.9042C127.704 43.9042 126.594 44.2411 125.649 44.8723C124.704 45.5036 123.968 46.4007 123.533 47.4504C123.099 48.5 122.985 49.6551 123.206 50.7694C123.428 51.8837 123.975 52.9073 124.779 53.7106C125.582 54.514 126.606 55.0611 127.72 55.2828C128.834 55.5044 129.989 55.3907 131.039 54.9559C132.089 54.5211 132.986 53.7848 133.617 52.8401C134.248 51.8955 134.585 50.7848 134.585 49.6487C134.585 48.1252 133.98 46.664 132.903 45.5867C131.825 44.5094 130.364 43.9042 128.841 43.9042Z" fill="#FAFAFA"/>
<path d="M152.098 57.0344C150.637 57.0344 149.209 56.6013 147.994 55.7897C146.78 54.9782 145.833 53.8247 145.274 52.4751C144.715 51.1255 144.569 49.6405 144.854 48.2078C145.139 46.7751 145.842 45.4591 146.875 44.4262C147.908 43.3933 149.224 42.6898 150.657 42.4049C152.089 42.1199 153.574 42.2661 154.924 42.8252C156.274 43.3842 157.427 44.3308 158.239 45.5454C159.05 46.76 159.483 48.1879 159.483 49.6487C159.479 51.6062 158.7 53.4823 157.315 54.8664C155.931 56.2506 154.055 57.0301 152.098 57.0344ZM152.098 43.9042C150.962 43.9042 149.851 44.2411 148.906 44.8723C147.962 45.5036 147.225 46.4007 146.79 47.4504C146.356 48.5 146.242 49.6551 146.464 50.7694C146.685 51.8837 147.232 52.9073 148.036 53.7106C148.839 54.514 149.863 55.0611 150.977 55.2828C152.091 55.5044 153.246 55.3907 154.296 54.9559C155.346 54.5211 156.243 53.7848 156.874 52.8401C157.505 51.8955 157.842 50.7848 157.842 49.6487C157.842 48.1252 157.237 46.664 156.16 45.5867C155.082 44.5094 153.621 43.9042 152.098 43.9042Z" fill="#FAFAFA"/>
<path d="M175.371 57.0344C173.91 57.0344 172.482 56.6013 171.268 55.7897C170.053 54.9782 169.106 53.8247 168.547 52.4751C167.988 51.1255 167.842 49.6405 168.127 48.2078C168.412 46.7751 169.115 45.4591 170.148 44.4262C171.181 43.3933 172.497 42.6898 173.93 42.4049C175.363 42.1199 176.848 42.2661 178.197 42.8252C179.547 43.3842 180.7 44.3308 181.512 45.5454C182.323 46.76 182.757 48.1879 182.757 49.6487C182.752 51.6062 181.973 53.4823 180.589 54.8664C179.204 56.2506 177.328 57.0301 175.371 57.0344ZM175.371 43.9042C174.235 43.9042 173.124 44.2411 172.179 44.8723C171.235 45.5036 170.498 46.4007 170.064 47.4504C169.629 48.5 169.515 49.6551 169.737 50.7694C169.958 51.8837 170.506 52.9073 171.309 53.7106C172.112 54.514 173.136 55.0611 174.25 55.2828C175.364 55.5044 176.519 55.3907 177.569 54.9559C178.619 54.5211 179.516 53.7848 180.147 52.8401C180.778 51.8955 181.115 50.7848 181.115 49.6487C181.115 48.1252 180.51 46.664 179.433 45.5867C178.356 44.5094 176.894 43.9042 175.371 43.9042Z" fill="#FAFAFA"/>
<path d="M722.162 64.6826H101.76V66.3239H722.162V64.6826Z" fill="#E0E0E0"/>
<path d="M440.831 122.374H157.021V411.632H440.831V122.374Z" fill="#EBEBEB"/>
<path d="M684.052 122.374H496.667V216.468H684.052V122.374Z" fill="#EBEBEB"/>
<path d="M531.774 178.899C543.558 178.899 553.111 169.346 553.111 157.562C553.111 145.779 543.558 136.226 531.774 136.226C519.99 136.226 510.438 145.779 510.438 157.562C510.438 169.346 519.99 178.899 531.774 178.899Z" fill="#FAFAFA"/>
<path d="M665.259 136.226H572.806V144.974H665.259V136.226Z" fill="#FAFAFA"/>
<path d="M632.811 152.278H572.806V161.026H632.811V152.278Z" fill="#FAFAFA"/>
<path d="M684.052 251.657H496.667V489.117H684.052V251.657Z" fill="#EBEBEB"/>
<path d="M584.918 269.563H504.988V349.494H584.918V269.563Z" fill="#FAFAFA"/>
<path d="M585.542 359.653H505.612V439.583H585.542V359.653Z" fill="#FAFAFA"/>
<path d="M675.747 269.563H595.817V311.958H675.747V269.563Z" fill="#FAFAFA"/>
<path d="M675.747 322.133H595.817V402.063H675.747V322.133Z" fill="#FAFAFA"/>
<path d="M585.542 449.152H505.612V489.117H585.542V449.152Z" fill="#FAFAFA"/>
<path d="M675.747 411.632H595.817V489.117H675.747V411.632Z" fill="#FAFAFA"/>
<path d="M410.32 611.474C586.072 611.474 728.547 603.156 728.547 592.895C728.547 582.634 586.072 574.315 410.32 574.315C234.568 574.315 92.0925 582.634 92.0925 592.895C92.0925 603.156 234.568 611.474 410.32 611.474Z" fill="#F5F5F5"/>
<path d="M445.229 499.26H146.681C138.578 499.26 132.008 505.829 132.008 513.933V567.192C132.008 575.296 138.578 581.865 146.681 581.865H445.229C453.333 581.865 459.902 575.296 459.902 567.192V513.933C459.902 505.829 453.333 499.26 445.229 499.26Z" fill="#EE9062"/>
<path d="M448.693 502.723H150.144C142.041 502.723 135.471 509.292 135.471 517.396V570.655C135.471 578.759 142.041 585.328 150.144 585.328H448.693C456.796 585.328 463.366 578.759 463.366 570.655V517.396C463.366 509.292 456.796 502.723 448.693 502.723Z" fill="#EE9062"/>
<path opacity="0.6" d="M448.693 502.723H150.144C142.041 502.723 135.471 509.292 135.471 517.396V570.655C135.471 578.759 142.041 585.328 150.144 585.328H448.693C456.796 585.328 463.366 578.759 463.366 570.655V517.396C463.366 509.292 456.796 502.723 448.693 502.723Z" fill="#FAFAFA"/>
<path d="M452.156 506.186H153.608C145.504 506.186 138.935 512.755 138.935 520.859V574.135C138.935 582.239 145.504 588.808 153.608 588.808H452.156C460.259 588.808 466.829 582.239 466.829 574.135V520.859C466.829 512.755 460.259 506.186 452.156 506.186Z" fill="#EE9062"/>
<path opacity="0.8" d="M452.156 506.186H153.608C145.504 506.186 138.935 512.755 138.935 520.859V574.135C138.935 582.239 145.504 588.808 153.608 588.808H452.156C460.259 588.808 466.829 582.239 466.829 574.135V520.859C466.829 512.755 460.259 506.186 452.156 506.186Z" fill="#FAFAFA"/>
<path d="M386.669 520.153H227.284C225.553 520.153 224.15 521.557 224.15 523.288V529.525C224.15 531.256 225.553 532.66 227.284 532.66H386.669C388.4 532.66 389.804 531.256 389.804 529.525V523.288C389.804 521.557 388.4 520.153 386.669 520.153Z" fill="#EE9062"/>
<path d="M298.68 541.244H227.284C225.553 541.244 224.15 542.647 224.15 544.378V550.615C224.15 552.347 225.553 553.75 227.284 553.75H298.68C300.411 553.75 301.815 552.347 301.815 550.615V544.378C301.815 542.647 300.411 541.244 298.68 541.244Z" fill="#EE9062"/>
<path d="M367.614 541.244H312.811C311.08 541.244 309.677 542.647 309.677 544.378V550.615C309.677 552.347 311.08 553.75 312.811 553.75H367.614C369.345 553.75 370.748 552.347 370.748 550.615V544.378C370.748 542.647 369.345 541.244 367.614 541.244Z" fill="#EE9062"/>
<path d="M418.526 562.334H225.857C224.914 562.334 224.15 563.098 224.15 564.041V565.338C224.15 566.28 224.914 567.044 225.857 567.044H418.526C419.469 567.044 420.233 566.28 420.233 565.338V564.041C420.233 563.098 419.469 562.334 418.526 562.334Z" fill="#EE9062"/>
<path opacity="0.5" d="M418.526 562.334H225.857C224.914 562.334 224.15 563.098 224.15 564.041V565.338C224.15 566.28 224.914 567.044 225.857 567.044H418.526C419.469 567.044 420.233 566.28 420.233 565.338V564.041C420.233 563.098 419.469 562.334 418.526 562.334Z" fill="#FAFAFA"/>
<path d="M207.397 554.341C211.161 538.53 201.395 522.661 185.584 518.898C169.773 515.134 153.905 524.9 150.141 540.711C146.377 556.522 156.143 572.39 171.954 576.154C187.765 579.918 203.633 570.151 207.397 554.341Z" fill="#EE9062"/>
<path d="M203.059 547.497C203.059 552.301 201.634 556.998 198.965 560.992C196.296 564.987 192.502 568.1 188.064 569.939C183.625 571.777 178.741 572.258 174.029 571.321C169.317 570.384 164.989 568.07 161.592 564.673C158.195 561.276 155.881 556.948 154.944 552.236C154.007 547.524 154.488 542.64 156.326 538.201C158.165 533.763 161.278 529.969 165.273 527.3C169.268 524.631 173.964 523.206 178.768 523.206C181.966 523.178 185.138 523.786 188.097 524.997C191.057 526.208 193.747 527.996 196.008 530.257C198.269 532.519 200.057 535.208 201.268 538.168C202.479 541.128 203.088 544.299 203.059 547.497Z" fill="#FAFAFA"/>
<path d="M200.121 559.068C198.033 562.905 194.95 566.108 191.195 568.339C187.44 570.571 183.153 571.749 178.785 571.749C174.417 571.749 170.129 570.571 166.374 568.339C162.619 566.108 159.536 562.905 157.448 559.068C163.768 554.858 171.191 552.612 178.785 552.612C186.378 552.612 193.802 554.858 200.121 559.068Z" fill="#EE9062"/>
<path opacity="0.7" d="M200.121 559.068C198.033 562.905 194.95 566.108 191.195 568.339C187.44 570.571 183.153 571.749 178.785 571.749C174.417 571.749 170.129 570.571 166.374 568.339C162.619 566.108 159.536 562.905 157.448 559.068C163.768 554.858 171.191 552.612 178.785 552.612C186.378 552.612 193.802 554.858 200.121 559.068Z" fill="#FAFAFA"/>
<path d="M178.768 550.008C184.742 550.008 189.584 545.166 189.584 539.192C189.584 533.218 184.742 528.376 178.768 528.376C172.795 528.376 167.952 533.218 167.952 539.192C167.952 545.166 172.795 550.008 178.768 550.008Z" fill="#EE9062"/>
<path opacity="0.7" d="M178.768 550.008C184.742 550.008 189.584 545.166 189.584 539.192C189.584 533.218 184.742 528.376 178.768 528.376C172.795 528.376 167.952 533.218 167.952 539.192C167.952 545.166 172.795 550.008 178.768 550.008Z" fill="#FAFAFA"/>
<path d="M445.229 403.672H146.681C138.578 403.672 132.008 410.241 132.008 418.345V471.604C132.008 479.708 138.578 486.277 146.681 486.277H445.229C453.333 486.277 459.902 479.708 459.902 471.604V418.345C459.902 410.241 453.333 403.672 445.229 403.672Z" fill="#EE9062"/>
<path d="M448.693 407.135H150.144C142.041 407.135 135.471 413.704 135.471 421.808V475.084C135.471 483.187 142.041 489.757 150.144 489.757H448.693C456.796 489.757 463.366 483.187 463.366 475.084V421.808C463.366 413.704 456.796 407.135 448.693 407.135Z" fill="#EE9062"/>
<path opacity="0.6" d="M448.693 407.135H150.144C142.041 407.135 135.471 413.704 135.471 421.808V475.084C135.471 483.187 142.041 489.757 150.144 489.757H448.693C456.796 489.757 463.366 483.187 463.366 475.084V421.808C463.366 413.704 456.796 407.135 448.693 407.135Z" fill="#FAFAFA"/>
<path d="M452.156 410.598H153.608C145.504 410.598 138.935 417.167 138.935 425.271V478.531C138.935 486.634 145.504 493.204 153.608 493.204H452.156C460.259 493.204 466.829 486.634 466.829 478.531V425.271C466.829 417.167 460.259 410.598 452.156 410.598Z" fill="#EE9062"/>
<path opacity="0.8" d="M452.156 410.598H153.608C145.504 410.598 138.935 417.167 138.935 425.271V478.531C138.935 486.634 145.504 493.204 153.608 493.204H452.156C460.259 493.204 466.829 486.634 466.829 478.531V425.271C466.829 417.167 460.259 410.598 452.156 410.598Z" fill="#FAFAFA"/>
<path d="M274.783 424.565H227.284C225.553 424.565 224.15 425.969 224.15 427.7V433.937C224.15 435.668 225.553 437.072 227.284 437.072H274.783C276.514 437.072 277.918 435.668 277.918 433.937V427.7C277.918 425.969 276.514 424.565 274.783 424.565Z" fill="#EE9062"/>
<path d="M324.711 424.565H288.028C286.297 424.565 284.893 425.969 284.893 427.7V433.937C284.893 435.668 286.297 437.072 288.028 437.072H324.711C326.442 437.072 327.846 435.668 327.846 433.937V427.7C327.846 425.969 326.442 424.565 324.711 424.565Z" fill="#EE9062"/>
<path d="M394.055 445.656H227.284C225.553 445.656 224.15 447.059 224.15 448.791V455.027C224.15 456.759 225.553 458.162 227.284 458.162H394.055C395.786 458.162 397.189 456.759 397.189 455.027V448.791C397.189 447.059 395.786 445.656 394.055 445.656Z" fill="#EE9062"/>
<path d="M342.141 466.746H225.857C224.914 466.746 224.15 467.51 224.15 468.453V469.75C224.15 470.692 224.914 471.457 225.857 471.457H342.141C343.084 471.457 343.848 470.692 343.848 469.75V468.453C343.848 467.51 343.084 466.746 342.141 466.746Z" fill="#EE9062"/>
<path opacity="0.5" d="M342.141 466.746H225.857C224.914 466.746 224.15 467.51 224.15 468.453V469.75C224.15 470.692 224.914 471.457 225.857 471.457H342.141C343.084 471.457 343.848 470.692 343.848 469.75V468.453C343.848 467.51 343.084 466.746 342.141 466.746Z" fill="#FAFAFA"/>
<path d="M207.402 458.757C211.166 442.946 201.4 427.078 185.589 423.314C169.778 419.55 153.91 429.316 150.146 445.127C146.382 460.938 156.149 476.807 171.959 480.57C187.77 484.334 203.639 474.568 207.402 458.757Z" fill="#EE9062"/>
<path d="M203.059 451.909C203.059 456.713 201.634 461.41 198.965 465.404C196.296 469.399 192.502 472.512 188.064 474.351C183.625 476.189 178.741 476.67 174.029 475.733C169.317 474.796 164.989 472.482 161.592 469.085C158.195 465.688 155.881 461.36 154.944 456.648C154.007 451.936 154.488 447.052 156.326 442.613C158.165 438.175 161.278 434.381 165.273 431.712C169.268 429.043 173.964 427.618 178.768 427.618C181.966 427.59 185.138 428.199 188.097 429.409C191.057 430.62 193.747 432.408 196.008 434.669C198.269 436.931 200.057 439.62 201.268 442.58C202.479 445.54 203.088 448.711 203.059 451.909Z" fill="#FAFAFA"/>
<path d="M200.121 463.48C198.033 467.317 194.95 470.52 191.195 472.751C187.44 474.983 183.153 476.161 178.785 476.161C174.417 476.161 170.129 474.983 166.374 472.751C162.619 470.52 159.536 467.317 157.448 463.48C163.768 459.271 171.191 457.024 178.785 457.024C186.378 457.024 193.802 459.271 200.121 463.48Z" fill="#EE9062"/>
<path opacity="0.7" d="M200.121 463.48C198.033 467.317 194.95 470.52 191.195 472.751C187.44 474.983 183.153 476.161 178.785 476.161C174.417 476.161 170.129 474.983 166.374 472.751C162.619 470.52 159.536 467.317 157.448 463.48C163.768 459.271 171.191 457.024 178.785 457.024C186.378 457.024 193.802 459.271 200.121 463.48Z" fill="#FAFAFA"/>
<path d="M178.768 454.42C184.742 454.42 189.584 449.578 189.584 443.604C189.584 437.631 184.742 432.788 178.768 432.788C172.795 432.788 167.952 437.631 167.952 443.604C167.952 449.578 172.795 454.42 178.768 454.42Z" fill="#EE9062"/>
<path opacity="0.7" d="M178.768 454.42C184.742 454.42 189.584 449.578 189.584 443.604C189.584 437.631 184.742 432.788 178.768 432.788C172.795 432.788 167.952 437.631 167.952 443.604C167.952 449.578 172.795 454.42 178.768 454.42Z" fill="#FAFAFA"/>
<path d="M445.229 308.084H146.681C138.578 308.084 132.008 314.653 132.008 322.757V376.033C132.008 384.136 138.578 390.706 146.681 390.706H445.229C453.333 390.706 459.902 384.136 459.902 376.033V322.757C459.902 314.653 453.333 308.084 445.229 308.084Z" fill="#EE9062"/>
<path d="M448.693 311.547H150.144C142.041 311.547 135.471 318.116 135.471 326.22V379.479C135.471 387.583 142.041 394.152 150.144 394.152H448.693C456.796 394.152 463.366 387.583 463.366 379.479V326.22C463.366 318.116 456.796 311.547 448.693 311.547Z" fill="#EE9062"/>
<path opacity="0.6" d="M448.693 311.547H150.144C142.041 311.547 135.471 318.116 135.471 326.22V379.479C135.471 387.583 142.041 394.152 150.144 394.152H448.693C456.796 394.152 463.366 387.583 463.366 379.479V326.22C463.366 318.116 456.796 311.547 448.693 311.547Z" fill="#FAFAFA"/>
<path d="M452.156 315.01H153.608C145.504 315.01 138.935 321.58 138.935 329.683V382.959C138.935 391.063 145.504 397.632 153.608 397.632H452.156C460.259 397.632 466.829 391.063 466.829 382.959V329.683C466.829 321.58 460.259 315.01 452.156 315.01Z" fill="#EE9062"/>
<path opacity="0.8" d="M452.156 315.01H153.608C145.504 315.01 138.935 321.58 138.935 329.683V382.959C138.935 391.063 145.504 397.632 153.608 397.632H452.156C460.259 397.632 466.829 391.063 466.829 382.959V329.683C466.829 321.58 460.259 315.01 452.156 315.01Z" fill="#FAFAFA"/>
<path d="M385.487 328.978H227.284C225.553 328.978 224.15 330.381 224.15 332.112V338.349C224.15 340.081 225.553 341.484 227.284 341.484H385.487C387.218 341.484 388.622 340.081 388.622 338.349V332.112C388.622 330.381 387.218 328.978 385.487 328.978Z" fill="#EE9062"/>
<path d="M332.228 350.068H227.284C225.553 350.068 224.15 351.471 224.15 353.203V359.44C224.15 361.171 225.553 362.574 227.284 362.574H332.228C333.959 362.574 335.363 361.171 335.363 359.44V353.203C335.363 351.471 333.959 350.068 332.228 350.068Z" fill="#EE9062"/>
<path d="M357.536 350.068H347.787C346.056 350.068 344.652 351.471 344.652 353.203V359.44C344.652 361.171 346.056 362.574 347.787 362.574H357.536C359.267 362.574 360.671 361.171 360.671 359.44V353.203C360.671 351.471 359.267 350.068 357.536 350.068Z" fill="#EE9062"/>
<path d="M310.497 371.158H225.857C224.914 371.158 224.15 371.922 224.15 372.865V374.162C224.15 375.104 224.914 375.869 225.857 375.869H310.497C311.44 375.869 312.204 375.104 312.204 374.162V372.865C312.204 371.922 311.44 371.158 310.497 371.158Z" fill="#EE9062"/>
<path opacity="0.5" d="M310.497 371.158H225.857C224.914 371.158 224.15 371.922 224.15 372.865V374.162C224.15 375.104 224.914 375.869 225.857 375.869H310.497C311.44 375.869 312.204 375.104 312.204 374.162V372.865C312.204 371.922 311.44 371.158 310.497 371.158Z" fill="#FAFAFA"/>
<path d="M419.921 371.158H322.872C321.93 371.158 321.165 371.922 321.165 372.865V374.162C321.165 375.104 321.93 375.869 322.872 375.869H419.921C420.864 375.869 421.628 375.104 421.628 374.162V372.865C421.628 371.922 420.864 371.158 419.921 371.158Z" fill="#EE9062"/>
<path opacity="0.5" d="M419.921 371.158H322.872C321.93 371.158 321.165 371.922 321.165 372.865V374.162C321.165 375.104 321.93 375.869 322.872 375.869H419.921C420.864 375.869 421.628 375.104 421.628 374.162V372.865C421.628 371.922 420.864 371.158 419.921 371.158Z" fill="#FAFAFA"/>
<path d="M199.58 377.123C211.072 365.63 211.072 346.998 199.58 335.505C188.088 324.013 169.455 324.013 157.962 335.505C146.47 346.998 146.47 365.63 157.962 377.123C169.455 388.615 188.088 388.615 199.58 377.123Z" fill="#EE9062"/>
<path d="M203.059 356.321C203.059 361.125 201.634 365.822 198.965 369.816C196.296 373.811 192.502 376.924 188.064 378.763C183.625 380.602 178.741 381.083 174.029 380.145C169.317 379.208 164.989 376.895 161.592 373.497C158.195 370.1 155.881 365.772 154.944 361.06C154.007 356.348 154.488 351.464 156.326 347.025C158.165 342.587 161.278 338.793 165.273 336.124C169.268 333.455 173.964 332.03 178.768 332.03C181.966 332.002 185.138 332.611 188.097 333.821C191.057 335.032 193.747 336.82 196.008 339.081C198.269 341.343 200.057 344.032 201.268 346.992C202.479 349.952 203.088 353.123 203.059 356.321Z" fill="#FAFAFA"/>
<path d="M200.121 367.892C198.033 371.729 194.95 374.932 191.195 377.163C187.44 379.395 183.153 380.573 178.785 380.573C174.417 380.573 170.129 379.395 166.374 377.163C162.619 374.932 159.536 371.729 157.448 367.892C163.768 363.683 171.191 361.437 178.785 361.437C186.378 361.437 193.802 363.683 200.121 367.892Z" fill="#EE9062"/>
<path opacity="0.7" d="M200.121 367.892C198.033 371.729 194.95 374.932 191.195 377.163C187.44 379.395 183.153 380.573 178.785 380.573C174.417 380.573 170.129 379.395 166.374 377.163C162.619 374.932 159.536 371.729 157.448 367.892C163.768 363.683 171.191 361.437 178.785 361.437C186.378 361.437 193.802 363.683 200.121 367.892Z" fill="#FAFAFA"/>
<path d="M189.584 347.951C189.581 350.089 188.944 352.179 187.753 353.955C186.563 355.732 184.873 357.115 182.896 357.932C180.919 358.748 178.745 358.96 176.648 358.54C174.551 358.121 172.625 357.09 171.114 355.576C169.603 354.063 168.575 352.136 168.159 350.038C167.743 347.941 167.958 345.767 168.777 343.791C169.596 341.816 170.982 340.128 172.761 338.94C174.539 337.752 176.63 337.118 178.768 337.118C180.19 337.118 181.598 337.398 182.911 337.943C184.224 338.488 185.417 339.286 186.422 340.292C187.427 341.298 188.223 342.492 188.766 343.806C189.308 345.121 189.586 346.529 189.584 347.951Z" fill="#EE9062"/>
<path opacity="0.7" d="M189.584 347.951C189.581 350.089 188.944 352.179 187.753 353.955C186.563 355.732 184.873 357.115 182.896 357.932C180.919 358.748 178.745 358.96 176.648 358.54C174.551 358.121 172.625 357.09 171.114 355.576C169.603 354.063 168.575 352.136 168.159 350.038C167.743 347.941 167.958 345.767 168.777 343.791C169.596 341.816 170.982 340.128 172.761 338.94C174.539 337.752 176.63 337.118 178.768 337.118C180.19 337.118 181.598 337.398 182.911 337.943C184.224 338.488 185.417 339.286 186.422 340.292C187.427 341.298 188.223 342.492 188.766 343.806C189.308 345.121 189.586 346.529 189.584 347.951Z" fill="#FAFAFA"/>
<path d="M213.924 111.164H206.44V112.805H213.924V111.164Z" fill="#EE9062"/>
<path d="M194.59 111.164H176.897V112.805H194.59V111.164Z" fill="#EE9062"/>
<path d="M445.229 116.908H146.681C138.578 116.908 132.008 123.477 132.008 131.581V184.857C132.008 192.96 138.578 199.53 146.681 199.53H445.229C453.333 199.53 459.902 192.96 459.902 184.857V131.581C459.902 123.477 453.333 116.908 445.229 116.908Z" fill="#EE9062"/>
<path d="M448.693 120.371H150.144C142.041 120.371 135.471 126.94 135.471 135.044V188.32C135.471 196.424 142.041 202.993 150.144 202.993H448.693C456.796 202.993 463.366 196.424 463.366 188.32V135.044C463.366 126.94 456.796 120.371 448.693 120.371Z" fill="#EE9062"/>
<path opacity="0.6" d="M448.693 120.371H150.144C142.041 120.371 135.471 126.94 135.471 135.044V188.32C135.471 196.424 142.041 202.993 150.144 202.993H448.693C456.796 202.993 463.366 196.424 463.366 188.32V135.044C463.366 126.94 456.796 120.371 448.693 120.371Z" fill="#FAFAFA"/>
<path d="M452.156 123.834H153.608C145.504 123.834 138.935 130.404 138.935 138.507V191.783C138.935 199.887 145.504 206.456 153.608 206.456H452.156C460.259 206.456 466.829 199.887 466.829 191.783V138.507C466.829 130.404 460.259 123.834 452.156 123.834Z" fill="#EE9062"/>
<path opacity="0.8" d="M452.156 123.834H153.608C145.504 123.834 138.935 130.404 138.935 138.507V191.783C138.935 199.887 145.504 206.456 153.608 206.456H452.156C460.259 206.456 466.829 199.887 466.829 191.783V138.507C466.829 130.404 460.259 123.834 452.156 123.834Z" fill="#FAFAFA"/>
<path d="M372.439 137.802H227.284C225.553 137.802 224.15 139.205 224.15 140.936V147.173C224.15 148.905 225.553 150.308 227.284 150.308H372.439C374.17 150.308 375.574 148.905 375.574 147.173V140.936C375.574 139.205 374.17 137.802 372.439 137.802Z" fill="#EE9062"/>
<path d="M422.498 158.892H227.284C225.553 158.892 224.15 160.295 224.15 162.027V168.264C224.15 169.995 225.553 171.398 227.284 171.398H422.498C424.229 171.398 425.633 169.995 425.633 168.264V162.027C425.633 160.295 424.229 158.892 422.498 158.892Z" fill="#EE9062"/>
<path d="M279.132 179.982H225.857C224.914 179.982 224.15 180.746 224.15 181.689V182.986C224.15 183.928 224.914 184.693 225.857 184.693H279.132C280.075 184.693 280.839 183.928 280.839 182.986V181.689C280.839 180.746 280.075 179.982 279.132 179.982Z" fill="#EE9062"/>
<path opacity="0.5" d="M279.132 179.982H225.857C224.914 179.982 224.15 180.746 224.15 181.689V182.986C224.15 183.928 224.914 184.693 225.857 184.693H279.132C280.075 184.693 280.839 183.928 280.839 182.986V181.689C280.839 180.746 280.075 179.982 279.132 179.982Z" fill="#FAFAFA"/>
<path d="M207.401 171.975C211.165 156.164 201.399 140.296 185.588 136.532C169.777 132.768 153.909 142.534 150.145 158.345C146.381 174.156 156.148 190.024 171.958 193.788C187.769 197.552 203.638 187.786 207.401 171.975Z" fill="#EE9062"/>
<path d="M203.059 165.145C203.059 169.949 201.634 174.646 198.965 178.64C196.296 182.635 192.502 185.748 188.064 187.587C183.625 189.426 178.741 189.907 174.029 188.969C169.317 188.032 164.989 185.719 161.592 182.321C158.195 178.924 155.881 174.596 154.944 169.884C154.007 165.172 154.488 160.288 156.326 155.849C158.165 151.411 161.278 147.617 165.273 144.948C169.268 142.279 173.964 140.854 178.768 140.854C181.962 140.839 185.128 141.457 188.082 142.672C191.036 143.888 193.72 145.676 195.978 147.935C198.237 150.194 200.026 152.877 201.241 155.831C202.456 158.785 203.074 161.951 203.059 165.145Z" fill="#FAFAFA"/>
<path d="M200.121 176.716C198.033 180.553 194.95 183.756 191.195 185.987C187.44 188.219 183.153 189.397 178.785 189.397C174.417 189.397 170.129 188.219 166.374 185.987C162.619 183.756 159.536 180.553 157.448 176.716C163.768 172.507 171.191 170.26 178.785 170.26C186.378 170.26 193.802 172.507 200.121 176.716Z" fill="#EE9062"/>
<path opacity="0.7" d="M200.121 176.716C198.033 180.553 194.95 183.756 191.195 185.987C187.44 188.219 183.153 189.397 178.785 189.397C174.417 189.397 170.129 188.219 166.374 185.987C162.619 183.756 159.536 180.553 157.448 176.716C163.768 172.507 171.191 170.26 178.785 170.26C186.378 170.26 193.802 172.507 200.121 176.716Z" fill="#FAFAFA"/>
<path d="M178.768 167.64C184.742 167.64 189.584 162.797 189.584 156.824C189.584 150.85 184.742 146.008 178.768 146.008C172.795 146.008 167.952 150.85 167.952 156.824C167.952 162.797 172.795 167.64 178.768 167.64Z" fill="#EE9062"/>
<path opacity="0.7" d="M178.768 167.64C184.742 167.64 189.584 162.797 189.584 156.824C189.584 150.85 184.742 146.008 178.768 146.008C172.795 146.008 167.952 150.85 167.952 156.824C167.952 162.797 172.795 167.64 178.768 167.64Z" fill="#FAFAFA"/>
<path d="M655.083 338.284L644.316 343.88L656.38 353.252C656.38 353.252 664.488 346.457 661.304 341.763L655.083 338.284Z" fill="#E4897B"/>
<path d="M638.162 355.287L648.452 362.443L656.38 353.252L644.316 343.88L638.162 355.287Z" fill="#E4897B"/>
<path d="M659.252 245.207C660.729 247.144 661.993 248.883 663.273 250.771C664.553 252.658 665.768 254.48 666.983 256.351C669.379 260.126 671.66 264 673.761 267.972C675.916 271.985 677.866 276.104 679.604 280.314L680.901 283.596L682.066 286.879C682.476 287.962 682.788 289.111 683.133 290.244L683.641 291.885L683.756 292.312L683.953 293.017C684.079 293.526 684.177 294.041 684.249 294.56C684.63 297.67 684.407 300.824 683.592 303.85C682.986 306.275 682.213 308.655 681.278 310.973C679.543 315.223 677.525 319.352 675.238 323.332C670.855 331.036 665.866 338.379 660.319 345.292L652.769 340.368C656.396 332.802 659.941 325.006 663.043 317.39C664.563 313.672 665.883 309.875 666.999 306.016C667.513 304.285 667.903 302.519 668.164 300.731C668.378 299.57 668.378 298.38 668.164 297.219C668.164 297.219 668.164 297.318 668.164 297.219L668.033 296.891L667.491 295.529C667.147 294.626 666.818 293.74 666.392 292.837L665.21 290.145L663.913 287.437C662.119 283.859 660.193 280.303 658.136 276.769C656.052 273.256 653.902 269.744 651.571 266.297C649.24 262.851 646.926 259.355 644.727 256.187L659.252 245.207Z" fill="#E4897B"/>
<path d="M681.672 270.401L654.64 289.357C654.64 289.357 652.999 285.812 650.717 280.642C648.863 276.523 646.549 271.385 644.251 266.199C643.315 264.098 642.396 261.997 641.493 259.946C635.24 245.699 642.544 235.441 655.379 237.345C666.687 239.036 681.672 270.401 681.672 270.401Z" fill="#263238"/>
<path d="M652.014 250.672C652.539 255.76 652.588 271.5 650.717 280.642C648.863 276.522 646.549 271.385 644.251 266.199L652.014 250.672Z" fill="#EE9062"/>
<path opacity="0.8" d="M652.014 250.672C652.539 255.76 652.588 271.5 650.717 280.642C648.863 276.522 646.549 271.385 644.251 266.199L652.014 250.672Z" fill="#EE9062"/>
<g opacity="0.8">
<path opacity="0.8" d="M652.014 250.672C652.539 255.76 652.588 271.5 650.717 280.642C648.863 276.522 646.549 271.385 644.251 266.199L652.014 250.672Z" fill="black"/>
<path opacity="0.8" d="M652.014 250.672C652.539 255.76 652.588 271.5 650.717 280.642C648.863 276.522 646.549 271.385 644.251 266.199L652.014 250.672Z" fill="black"/>
</g>
<path d="M692.455 379.742L403.952 302.996C400.205 301.972 397.012 299.514 395.064 296.153C393.117 292.793 392.571 288.8 393.546 285.041L407.234 233.57C408.268 229.832 410.731 226.651 414.09 224.714C417.45 222.776 421.436 222.237 425.19 223.214L713.693 299.943C717.444 300.967 720.639 303.428 722.587 306.792C724.535 310.156 725.078 314.153 724.099 317.915L710.411 369.287C709.397 373.043 706.944 376.248 703.582 378.205C700.22 380.163 696.222 380.715 692.455 379.742Z" fill="#EE9062"/>
<path opacity="0.8" d="M692.455 379.742L403.952 302.996C400.205 301.972 397.012 299.514 395.064 296.153C393.117 292.793 392.571 288.8 393.546 285.041L407.234 233.57C408.268 229.832 410.731 226.651 414.09 224.714C417.45 222.776 421.436 222.237 425.19 223.214L713.693 299.943C717.444 300.967 720.639 303.428 722.587 306.792C724.535 310.156 725.078 314.153 724.099 317.915L710.411 369.287C709.397 373.043 706.944 376.248 703.582 378.205C700.22 380.163 696.222 380.715 692.455 379.742Z" fill="#FAFAFA"/>
<path d="M694.901 384.059L406.413 307.23C402.664 306.21 399.467 303.753 397.516 300.392C395.565 297.031 395.017 293.037 395.991 289.275L409.696 237.821C410.716 234.071 413.173 230.874 416.534 228.923C419.895 226.973 423.889 226.425 427.651 227.399L716.139 304.145C719.888 305.165 723.085 307.622 725.036 310.983C726.987 314.344 727.535 318.338 726.561 322.1L712.872 373.571C711.866 377.336 709.413 380.552 706.047 382.516C702.68 384.481 698.674 385.035 694.901 384.059Z" fill="#EE9062"/>
<path opacity="0.4" d="M694.901 384.059L406.413 307.23C402.664 306.21 399.467 303.753 397.516 300.392C395.565 297.031 395.017 293.037 395.991 289.275L409.696 237.821C410.716 234.071 413.173 230.874 416.534 228.923C419.895 226.973 423.889 226.425 427.651 227.399L716.139 304.145C719.888 305.165 723.085 307.622 725.036 310.983C726.987 314.344 727.535 318.338 726.561 322.1L712.872 373.571C711.866 377.336 709.413 380.552 706.047 382.516C702.68 384.481 698.674 385.035 694.901 384.059Z" fill="#FAFAFA"/>
<path d="M697.362 388.228L408.875 311.482C405.125 310.461 401.929 308.005 399.978 304.644C398.027 301.283 397.479 297.288 398.453 293.526L412.141 242.056C413.165 238.305 415.626 235.109 418.99 233.162C422.355 231.214 426.351 230.67 430.113 231.65L718.6 308.38C722.372 309.399 725.586 311.871 727.54 315.255C729.493 318.638 730.026 322.658 729.023 326.434L715.318 377.888C714.28 381.622 711.816 384.799 708.457 386.734C705.098 388.668 701.113 389.205 697.362 388.228Z" fill="#EE9062"/>
<path opacity="0.2" d="M697.362 388.228L408.875 311.482C405.125 310.461 401.929 308.005 399.978 304.644C398.027 301.283 397.479 297.288 398.453 293.526L412.141 242.056C413.165 238.305 415.626 235.109 418.99 233.162C422.355 231.214 426.351 230.67 430.113 231.65L718.6 308.38C722.372 309.399 725.586 311.871 727.54 315.255C729.493 318.638 730.026 322.658 729.023 326.434L715.318 377.888C714.28 381.622 711.816 384.799 708.457 386.734C705.098 388.668 701.113 389.205 697.362 388.228Z" fill="black"/>
<path d="M681.111 312.921L497.679 264.114C496.006 263.668 494.289 264.664 493.844 266.337L492.24 272.364C491.795 274.037 492.79 275.754 494.463 276.2L677.895 325.007C679.568 325.452 681.285 324.457 681.73 322.784L683.334 316.756C683.779 315.083 682.784 313.366 681.111 312.921Z" fill="#EE9062"/>
<path opacity="0.7" d="M681.111 312.921L497.679 264.114C496.006 263.668 494.289 264.664 493.844 266.337L492.24 272.364C491.795 274.037 492.79 275.754 494.463 276.2L677.895 325.007C679.568 325.452 681.285 324.457 681.73 322.784L683.334 316.756C683.779 315.083 682.784 313.366 681.111 312.921Z" fill="#FAFAFA"/>
<path d="M608.131 315.312L492.267 284.483C490.594 284.038 488.877 285.034 488.432 286.707L486.828 292.734C486.383 294.407 487.378 296.124 489.051 296.569L604.915 327.398C606.588 327.844 608.306 326.848 608.751 325.175L610.355 319.148C610.8 317.475 609.804 315.758 608.131 315.312Z" fill="#EE9062"/>
<path opacity="0.7" d="M608.131 315.312L492.267 284.483C490.594 284.038 488.877 285.034 488.432 286.707L486.828 292.734C486.383 294.407 487.378 296.124 489.051 296.569L604.915 327.398C606.588 327.844 608.306 326.848 608.751 325.175L610.355 319.148C610.8 317.475 609.804 315.758 608.131 315.312Z" fill="#FAFAFA"/>
<path d="M654.525 349.471L485.464 304.487C484.552 304.245 483.617 304.787 483.375 305.698L483.042 306.951C482.799 307.862 483.341 308.797 484.252 309.039L653.314 354.023C654.225 354.265 655.16 353.723 655.402 352.812L655.735 351.559C655.978 350.648 655.436 349.713 654.525 349.471Z" fill="#FAFAFA"/>
<path d="M466.794 293.625C476.058 280.297 472.764 261.984 459.437 252.719C446.109 243.455 427.796 246.749 418.532 260.076C409.268 273.404 412.561 291.717 425.889 300.982C439.216 310.246 457.53 306.952 466.794 293.625Z" fill="#EE9062"/>
<path d="M467.272 284.269C466.036 288.912 463.452 293.083 459.845 296.257C456.239 299.43 451.773 301.464 447.011 302.099C442.249 302.734 437.406 301.943 433.094 299.826C428.781 297.709 425.194 294.361 422.784 290.205C420.374 286.049 419.251 281.272 419.556 276.478C419.862 271.684 421.582 267.088 424.499 263.271C427.416 259.454 431.399 256.588 435.945 255.035C440.491 253.482 445.396 253.312 450.038 254.546C453.132 255.348 456.036 256.756 458.581 258.689C461.127 260.622 463.263 263.041 464.866 265.806C466.469 268.571 467.507 271.627 467.92 274.797C468.333 277.966 468.113 281.186 467.272 284.269Z" fill="#FAFAFA"/>
<path d="M461.462 294.691C458.461 297.883 454.654 300.203 450.442 301.406C446.23 302.609 441.771 302.649 437.538 301.524C433.305 300.398 429.455 298.148 426.397 295.012C423.339 291.876 421.186 287.971 420.167 283.711C427.363 281.265 435.122 281.002 442.468 282.956C449.813 284.91 456.416 288.993 461.445 294.691H461.462Z" fill="#EE9062"/>
<path opacity="0.7" d="M461.462 294.691C458.461 297.883 454.654 300.203 450.442 301.406C446.23 302.609 441.771 302.649 437.538 301.524C433.305 300.398 429.455 298.148 426.397 295.012C423.339 291.876 421.186 287.971 420.167 283.711C427.363 281.265 435.122 281.002 442.468 282.956C449.813 284.91 456.416 288.993 461.445 294.691H461.462Z" fill="#FAFAFA"/>
<path d="M456.39 272.78C455.839 274.846 454.687 276.702 453.081 278.114C451.475 279.526 449.487 280.43 447.367 280.712C445.248 280.994 443.092 280.642 441.173 279.699C439.253 278.757 437.657 277.267 436.584 275.417C435.511 273.567 435.011 271.441 435.146 269.307C435.281 267.173 436.046 265.127 437.343 263.427C438.641 261.728 440.413 260.451 442.436 259.758C444.459 259.065 446.642 258.988 448.709 259.535C450.084 259.899 451.373 260.531 452.504 261.394C453.634 262.257 454.583 263.334 455.297 264.565C456.01 265.795 456.474 267.154 456.662 268.564C456.849 269.973 456.757 271.406 456.39 272.78Z" fill="#EE9062"/>
<path opacity="0.7" d="M456.39 272.78C455.839 274.846 454.687 276.702 453.081 278.114C451.475 279.526 449.487 280.43 447.367 280.712C445.248 280.994 443.092 280.642 441.173 279.699C439.253 278.757 437.657 277.267 436.584 275.417C435.511 273.567 435.011 271.441 435.146 269.307C435.281 267.173 436.046 265.127 437.343 263.427C438.641 261.728 440.413 260.451 442.436 259.758C444.459 259.065 446.642 258.988 448.709 259.535C450.084 259.899 451.373 260.531 452.504 261.394C453.634 262.257 454.583 263.334 455.297 264.565C456.01 265.795 456.474 267.154 456.662 268.564C456.849 269.973 456.757 271.406 456.39 272.78Z" fill="#FAFAFA"/>
<path d="M638.359 202.074C635.29 210.444 631.055 226.004 636.176 232.733C636.176 232.733 632.417 241.12 616.366 238.543C598.705 235.704 609.325 228.433 609.325 228.433C619.336 227.678 620.223 220.489 619.632 213.497L638.359 202.074Z" fill="#E4897B"/>
<path d="M605.632 231.223C606.534 229.697 605.73 223.739 605.73 223.739C605.73 223.739 631.268 221.851 640.197 225.626C644.973 227.645 640.197 236.147 640.197 236.147L605.632 231.223Z" fill="#EE9062"/>
<path opacity="0.1" d="M605.632 231.223C606.534 229.697 605.73 223.739 605.73 223.739C605.73 223.739 631.268 221.851 640.197 225.626C644.973 227.645 640.197 236.147 640.197 236.147L605.632 231.223Z" fill="black"/>
<path d="M608.914 187.368C608.75 188.32 608.126 189.01 607.503 188.911C606.879 188.813 606.501 187.959 606.649 187.007C606.797 186.055 607.437 185.366 608.061 185.464C608.684 185.563 609.013 186.416 608.914 187.368Z" fill="#263238"/>
<path d="M608.799 187.844C607.199 190.572 605.227 193.063 602.94 195.246C603.51 195.827 604.202 196.275 604.965 196.559C605.728 196.843 606.544 196.955 607.355 196.888L608.799 187.844Z" fill="#DE5753"/>
<path d="M612.755 184.414C612.65 184.419 612.547 184.394 612.457 184.341C612.366 184.289 612.293 184.212 612.246 184.118C611.932 183.479 611.471 182.924 610.9 182.499C610.329 182.074 609.665 181.791 608.963 181.673C608.829 181.641 608.711 181.562 608.63 181.451C608.549 181.339 608.511 181.202 608.523 181.064C608.535 180.927 608.596 180.798 608.695 180.702C608.794 180.606 608.924 180.549 609.062 180.541C609.951 180.677 610.794 181.023 611.522 181.551C612.25 182.08 612.842 182.774 613.247 183.577C613.317 183.71 613.333 183.865 613.29 184.01C613.247 184.154 613.149 184.275 613.017 184.348C612.937 184.393 612.846 184.415 612.755 184.414Z" fill="#263238"/>
<path d="M534.384 564.977L522.534 563.385L523.092 535.516L534.942 537.108L534.384 564.977Z" fill="#E4897B"/>
<path d="M622.849 578.074H610.884L601.578 550.369H613.526L622.849 578.074Z" fill="#E4897B"/>
<path d="M609.292 576.679H623.883C624.119 576.684 624.348 576.767 624.532 576.915C624.716 577.064 624.846 577.27 624.9 577.5L627.264 588.135C627.318 588.394 627.313 588.662 627.25 588.919C627.186 589.175 627.066 589.414 626.897 589.618C626.728 589.822 626.515 589.984 626.275 590.094C626.034 590.204 625.772 590.258 625.507 590.253C620.813 590.171 617.4 589.908 611.491 589.908C607.847 589.908 600.363 590.285 595.341 590.285C590.319 590.285 589.662 585.362 591.714 584.869C600.938 582.85 604.401 580.077 607.355 577.418C607.888 576.942 608.577 576.679 609.292 576.679Z" fill="#263238"/>
<path d="M522.123 560.676L535.073 562.416C535.308 562.45 535.523 562.562 535.685 562.735C535.846 562.909 535.943 563.132 535.959 563.368L536.879 574.217C536.901 574.479 536.864 574.742 536.771 574.987C536.677 575.232 536.529 575.453 536.338 575.633C536.147 575.813 535.918 575.947 535.668 576.026C535.417 576.105 535.152 576.126 534.893 576.088C530.231 575.366 523.535 574.184 517.659 573.396C510.799 572.461 506.17 571.952 498.177 570.869C493.253 570.212 492.63 565.108 494.731 564.927C504.266 564.156 510.47 565.059 519.136 561.202C520.064 560.754 521.098 560.572 522.123 560.676Z" fill="#263238"/>
<path d="M523.092 535.516L522.796 549.893L534.663 551.485L534.942 537.124L523.092 535.516Z" fill="#CE6F64"/>
<path d="M613.543 550.386H601.578L606.387 564.665H618.351L613.543 550.386Z" fill="#CE6F64"/>
<path d="M590.86 229.631C590.86 229.631 572.035 263.524 576.335 331.965L639.705 340.516C641.461 330.849 641.756 282.562 657.332 237.985C650.507 235.682 643.539 233.829 636.471 232.438C627.572 230.699 618.579 229.483 609.538 228.794C603.3 228.585 597.055 228.865 590.86 229.631Z" fill="#263238"/>
<path d="M598.147 246.897C595.521 251.444 592.731 255.842 589.941 260.307L581.456 273.437C578.633 277.835 575.678 282.168 572.708 286.567C571.23 288.734 569.704 290.884 568.178 293.034L565.863 296.316C565.01 297.481 564.009 298.811 563.057 299.911C559.319 304.183 555.198 308.106 550.747 311.629C546.464 315.043 542.114 318.194 537.617 321.149C528.74 327.025 519.479 332.3 509.896 336.938L505.514 329.142C513.72 323.118 521.926 316.767 529.739 310.316C533.629 307.034 537.436 303.751 540.998 300.321C544.47 297.08 547.665 293.556 550.55 289.784C551.24 288.881 551.765 288.143 552.389 287.109L554.407 283.826L558.428 277.261L566.471 264.016L574.513 250.722C577.254 246.323 579.929 241.859 582.719 237.509L598.147 246.897Z" fill="#E4897B"/>
<path d="M603.99 244.189C602.464 255.514 582.654 282.464 582.654 282.464L555.064 259.174C555.064 259.174 569.491 243.04 581.324 233.833C593.158 224.625 605.632 231.748 603.99 244.189Z" fill="#263238"/>
<path d="M511.455 325.728L501.131 329.24L511.471 340.024C511.471 340.024 517.774 339.269 517.199 330.57L511.455 325.728Z" fill="#E4897B"/>
<path d="M494.287 337.447L506.088 343.24L511.472 340.023L501.131 329.24L494.287 337.447Z" fill="#E4897B"/>
<path d="M641.477 189.239C638.884 200.827 637.948 207.736 631.088 212.792C620.748 220.391 607.174 212.792 606.255 200.597C605.418 189.682 609.8 172.58 622.011 169.757C624.697 169.123 627.501 169.186 630.155 169.941C632.81 170.696 635.227 172.117 637.178 174.069C639.129 176.021 640.548 178.44 641.3 181.095C642.052 183.75 642.113 186.554 641.477 189.239Z" fill="#E4897B"/>
<path d="M657.512 188.845C657.359 187.954 657.017 187.105 656.511 186.355C656.004 185.605 655.344 184.971 654.574 184.496C660.188 182.034 657.381 179.178 652.588 175.009C646.401 169.478 643.824 158.285 644.103 155.889C642.15 158.859 642.675 163.241 644.333 167.181C642.267 164.906 640.602 162.298 639.409 159.467C634.616 147.436 624.26 157.957 614.265 158.301C597.474 158.876 610.769 150.095 623.095 150.357C604.729 144.728 586.412 151.703 589.399 163.98C592.386 176.257 612.935 160.698 612.82 172.022C612.82 174.32 615.331 176.585 619.057 178.374C613.887 189.01 626.492 210.379 633.829 211.068C641.165 211.758 654.016 198.988 654.558 187.926C655.592 188.043 656.595 188.354 657.512 188.845Z" fill="#263238"/>
<path d="M624.802 191.882C624.07 194.773 622.231 197.261 619.681 198.808C616.267 200.81 613.559 198.02 613.641 194.262C613.723 190.897 615.611 185.776 619.435 185.3C620.273 185.211 621.12 185.333 621.9 185.654C622.679 185.975 623.367 186.485 623.899 187.138C624.432 187.792 624.794 188.568 624.951 189.396C625.109 190.224 625.057 191.078 624.802 191.882Z" fill="#E4897B"/>
<path d="M622.668 561.891H600.708C600.708 561.891 571.789 488.148 568.719 449.89C568.063 441.684 569.376 430.868 571.805 419.231C575.941 399.339 583.294 376.903 589.202 360.145C594.504 345.374 598.755 334.952 598.755 334.952L639.672 340.483C635.651 370.173 603.186 417.393 602.809 457.998C602.497 495.452 622.668 561.891 622.668 561.891Z" fill="#EE9062"/>
<path opacity="0.1" d="M622.668 561.891H600.708C600.708 561.891 571.789 488.148 568.719 449.89C568.063 441.684 569.376 430.868 571.805 419.231C575.941 399.339 583.294 376.903 589.202 360.145C594.504 345.374 598.755 334.952 598.755 334.952L639.672 340.483C635.651 370.173 603.186 417.393 602.809 457.998C602.497 495.452 622.668 561.891 622.668 561.891Z" fill="black"/>
<path d="M599.608 369.468C598.18 389.311 582.916 410.418 571.854 419.232C575.99 399.339 583.343 376.903 589.251 360.146C592.354 359.768 597.261 365.89 599.608 369.468Z" fill="#EE9062"/>
<path opacity="0.2" d="M599.608 369.468C598.18 389.311 582.916 410.418 571.854 419.232C575.99 399.339 583.343 376.903 589.251 360.146C592.354 359.768 597.261 365.89 599.608 369.468Z" fill="black"/>
<path d="M576.335 331.965C576.335 331.965 520.072 406.889 516.477 443.145C512.735 480.894 518.726 546.545 518.726 546.545L538.799 549.253C538.799 549.253 544.855 487.607 550.747 450.777C557.148 410.664 618.04 369.189 622.291 338.136L576.335 331.965Z" fill="#EE9062"/>
<path opacity="0.1" d="M576.335 331.965C576.335 331.965 520.072 406.889 516.477 443.145C512.735 480.894 518.726 546.545 518.726 546.545L538.799 549.253C538.799 549.253 544.855 487.607 550.747 450.777C557.148 410.664 618.04 369.189 622.291 338.136L576.335 331.965Z" fill="black"/>
<path d="M596.884 562.367H625.524V554.653L593.519 554.161L596.884 562.367Z" fill="#EE9062"/>
<path opacity="0.4" d="M596.884 562.367H625.524V554.653L593.519 554.161L596.884 562.367Z" fill="#FAFAFA"/>
<path d="M514.672 546.414L542.557 550.238L543.591 542.524L512.423 537.83L514.672 546.414Z" fill="#EE9062"/>
<path opacity="0.4" d="M514.672 546.414L542.557 550.238L543.591 542.524L512.423 537.83L514.672 546.414Z" fill="#FAFAFA"/>
<path d="M605.336 578.78C604.522 578.839 603.711 578.619 603.038 578.156C602.82 577.979 602.651 577.748 602.548 577.487C602.444 577.225 602.41 576.942 602.447 576.663C602.447 576.496 602.493 576.333 602.58 576.191C602.667 576.049 602.792 575.934 602.94 575.859C604.253 575.202 608.126 577.5 608.553 577.828C608.598 577.858 608.635 577.9 608.658 577.949C608.681 577.998 608.69 578.053 608.684 578.107C608.678 578.163 608.654 578.216 608.616 578.257C608.577 578.299 608.527 578.327 608.471 578.337C607.447 578.608 606.395 578.757 605.336 578.78ZM603.564 576.302C603.445 576.274 603.321 576.274 603.202 576.302C603.202 576.302 603.038 576.417 603.022 576.63C602.995 576.82 603.015 577.014 603.081 577.194C603.147 577.375 603.256 577.536 603.399 577.664C604.738 578.27 606.257 578.346 607.65 577.877C606.402 577.095 605.014 576.56 603.564 576.302Z" fill="#EE9062"/>
<path d="M608.405 578.353H608.274C607.027 577.68 604.647 575.071 604.893 573.725C604.935 573.516 605.048 573.329 605.212 573.194C605.377 573.059 605.583 572.986 605.796 572.986C606.01 572.955 606.228 572.971 606.435 573.034C606.642 573.096 606.833 573.203 606.994 573.347C608.389 574.48 608.635 577.926 608.635 578.074C608.644 578.126 608.637 578.18 608.613 578.227C608.589 578.274 608.551 578.313 608.504 578.337L608.405 578.353ZM605.993 573.429H605.861C605.5 573.429 605.467 573.643 605.451 573.708C605.303 574.496 606.83 576.482 608.061 577.418C607.97 576.058 607.479 574.756 606.649 573.675C606.459 573.539 606.226 573.475 605.993 573.495V573.429Z" fill="#EE9062"/>
<path d="M519.103 562.219C517.232 562.219 515 561.973 514.18 560.972C514.013 560.775 513.895 560.542 513.835 560.291C513.775 560.04 513.775 559.779 513.835 559.528C513.869 559.376 513.939 559.234 514.039 559.114C514.139 558.994 514.266 558.9 514.409 558.838C515.952 558.248 520.384 561.3 520.892 561.645C520.941 561.679 520.977 561.728 520.998 561.783C521.018 561.839 521.022 561.899 521.007 561.957C520.99 562.013 520.955 562.063 520.908 562.098C520.861 562.133 520.804 562.153 520.745 562.154C520.285 562.187 519.694 562.219 519.103 562.219ZM514.869 559.331C514.767 559.306 514.66 559.306 514.557 559.331C514.5 559.349 514.45 559.384 514.412 559.431C514.374 559.477 514.35 559.534 514.344 559.593C514.301 559.758 514.298 559.93 514.335 560.095C514.372 560.261 514.448 560.415 514.557 560.545C515.197 561.284 517.15 561.678 519.809 561.579C518.329 560.507 516.649 559.743 514.869 559.331Z" fill="#EE9062"/>
<path d="M520.679 562.17H520.531C519.185 561.333 516.707 558.395 517.101 557.082C517.183 556.787 517.446 556.426 518.168 556.426H518.25C518.533 556.439 518.811 556.508 519.067 556.629C519.323 556.751 519.553 556.921 519.743 557.132C520.645 558.567 521.07 560.25 520.958 561.94C520.96 561.991 520.947 562.042 520.921 562.086C520.895 562.129 520.856 562.164 520.81 562.187L520.679 562.17ZM518.168 556.951C517.708 556.951 517.659 557.132 517.643 557.197C517.396 557.985 519.054 560.25 520.4 561.333C520.444 559.962 520.066 558.609 519.317 557.46C519.182 557.304 519.015 557.178 518.829 557.091C518.642 557.003 518.44 556.956 518.233 556.951H518.168Z" fill="#EE9062"/>
</svg>
