<svg width="18" height="20" viewBox="0 0 18 20" fill="none" xmlns="http://www.w3.org/2000/svg">
<path d="M12.7885 15.2821L13.1042 15.4659L13.3753 15.2209C13.8129 14.8254 14.3762 14.58 15 14.58C16.3339 14.58 17.42 15.6661 17.42 17C17.42 18.3339 16.3339 19.42 15 19.42C13.6661 19.42 12.58 18.3339 12.58 17C12.58 16.8247 12.604 16.6439 12.6464 16.4658L12.7322 16.1053L12.4122 15.9183L5.29224 11.7583L4.97224 11.5713L4.7003 11.8231C4.24562 12.2441 3.65469 12.5 3 12.5C1.61614 12.5 0.5 11.3839 0.5 10C0.5 8.61614 1.61614 7.5 3 7.5C3.65469 7.5 4.24562 7.75589 4.7003 8.17688L4.97196 8.42843L5.29182 8.24196L12.3418 4.13196L12.6558 3.94892L12.5786 3.59378C12.531 3.37472 12.5 3.1861 12.5 3C12.5 1.61614 13.6161 0.5 15 0.5C16.3839 0.5 17.5 1.61614 17.5 3C17.5 4.38386 16.3839 5.5 15 5.5C14.3453 5.5 13.7544 5.24411 13.2997 4.82312L13.028 4.57157L12.7082 4.75804L5.65818 8.86804L5.34421 9.05108L5.42141 9.40622C5.46903 9.62528 5.5 9.8139 5.5 10C5.5 10.1861 5.46903 10.3747 5.42141 10.5938L5.34415 10.9492L5.65848 11.1321L12.7885 15.2821Z" stroke="#0038FF"/>
</svg>
