<svg width="79" height="25" viewBox="0 0 79 25" fill="none" xmlns="http://www.w3.org/2000/svg">
<rect width="79" height="25" fill="#E5E5E5"/>
<g clip-path="url(#clip0)">
<rect width="1440" height="1974" transform="translate(-33 -12)" fill="white"/>
<path fill-rule="evenodd" clip-rule="evenodd" d="M6.69228 24.1136L6.68492 24.1111C4.74548 23.4452 3.06507 22.3848 1.83304 20.9158L1.81567 20.8951L1.79859 20.8742C0.487809 19.2725 0 17.4721 0 15.7334V10.6824H0.357497C0.199272 10.045 0.130353 9.40501 0.130353 8.77814C0.130353 7.03594 0.718074 5.28322 2.12443 3.76764C3.38028 2.4073 5.02944 1.45235 6.86176 0.847559C8.64583 0.251662 10.5275 0 12.4182 0C13.941 0 15.4641 0.153169 16.934 0.516832V0.233613H45.6989L45.7054 0.212374H60.5996L61.1029 1.86693C61.6624 1.51916 62.2527 1.23083 62.8474 0.993619C64.6454 0.272698 66.5921 0.0637127 68.3545 0.0637127C69.9552 0.0637127 71.6915 0.218878 73.3195 0.743967C74.6919 1.18425 76.2345 1.92321 77.3833 3.19007C78.3737 4.27315 79 5.60783 79 7.10038C79 7.80141 78.8683 8.4824 78.6136 9.12847C78.8857 9.85117 79 10.5827 79 11.2842C79 12.7384 78.4401 14.0625 77.5223 15.178C76.4491 16.4863 74.9647 17.3207 73.527 17.847L73.5141 17.8518L73.5012 17.8564C71.8029 18.4695 69.9864 18.65 68.3285 18.65C67.6402 18.65 66.914 18.6211 66.1753 18.5418L68.0623 24.7451H16.934V24.5181C15.4808 24.8577 13.9759 25 12.4704 25C10.5082 25 8.54711 24.7452 6.69964 24.1161L6.69228 24.1136ZM7.66824 19.5314C7.1339 19.2268 6.68374 18.8563 6.31775 18.4199C5.85416 17.8535 5.57241 17.1802 5.47252 16.4003C5.44508 16.186 5.43135 15.9637 5.43135 15.7334V15.1069H9.48532V15.6697C9.48532 15.6911 9.48552 15.7123 9.48592 15.7334C9.49189 16.0467 9.54225 16.3264 9.63699 16.5727C9.64173 16.585 9.64658 16.5973 9.65154 16.6094C9.67898 16.6766 9.70982 16.7413 9.74406 16.8034C9.75054 16.8151 9.75714 16.8268 9.76386 16.8384C9.87225 17.0249 10.0123 17.1875 10.1839 17.3263C10.1866 17.3285 10.1893 17.3306 10.1921 17.3328C10.2942 17.4144 10.4074 17.4877 10.5316 17.5527C10.7763 17.6805 11.0639 17.7761 11.3945 17.8392C11.4178 17.8436 11.4414 17.8479 11.4652 17.8521C11.548 17.8665 11.6335 17.8789 11.7215 17.8894C11.9531 17.917 12.2028 17.931 12.4704 17.9315C12.4747 17.9315 12.4791 17.9315 12.4834 17.9315C13.4828 17.9315 14.2519 17.8005 14.7907 17.5386C14.8242 17.5223 14.8568 17.5053 14.8882 17.4877C14.8951 17.4839 14.9019 17.4801 14.9086 17.4762C15.2344 17.2886 15.4449 17.0314 15.54 16.7044C15.5406 16.7024 15.5412 16.7004 15.5417 16.6984C15.5798 16.5652 15.5988 16.4205 15.5988 16.2643C15.5988 16.2322 15.5977 16.2003 15.5953 16.1688C15.583 16.0055 15.5391 15.8502 15.4635 15.7026C15.4607 15.6971 15.4578 15.6915 15.4548 15.686C15.3549 15.4977 15.2031 15.3224 14.9992 15.16C14.9958 15.1573 14.9923 15.1545 14.9889 15.1518C14.9776 15.1429 14.9662 15.134 14.9547 15.1252C14.9422 15.1155 14.9295 15.1059 14.9167 15.0963C14.837 15.0368 14.7518 14.9785 14.6611 14.9215C14.306 14.6983 13.8669 14.4946 13.3438 14.3105C13.1434 14.2371 12.9355 14.1651 12.72 14.0946C12.7131 14.0923 12.7062 14.0901 12.6993 14.0878C12.6911 14.0852 12.683 14.0825 12.6749 14.0799C12.6117 14.0594 12.5479 14.039 12.4834 14.0187C12.3689 13.9828 12.2524 13.9472 12.1339 13.912C12.0369 13.8832 11.9386 13.8547 11.8389 13.8264C11.5644 13.7486 11.2795 13.6728 10.9844 13.599C10.6983 13.5256 10.4184 13.4452 10.1446 13.3581C10.0692 13.3341 9.99429 13.3096 9.91983 13.2845C9.77319 13.2352 9.62836 13.1839 9.48532 13.1306C9.07514 12.9776 8.67973 12.8082 8.29911 12.6221C7.97497 12.4637 7.67561 12.2883 7.40104 12.0961C7.39 12.0884 7.379 12.0806 7.36804 12.0728C6.95734 11.7811 6.60289 11.4509 6.30472 11.0824C6.20352 10.9551 6.11266 10.8218 6.03214 10.6824C5.71852 10.1396 5.56171 9.50479 5.56171 8.77814C5.56171 7.85785 5.86152 7.07561 6.46114 6.4314C6.94677 5.90394 7.57489 5.47863 8.34552 5.15547C8.35326 5.15222 8.36102 5.14899 8.36879 5.14576C8.54259 5.07361 8.72358 5.00662 8.91177 4.94478C9.9459 4.5979 11.1147 4.42447 12.4182 4.42447C12.4357 4.42447 12.453 4.42449 12.4704 4.42455C13.8133 4.42892 14.9995 4.60233 16.029 4.94478C16.3029 5.0333 16.5612 5.13359 16.8039 5.24565C16.8478 5.26591 16.8911 5.28656 16.934 5.3076C17.0233 5.35141 17.1104 5.3969 17.1952 5.44405C17.2048 5.44939 17.2144 5.45474 17.2239 5.46012C17.7252 5.7426 18.1481 6.08406 18.4927 6.4845C18.9895 7.04757 19.2805 7.72728 19.3657 8.52362C19.3723 8.58522 19.3776 8.64752 19.3817 8.71052C19.3838 8.74236 19.3856 8.77438 19.3871 8.80658C19.3904 8.8811 19.3921 8.95656 19.3921 9.03299V9.67011H15.3512V9.18165C15.3512 9.13124 15.3499 9.08168 15.3474 9.03299C15.3354 8.80172 15.2948 8.58982 15.2258 8.39728C15.2211 8.38422 15.2163 8.37125 15.2113 8.35838C15.1977 8.32278 15.183 8.28786 15.1673 8.25363C15.1619 8.24171 15.1563 8.22988 15.1506 8.21813C15.0454 8.00119 14.8988 7.81233 14.7109 7.65157C14.7019 7.64389 14.6928 7.63627 14.6837 7.62872C14.6717 7.61885 14.6596 7.6091 14.6473 7.59946C14.6096 7.56937 14.5702 7.5405 14.529 7.51286C14.2541 7.32845 13.9002 7.19882 13.4675 7.12397C13.4219 7.11608 13.3754 7.1088 13.328 7.10213C13.3065 7.0991 13.2849 7.0962 13.263 7.09342C13.021 7.06267 12.7567 7.04729 12.4704 7.04729C12.4529 7.04729 12.4356 7.04734 12.4182 7.04743C11.4874 7.05251 10.7618 7.19404 10.2414 7.47204C10.2276 7.4795 10.2141 7.48706 10.2007 7.49473C10.1938 7.49867 10.187 7.50263 10.1803 7.50662C9.84535 7.70417 9.6271 7.96984 9.52554 8.30364C9.52379 8.30941 9.52207 8.3152 9.52038 8.32102C9.47962 8.4615 9.45925 8.61387 9.45925 8.77814C9.45925 8.97389 9.49893 9.15611 9.5783 9.3248C9.5821 9.33288 9.58599 9.34092 9.58997 9.34894C9.66641 9.50278 9.77636 9.64518 9.91983 9.77616C9.9515 9.80508 9.98482 9.83344 10.0198 9.86125C10.0657 9.89701 10.1137 9.9323 10.1638 9.96714C10.1836 9.98096 10.2038 9.99471 10.2242 10.0084C10.4848 10.1824 10.7965 10.3447 11.1596 10.4952C11.174 10.5012 11.1885 10.5072 11.203 10.5131C11.3244 10.5626 11.4514 10.6108 11.584 10.6577C11.6073 10.6659 11.6308 10.6742 11.6544 10.6824C11.7779 10.7257 11.9046 10.769 12.0344 10.8122C12.0428 10.8151 12.0513 10.8179 12.0598 10.8207C12.1934 10.8651 12.3302 10.9095 12.4704 10.9539C12.7067 11.0287 12.9524 11.1036 13.2075 11.1784C13.412 11.2385 13.6225 11.2985 13.8391 11.3585C14.1579 11.449 14.4653 11.5422 14.7612 11.6382C14.7779 11.6436 14.7944 11.649 14.811 11.6544C14.8464 11.6659 14.8816 11.6775 14.9167 11.6892C15.0644 11.7382 15.2093 11.788 15.3512 11.8385C15.8884 12.0295 16.3837 12.2305 16.8372 12.4416C16.8697 12.4563 16.902 12.4712 16.934 12.4862C17.2109 12.6163 17.4669 12.7574 17.7019 12.9095C18.1572 13.2042 18.5338 13.5402 18.8316 13.9176C18.8775 13.975 18.9211 14.034 18.9625 14.0946C19.3445 14.6534 19.5355 15.3448 19.5355 16.1688C19.5355 16.2008 19.5351 16.2326 19.5345 16.2643C19.5148 17.1645 19.2153 17.9326 18.6361 18.5686C18.1978 19.0516 17.6304 19.451 16.934 19.7665C16.8078 19.8238 16.6773 19.8782 16.5425 19.9299C16.4184 19.9776 16.2907 20.0229 16.1594 20.0658C15.1025 20.4046 13.8771 20.5745 12.4834 20.5755C12.4791 20.5755 12.4747 20.5755 12.4704 20.5755C11.08 20.5755 9.85465 20.395 8.79445 20.034C8.38474 19.8933 8.00934 19.7258 7.66824 19.5314ZM26.2108 6.90925V20.3207H22.3654V4.65808H29.2089L32.5459 18.0908L35.909 4.65808H42.7525V20.3207H38.9201V6.93048L35.2442 20.3207H29.9519L26.2108 6.90925ZM45.1526 20.3207L49.9496 4.63684H56.3499L59.7749 15.8961L61.1208 20.3207H56.9756L55.9588 16.6891H50.3276L49.2978 20.3207H45.1526ZM51.0576 14.1194H55.2419L53.1563 6.69687L51.0576 14.1194ZM77.3395 7.08905C76.7472 6.44382 76.0609 5.96378 75.343 5.60932C75.2125 5.31833 75.0453 5.02813 74.8361 4.74368M72.3242 2.81658C73.1531 3.17475 74.053 3.74365 74.7366 4.61283C74.766 4.65027 74.7947 4.68783 74.8227 4.72549M71.0687 4.78329C71.0432 4.77638 71.0176 4.7696 70.9917 4.76294C70.9647 4.75602 70.9376 4.74922 70.9102 4.74256L70.9078 4.74197L70.9077 4.67411C70.9007 4.67427 70.826 4.67598 70.7004 4.69507C70.06 4.56045 69.2998 4.49153 68.4197 4.4883C68.3981 4.48822 68.3763 4.48818 68.3545 4.48818C68.3502 4.48818 68.3458 4.48818 68.3415 4.48818C68.1949 4.48831 68.0515 4.4905 67.9113 4.49478C67.7218 4.50056 67.5381 4.51014 67.3603 4.52351C67.3273 4.52599 67.2945 4.5286 67.2619 4.53135C66.9396 4.55848 66.6372 4.59841 66.3547 4.65113C66.3171 4.65816 66.2798 4.66541 66.2428 4.67289C66.0253 4.71693 65.8201 4.76884 65.6271 4.82863C65.6198 4.83088 65.6126 4.83314 65.6053 4.83541C65.4779 4.87548 65.3558 4.91902 65.2391 4.96602C64.457 5.2775 63.8834 5.67747 63.5185 6.16594C63.4459 6.2617 63.3805 6.35845 63.3223 6.45618C63.0881 6.84969 62.971 7.2591 62.971 7.68441H66.2428C66.2428 7.63478 66.2454 7.58681 66.2504 7.5405C66.2511 7.5342 66.2518 7.52792 66.2526 7.52168C66.258 7.4789 66.2655 7.43758 66.2753 7.39771C66.311 7.25186 66.3762 7.12542 66.4708 7.01837C66.4736 7.01522 66.4764 7.01208 66.4793 7.00896C66.5754 6.90333 66.7008 6.817 66.8555 6.74996C67.154 6.6233 67.506 6.54196 67.9113 6.50595C68.0195 6.49635 68.1314 6.48997 68.2471 6.48681C68.2783 6.48596 68.3098 6.48535 68.3415 6.48496C68.3458 6.48491 68.3502 6.48486 68.3545 6.48482C68.3761 6.4846 68.3979 6.4845 68.4197 6.4845C68.4933 6.4845 68.565 6.4859 68.635 6.48871C68.651 6.48936 68.667 6.49008 68.6828 6.49087C69.1123 6.51235 69.4722 6.58809 69.7624 6.71811C69.9909 6.81348 70.1462 6.94091 70.2281 7.10038L70.2304 7.10493C70.2326 7.10913 70.2346 7.11336 70.2366 7.11761C70.2767 7.20221 70.2968 7.29557 70.2968 7.39771C70.2968 7.41617 70.296 7.43439 70.2945 7.45237C70.2932 7.46682 70.2915 7.48111 70.2892 7.49524C70.2786 7.56174 70.257 7.62479 70.2243 7.68441C70.1436 7.83129 69.9957 7.95729 69.7805 8.06242C69.7729 8.06612 69.7653 8.06979 69.7576 8.07343C69.7548 8.07473 69.7521 8.07602 69.7493 8.0773C69.6912 8.10321 69.6305 8.12705 69.5672 8.14883C69.5296 8.16175 69.4911 8.17395 69.4517 8.18541C69.41 8.19754 69.3673 8.20885 69.3236 8.21935C69.2234 8.2434 69.1178 8.2632 69.0068 8.27876C68.9663 8.28444 68.9251 8.28954 68.8832 8.29409C68.8442 8.29831 68.8046 8.30205 68.7644 8.30529C68.7388 8.30736 68.713 8.30923 68.6869 8.3109C68.6395 8.31394 68.5913 8.31632 68.5422 8.31806C68.502 8.31948 68.4611 8.32047 68.4197 8.32102C68.4024 8.32125 68.3851 8.3214 68.3676 8.32148C68.3632 8.3215 68.3589 8.32153 68.3545 8.32154M68.2456 8.32154H68.3415H68.2456ZM68.3598 8.02044C68.3625 8.00966 68.3651 7.99887 68.3676 7.98807C68.3822 7.9242 68.3921 7.86007 68.3975 7.79655C68.3848 7.79552 68.3747 7.79488 68.3676 7.7945C68.3647 7.79435 68.3604 7.79416 68.3604 7.79416L68.3545 7.79419C68.3504 7.79422 68.346 7.79427 68.3415 7.79434C68.3195 7.79466 68.2932 7.79543 68.2629 7.79695C68.276 7.83274 68.2902 7.86832 68.3053 7.90365C68.3171 7.93091 68.3291 7.95745 68.3415 7.98326C68.3458 7.99225 68.3502 8.00115 68.3545 8.00996C68.3563 8.01347 68.358 8.01696 68.3598 8.02044ZM67.9113 7.83582C67.819 7.85113 67.7167 7.87192 67.6065 7.90009L67.9113 8.36698V8.40139L67.593 7.90355C67.4833 7.93203 67.3659 7.96781 67.2429 8.01273C67.2326 8.0165 67.2223 8.02034 67.2118 8.02424C67.1808 8.03588 67.1495 8.04809 67.1178 8.06091C67.1121 8.06323 67.1064 8.06556 67.1007 8.06791C66.9829 8.11631 66.861 8.17318 66.7366 8.24001C66.7278 8.24474 66.719 8.24953 66.7101 8.25437C66.7022 8.25876 66.6943 8.26318 66.6863 8.26764C66.6552 8.28508 66.6242 8.30305 66.5932 8.32154C66.475 8.39197 66.3576 8.46996 66.2428 8.55557C65.976 8.7545 65.7231 8.99452 65.5066 9.27626C65.5333 9.31296 65.5611 9.34961 65.5898 9.38618C65.7925 9.64395 66.0162 9.86025 66.2428 10.0407L66.2442 10.0418C66.5283 10.2676 66.817 10.4372 67.0752 10.5613L67.5546 9.79738C67.4597 9.75788 67.3989 9.74142 67.3856 9.73806C67.3937 9.73991 67.4201 9.74546 67.4674 9.75258C67.5236 9.76103 67.5992 9.77019 67.6962 9.77825C67.7376 9.78169 67.7829 9.78492 67.8323 9.78782C67.8575 9.78931 67.8839 9.7907 67.9113 9.79199V10.0327C67.8539 9.98157 67.8008 9.9408 67.7559 9.9093C67.7127 9.87903 67.6771 9.85731 67.6524 9.8432C67.6361 9.83389 67.6246 9.82789 67.6188 9.82494L67.1259 10.5853C67.1324 10.5883 67.1389 10.5913 67.1453 10.5943C67.1678 10.6046 67.19 10.6146 67.212 10.6242C67.2372 10.635 67.2621 10.6453 67.2868 10.6553C67.3729 10.6899 67.456 10.7198 67.5353 10.7456L67.6704 10.6883L67.9113 10.3285V10.0418H68.3415C68.3502 10.0418 68.3589 10.0418 68.3676 10.0418C68.3851 10.0419 68.4024 10.0421 68.4197 10.0423M67.721 10.6668L67.9113 10.3939L67.721 10.6668ZM67.6428 10.7789L67.6492 10.7697L67.6428 10.7789ZM66.2799 11.2786C66.2633 11.2041 66.2523 11.1245 66.2468 11.0399C66.2442 10.9987 66.2428 10.9562 66.2428 10.9125V10.8806H62.971V10.9125C62.971 11.3194 63.0605 11.7182 63.2394 12.1089C63.2971 12.2348 63.364 12.3598 63.4403 12.4841C63.6983 12.8874 64.1017 13.236 64.6507 13.5299C64.7859 13.6023 64.9299 13.6713 65.0827 13.7371C65.2074 13.789 65.3397 13.8368 65.4796 13.8804C65.4943 13.885 65.509 13.8895 65.5239 13.894C65.745 13.9608 65.9846 14.0175 66.2428 14.0641C66.5149 14.1132 66.8075 14.1511 67.1209 14.1778C67.3712 14.1992 67.6347 14.2133 67.9113 14.2204C68.0472 14.2238 68.1862 14.2255 68.3285 14.2255C68.3328 14.2255 68.3372 14.2255 68.3415 14.2255C68.3502 14.2255 68.3589 14.2255 68.3676 14.2255C69.5646 14.2226 70.5411 14.0849 71.2972 13.8126L71.3005 13.8114C71.309 13.8083 71.3175 13.8052 71.326 13.802C71.5976 13.7013 71.8438 13.5905 72.0645 13.4695C72.4615 13.2518 72.7761 13.0012 73.0081 12.7177C73.3818 12.2646 73.5686 11.7868 73.5686 11.2842C73.5686 11.2769 73.5686 11.2696 73.5686 11.2623C73.568 11.1866 73.5645 11.1125 73.5582 11.0399C73.5252 10.6656 73.4149 10.3329 73.2271 10.0418C73.1597 9.93731 73.0824 9.8382 72.9951 9.74444C72.7108 9.43202 72.2705 9.23232 71.6742 9.14532C71.5401 9.12575 71.398 9.11189 71.2481 9.10373C71.1886 9.10049 71.1279 9.09814 71.0659 9.0967C71.1309 9.09516 71.1946 9.09262 71.257 9.0891C71.4035 9.08081 71.5426 9.06705 71.6742 9.04781C72.2568 8.96263 72.6928 8.77009 72.9821 8.4702C73.0293 8.42142 73.0737 8.37187 73.1153 8.32154C73.3493 8.03818 73.4927 7.73024 73.5455 7.39771C73.5596 7.3091 73.5673 7.21874 73.5685 7.12664C73.5686 7.1179 73.5686 7.10915 73.5686 7.10038C73.5686 6.64732 73.3862 6.22257 73.0212 5.82614C72.6649 5.4297 72.1 5.1076 71.3266 4.85983C71.2901 4.84802 71.2532 4.8365 71.2157 4.82525C71.1675 4.8108 71.1185 4.79681 71.0687 4.78329M66.2799 11.2786C66.2833 11.2936 66.2869 11.3084 66.2907 11.3231L66.2799 11.2786ZM67.9113 8.92563V8.73654C67.7934 8.84196 67.6933 8.90255 67.6449 8.92907C67.6362 8.93379 67.6293 8.93743 67.6241 8.94006C67.6211 8.94158 67.6171 8.94361 67.6171 8.94361C67.5702 8.96124 67.5419 8.9689 67.5366 8.97024C67.5415 8.96906 67.5668 8.96326 67.6161 8.9557C67.6823 8.94555 67.7794 8.93414 67.9113 8.92563ZM62.5992 3.89707H62.48V4.00306C62.2762 4.18954 62.0932 4.3844 61.9299 4.58545M58.8892 3.85182C58.8101 3.95652 58.7341 4.06269 58.6613 4.17026C58.3322 4.65616 58.0681 5.17088 57.879 5.70933M62.971 3.60095C62.8404 3.6967 62.7166 3.79553 62.5992 3.89707L62.971 3.60095ZM63.4872 3.25995H62.971V3.60095M64.0277 2.97042C63.8381 3.06178 63.658 3.15848 63.4872 3.25995L64.0277 2.97042ZM67.9113 8.32154H68.2456H67.9113ZM68.3545 7.79419C68.3545 7.79419 68.3561 7.79399 68.3584 7.79408L68.3545 7.79419ZM13.0093 15.1069L13.4215 15.6697L13.0093 15.1069ZM14.8335 15.298L14.3871 15.6697L14.8335 15.298ZM12.4834 14.3891L12.5208 14.4401L12.4834 14.3891ZM67.9113 7.83582V8.32154V7.83582Z" fill="url(#paint0_linear)"/>
</g>
<defs>
<linearGradient id="paint0_linear" x1="39.6875" y1="3.50772" x2="39.6875" y2="25.63" gradientUnits="userSpaceOnUse">
<stop stop-color="#F8C164"/>
<stop offset="0.333333" stop-color="#EE9062"/>
<stop offset="0.479167" stop-color="#914C75" stop-opacity="0.85"/>
<stop offset="0.6875" stop-color="#384989"/>
<stop offset="1" stop-color="#639CC8" stop-opacity="0.85"/>
</linearGradient>
<clipPath id="clip0">
<rect width="1440" height="1974" fill="white" transform="translate(-33 -12)"/>
</clipPath>
</defs>
</svg>
