<svg width="18" height="20" viewBox="0 0 18 20" fill="none" xmlns="http://www.w3.org/2000/svg">
<path d="M15.3762 13.8462V8.71795C15.3762 5.56923 13.6337 2.93333 10.595 2.2359V1.53846C10.595 0.68718 9.8831 0 9.00122 0C8.11935 0 7.40747 0.68718 7.40747 1.53846V2.2359C4.3581 2.93333 2.62622 5.55897 2.62622 8.71795V13.8462L0.501221 15.8974V16.9231H17.5012V15.8974L15.3762 13.8462ZM10.0637 13.8462H7.93872V11.7949H10.0637V13.8462ZM10.0637 9.74359H7.93872V5.64103H10.0637V9.74359ZM9.00122 20C10.17 20 11.1262 19.0769 11.1262 17.9487H6.87622C6.87622 19.0769 7.82185 20 9.00122 20Z" fill="#384989"/>
</svg>
