<svg width="25" height="23" viewBox="0 0 25 23" fill="none" xmlns="http://www.w3.org/2000/svg">
<path d="M24.0023 11.3154L13.7734 0.941554L13.0877 0.245848C12.9315 0.0883782 12.7203 0 12.5 0C12.2798 0 12.0686 0.0883782 11.9124 0.245848L0.997791 11.3154C0.837715 11.4772 0.711205 11.6699 0.625727 11.8821C0.540249 12.0943 0.497536 12.3217 0.50011 12.551C0.510699 13.4965 1.28634 14.2513 2.21817 14.2513H3.34325V23H21.6569V14.2513H22.8058C23.2584 14.2513 23.6846 14.0713 24.005 13.7463C24.1627 13.5868 24.2876 13.3971 24.3726 13.1882C24.4576 12.9794 24.5009 12.7555 24.5 12.5295C24.5 12.0729 24.3226 11.6404 24.0023 11.3154ZM13.9825 21.066H11.0176V15.5863H13.9825V21.066ZM19.7508 12.3173V21.066H15.6767V14.9416C15.6767 14.348 15.2029 13.8672 14.6178 13.8672H10.3823C9.79722 13.8672 9.32336 14.348 9.32336 14.9416V21.066H5.24926V12.3173H2.70791L12.5027 2.38669L13.1142 3.00718L22.2948 12.3173H19.7508Z" fill="#384989"/>
</svg>
