<svg width="26" height="26" viewBox="0 0 26 26" fill="none" xmlns="http://www.w3.org/2000/svg">
<path fill-rule="evenodd" clip-rule="evenodd" d="M18.5231 17.1044L25.2481 23.8294C25.4845 24.0659 25.6172 24.3867 25.6171 24.7211C25.617 25.0555 25.4841 25.3761 25.2475 25.6125C25.011 25.8489 24.6902 25.9816 24.3558 25.9815C24.0214 25.9814 23.7008 25.8484 23.4644 25.6119L16.7394 18.8869C14.729 20.444 12.201 21.1767 9.66955 20.9361C7.13812 20.6954 4.79344 19.4994 3.1125 17.5914C1.43156 15.6834 0.540635 13.2067 0.620962 10.6651C0.701289 8.12349 1.74684 5.70796 3.5449 3.90989C5.34297 2.11183 7.7585 1.06628 10.3001 0.985952C12.8417 0.905626 15.3184 1.79655 17.2264 3.47749C19.1344 5.15843 20.3304 7.50311 20.5711 10.0345C20.8117 12.566 20.079 15.094 18.5219 17.1044H18.5231ZM10.6169 18.4806C12.606 18.4806 14.5137 17.6905 15.9202 16.2839C17.3267 14.8774 18.1169 12.9698 18.1169 10.9806C18.1169 8.99151 17.3267 7.08386 15.9202 5.67734C14.5137 4.27081 12.606 3.48064 10.6169 3.48064C8.62777 3.48064 6.72012 4.27081 5.3136 5.67734C3.90707 7.08386 3.1169 8.99151 3.1169 10.9806C3.1169 12.9698 3.90707 14.8774 5.3136 16.2839C6.72012 17.6905 8.62777 18.4806 10.6169 18.4806Z" fill="#384989"/>
</svg>
