<svg width="34" height="34" viewBox="0 0 34 34" fill="none" xmlns="http://www.w3.org/2000/svg">
<path d="M24.6511 9.6335L13.6678 20.6168L7.68447 14.6502L5.33447 17.0002L13.6678 25.3335L27.0011 12.0002L24.6511 9.6335ZM17.0011 0.333496C7.80114 0.333496 0.334473 7.80016 0.334473 17.0002C0.334473 26.2002 7.80114 33.6668 17.0011 33.6668C26.2011 33.6668 33.6678 26.2002 33.6678 17.0002C33.6678 7.80016 26.2011 0.333496 17.0011 0.333496ZM17.0011 30.3335C9.63447 30.3335 3.66781 24.3668 3.66781 17.0002C3.66781 9.6335 9.63447 3.66683 17.0011 3.66683C24.3678 3.66683 30.3345 9.6335 30.3345 17.0002C30.3345 24.3668 24.3678 30.3335 17.0011 30.3335Z" fill="white"/>
</svg>
