<svg width="21" height="21" viewBox="0 0 21 21" fill="none" xmlns="http://www.w3.org/2000/svg">
<path d="M15.2824 5.896L8.41781 12.7606L4.67822 9.03141L3.20947 10.5002L8.41781 15.7085L16.7511 7.37516L15.2824 5.896ZM10.5011 0.0834961C4.75114 0.0834961 0.0844727 4.75016 0.0844727 10.5002C0.0844727 16.2502 4.75114 20.9168 10.5011 20.9168C16.2511 20.9168 20.9178 16.2502 20.9178 10.5002C20.9178 4.75016 16.2511 0.0834961 10.5011 0.0834961ZM10.5011 18.8335C5.89697 18.8335 2.16781 15.1043 2.16781 10.5002C2.16781 5.896 5.89697 2.16683 10.5011 2.16683C15.1053 2.16683 18.8345 5.896 18.8345 10.5002C18.8345 15.1043 15.1053 18.8335 10.5011 18.8335Z" fill="#EE9062"/>
</svg>
