<svg width="360" height="640" viewBox="0 0 360 640" fill="none" xmlns="http://www.w3.org/2000/svg">
<path d="M229.568 183.274L300.672 329.426L390.754 204.135L229.568 183.274Z" fill="#914C75" fill-opacity="0.85"/>
<g style="mix-blend-mode:hard-light">
<path d="M68.0342 491.522L167.237 313.789L-49.0429 325.019L68.0342 491.522Z" fill="#384989"/>
</g>
<g style="mix-blend-mode:color">
<path d="M333.919 341.914L251.251 206.492L175.28 339.297L333.919 341.914Z" fill="#EE9062"/>
</g>
<g style="mix-blend-mode:color">
<path d="M92.2387 282.818L139.555 481.698L289.274 337.309L92.2387 282.818Z" fill="#F8C164"/>
</g>
<path d="M232.052 250.192L118.935 261.797L190.699 356.116L232.052 250.192Z" fill="#639CC8" fill-opacity="0.85"/>
<path d="M-14.3001 142.284L67.6225 282.657L-86.6035 287.845L-14.3001 142.284Z" fill="#914C75" fill-opacity="0.85"/>
<g style="mix-blend-mode:hard-light">
<path d="M331.717 179.46L128.834 163.064L258.448 -10.4393L331.717 179.46Z" fill="#384989"/>
</g>
<g style="mix-blend-mode:color">
<path d="M59.5117 317.234L-7.06269 173.216L145.561 183.935L59.5117 317.234Z" fill="#EE9062"/>
</g>
<g style="mix-blend-mode:color">
<path d="M144.803 83.5091L283.777 233.437L80.5129 277.568L144.803 83.5091Z" fill="#F8C164"/>
</g>
<path d="M39.9338 181.563L112.486 94.0063L150.964 206.103L39.9338 181.563Z" fill="#639CC8" fill-opacity="0.85"/>
<path d="M146.747 390.758L228.669 531.131L74.4431 536.319L146.747 390.758Z" fill="#914C75" fill-opacity="0.85"/>
<g style="mix-blend-mode:hard-light">
<path d="M492.764 427.934L289.881 411.538L419.495 238.035L492.764 427.934Z" fill="#384989"/>
</g>
<g style="mix-blend-mode:color">
<path d="M220.558 565.708L153.984 421.69L306.608 432.409L220.558 565.708Z" fill="#EE9062"/>
</g>
<g style="mix-blend-mode:color">
<path d="M305.85 331.983L444.824 481.911L241.559 526.042L305.85 331.983Z" fill="#F8C164"/>
</g>
<path d="M200.98 430.037L273.533 342.48L312.011 454.577L200.98 430.037Z" fill="#639CC8" fill-opacity="0.85"/>
</svg>
