<svg width="312" height="203" viewBox="0 0 312 203" fill="none" xmlns="http://www.w3.org/2000/svg">
<rect width="312" height="203" fill="#E5E5E5"/>
<g clip-path="url(#clip0)">
<rect width="360" height="640" transform="translate(-27.9995 -419)" fill="white"/>
<rect x="-27.9995" y="-419" width="360" height="640" fill="white"/>
<path d="M102.263 20.2758L96.8795 21.7324L100.144 15.1798L102.263 20.2758Z" fill="#914C75" fill-opacity="0.85"/>
<path d="M85.1886 149.463L79.8048 150.92L83.0695 144.367L85.1886 149.463Z" fill="#639CC8" fill-opacity="0.85"/>
<path d="M6.88759 120.209L1.50375 121.666L4.76845 115.113L6.88759 120.209Z" fill="#EE9062"/>
<path d="M27.8873 40.3583L22.5035 41.8149L25.7682 35.2623L27.8873 40.3583Z" fill="#F8C164"/>
<path d="M211.112 178.696L214.378 184.895L206.046 183.468L211.112 178.696Z" fill="#F8C164"/>
<path d="M255.382 0.66416L258.659 6.81492L250.311 5.4866L255.382 0.66416Z" fill="#639CC8" fill-opacity="0.85"/>
<path d="M270.115 195.944L264.732 194.488L267.996 201.04L270.115 195.944Z" fill="#914C75" fill-opacity="0.85"/>
<path d="M304.27 74.5659L311.265 73.9277L306.726 81.0596L304.27 74.5659Z" fill="#EE9062"/>
<path d="M48.7005 -18.688C47.2445 -18.688 45.9205 -19.028 44.7285 -19.708C43.5365 -20.396 42.5885 -21.412 41.8845 -22.756C41.1885 -24.108 40.8405 -25.784 40.8405 -27.784C40.8405 -29.784 41.2165 -31.468 41.9685 -32.836C42.7205 -34.204 43.7285 -35.24 44.9925 -35.944C46.2645 -36.648 47.6805 -37 49.2405 -37C50.5605 -37 51.6765 -36.796 52.5885 -36.388C53.5085 -35.98 54.2525 -35.456 54.8205 -34.816C55.3965 -34.184 55.8125 -33.52 56.0685 -32.824C56.3325 -32.128 56.4645 -31.492 56.4645 -30.916V-30.772H51.7605V-30.916C51.7605 -31.532 51.5325 -32.076 51.0765 -32.548C50.6285 -33.02 50.0165 -33.256 49.2405 -33.256C48.7125 -33.256 48.1805 -33.1 47.6445 -32.788C47.1085 -32.476 46.6605 -31.924 46.3005 -31.132C45.9405 -30.348 45.7605 -29.232 45.7605 -27.784C45.7605 -26.696 45.8605 -25.8 46.0605 -25.096C46.2685 -24.4 46.5365 -23.856 46.8645 -23.464C47.2005 -23.08 47.5685 -22.808 47.9685 -22.648C48.3765 -22.496 48.7805 -22.42 49.1805 -22.42C50.0365 -22.42 50.7125 -22.616 51.2085 -23.008C51.7045 -23.408 52.0045 -23.808 52.1085 -24.208V-24.88H49.1565V-28.228H56.3925V-19H54.1365L53.6445 -20.956C53.5725 -20.716 53.3565 -20.416 52.9965 -20.056C52.6445 -19.704 52.1165 -19.388 51.4125 -19.108C50.7165 -18.828 49.8125 -18.688 48.7005 -18.688ZM72.7776 -23.032C72.6976 -22.28 72.3656 -21.572 71.7816 -20.908C71.2056 -20.252 70.3976 -19.716 69.3576 -19.3C68.3256 -18.892 67.0856 -18.688 65.6376 -18.688C64.1416 -18.688 62.8456 -18.968 61.7496 -19.528C60.6536 -20.096 59.8096 -20.88 59.2176 -21.88C58.6256 -22.888 58.3296 -24.044 58.3296 -25.348C58.3296 -26.684 58.6336 -27.852 59.2416 -28.852C59.8496 -29.852 60.7016 -30.628 61.7976 -31.18C62.9016 -31.732 64.1816 -32.008 65.6376 -32.008C67.1416 -32.008 68.4376 -31.724 69.5256 -31.156C70.6216 -30.596 71.4656 -29.796 72.0576 -28.756C72.6496 -27.724 72.9456 -26.496 72.9456 -25.072C72.9456 -24.832 72.9416 -24.628 72.9336 -24.46C72.9256 -24.292 72.9136 -24.156 72.8976 -24.052H63.2736C63.4256 -23.436 63.7056 -22.964 64.1136 -22.636C64.5296 -22.308 65.1056 -22.144 65.8416 -22.144C66.6176 -22.144 67.1616 -22.24 67.4736 -22.432C67.7936 -22.632 67.9696 -22.832 68.0016 -23.032H72.7776ZM65.6976 -28.6C64.4656 -28.6 63.6736 -28.044 63.3216 -26.932H68.0736C68.0176 -27.324 67.8056 -27.7 67.4376 -28.06C67.0696 -28.42 66.4896 -28.6 65.6976 -28.6ZM81.7727 -18.688C81.2207 -18.688 80.6367 -18.732 80.0207 -18.82C79.4127 -18.9 78.8407 -19.072 78.3047 -19.336C77.7687 -19.6 77.3327 -19.996 76.9967 -20.524C76.6607 -21.06 76.4927 -21.776 76.4927 -22.672V-28.144H73.6487V-31.744H73.7087C74.3327 -31.744 74.8287 -31.772 75.1967 -31.828C75.5727 -31.884 75.8527 -32.02 76.0367 -32.236C76.2207 -32.452 76.3407 -32.792 76.3967 -33.256C76.4607 -33.72 76.4927 -34.36 76.4927 -35.176V-35.92H81.3407V-31.744H84.8567V-28.144H81.3407V-23.92C81.3407 -23.456 81.3967 -23.064 81.5087 -22.744C81.6207 -22.424 81.9207 -22.264 82.4087 -22.264C82.6967 -22.264 82.9687 -22.292 83.2247 -22.348C83.4807 -22.404 83.6727 -22.46 83.8007 -22.516V-19.024C83.6167 -18.944 83.3487 -18.868 82.9967 -18.796C82.6527 -18.724 82.2447 -18.688 81.7727 -18.688ZM99.9367 -18.688C99.3847 -18.688 98.8007 -18.732 98.1847 -18.82C97.5767 -18.9 97.0047 -19.072 96.4687 -19.336C95.9327 -19.6 95.4967 -19.996 95.1607 -20.524C94.8247 -21.06 94.6567 -21.776 94.6567 -22.672V-28.144H91.8127V-31.744H91.8727C92.4967 -31.744 92.9927 -31.772 93.3607 -31.828C93.7367 -31.884 94.0167 -32.02 94.2007 -32.236C94.3847 -32.452 94.5047 -32.792 94.5607 -33.256C94.6247 -33.72 94.6567 -34.36 94.6567 -35.176V-35.92H99.5047V-31.744H103.021V-28.144H99.5047V-23.92C99.5047 -23.456 99.5607 -23.064 99.6727 -22.744C99.7847 -22.424 100.085 -22.264 100.573 -22.264C100.861 -22.264 101.133 -22.292 101.389 -22.348C101.645 -22.404 101.837 -22.46 101.965 -22.516V-19.024C101.781 -18.944 101.513 -18.868 101.161 -18.796C100.817 -18.724 100.409 -18.688 99.9367 -18.688ZM105.021 -19V-37.756H109.857V-29.836C110.313 -30.532 110.913 -31.068 111.657 -31.444C112.401 -31.82 113.253 -32.008 114.213 -32.008C115.789 -32.008 116.933 -31.552 117.645 -30.64C118.365 -29.728 118.725 -28.452 118.725 -26.812V-19H113.889V-25.384C113.889 -26.192 113.769 -26.832 113.529 -27.304C113.289 -27.776 112.773 -28.012 111.981 -28.012C111.205 -28.012 110.657 -27.78 110.337 -27.316C110.017 -26.86 109.857 -26.216 109.857 -25.384V-19H105.021ZM134.793 -23.032C134.713 -22.28 134.381 -21.572 133.797 -20.908C133.221 -20.252 132.413 -19.716 131.373 -19.3C130.341 -18.892 129.101 -18.688 127.653 -18.688C126.157 -18.688 124.861 -18.968 123.765 -19.528C122.669 -20.096 121.825 -20.88 121.233 -21.88C120.641 -22.888 120.345 -24.044 120.345 -25.348C120.345 -26.684 120.649 -27.852 121.257 -28.852C121.865 -29.852 122.717 -30.628 123.813 -31.18C124.917 -31.732 126.197 -32.008 127.653 -32.008C129.157 -32.008 130.453 -31.724 131.541 -31.156C132.637 -30.596 133.481 -29.796 134.073 -28.756C134.665 -27.724 134.961 -26.496 134.961 -25.072C134.961 -24.832 134.957 -24.628 134.949 -24.46C134.941 -24.292 134.929 -24.156 134.913 -24.052H125.289C125.441 -23.436 125.721 -22.964 126.129 -22.636C126.545 -22.308 127.121 -22.144 127.857 -22.144C128.633 -22.144 129.177 -22.24 129.489 -22.432C129.809 -22.632 129.985 -22.832 130.017 -23.032H134.793ZM127.713 -28.6C126.481 -28.6 125.689 -28.044 125.337 -26.932H130.089C130.033 -27.324 129.821 -27.7 129.453 -28.06C129.085 -28.42 128.505 -28.6 127.713 -28.6ZM147.652 -37.756V-19H142.888V-37.756H147.652ZM154.351 -18.712C153.439 -18.712 152.623 -18.856 151.903 -19.144C151.183 -19.44 150.615 -19.864 150.199 -20.416C149.783 -20.976 149.575 -21.656 149.575 -22.456C149.575 -23.4 149.843 -24.16 150.379 -24.736C150.923 -25.312 151.615 -25.748 152.455 -26.044C153.303 -26.34 154.179 -26.528 155.083 -26.608C156.371 -26.728 157.239 -26.832 157.687 -26.92C158.135 -27.008 158.359 -27.164 158.359 -27.388V-27.4C158.359 -27.696 158.179 -27.948 157.819 -28.156C157.467 -28.372 156.995 -28.48 156.403 -28.48C155.139 -28.48 154.507 -28.02 154.507 -27.1H149.743C149.743 -28.172 150.043 -29.072 150.643 -29.8C151.243 -30.528 152.047 -31.076 153.055 -31.444C154.071 -31.82 155.199 -32.008 156.439 -32.008C157.615 -32.008 158.715 -31.832 159.739 -31.48C160.771 -31.128 161.607 -30.588 162.247 -29.86C162.887 -29.14 163.207 -28.216 163.207 -27.088V-22.132C163.207 -21.78 163.215 -21.44 163.231 -21.112C163.247 -20.784 163.295 -20.48 163.375 -20.2C163.463 -19.904 163.579 -19.648 163.723 -19.432C163.867 -19.224 163.983 -19.08 164.071 -19H159.343C159.271 -19.072 159.167 -19.204 159.031 -19.396C158.895 -19.588 158.783 -19.808 158.695 -20.056C158.671 -20.136 158.647 -20.212 158.623 -20.284C158.127 -19.78 157.495 -19.392 156.727 -19.12C155.967 -18.848 155.175 -18.712 154.351 -18.712ZM155.791 -22.144C156.311 -22.144 156.823 -22.292 157.327 -22.588C157.839 -22.892 158.179 -23.42 158.347 -24.172C157.971 -24.084 157.587 -24.008 157.195 -23.944C156.803 -23.888 156.423 -23.84 156.055 -23.8C155.503 -23.744 155.091 -23.652 154.819 -23.524C154.555 -23.404 154.423 -23.208 154.423 -22.936C154.423 -22.408 154.879 -22.144 155.791 -22.144ZM172.335 -18.688C171.783 -18.688 171.199 -18.732 170.583 -18.82C169.975 -18.9 169.403 -19.072 168.867 -19.336C168.331 -19.6 167.895 -19.996 167.559 -20.524C167.223 -21.06 167.055 -21.776 167.055 -22.672V-28.144H164.211V-31.744H164.271C164.895 -31.744 165.391 -31.772 165.759 -31.828C166.135 -31.884 166.415 -32.02 166.599 -32.236C166.783 -32.452 166.903 -32.792 166.959 -33.256C167.023 -33.72 167.055 -34.36 167.055 -35.176V-35.92H171.903V-31.744H175.419V-28.144H171.903V-23.92C171.903 -23.456 171.959 -23.064 172.071 -22.744C172.183 -22.424 172.483 -22.264 172.971 -22.264C173.259 -22.264 173.531 -22.292 173.787 -22.348C174.043 -22.404 174.235 -22.46 174.363 -22.516V-19.024C174.179 -18.944 173.911 -18.868 173.559 -18.796C173.215 -18.724 172.807 -18.688 172.335 -18.688ZM190.973 -23.032C190.893 -22.28 190.561 -21.572 189.977 -20.908C189.401 -20.252 188.593 -19.716 187.553 -19.3C186.521 -18.892 185.281 -18.688 183.833 -18.688C182.337 -18.688 181.041 -18.968 179.945 -19.528C178.849 -20.096 178.005 -20.88 177.413 -21.88C176.821 -22.888 176.525 -24.044 176.525 -25.348C176.525 -26.684 176.829 -27.852 177.437 -28.852C178.045 -29.852 178.897 -30.628 179.993 -31.18C181.097 -31.732 182.377 -32.008 183.833 -32.008C185.337 -32.008 186.633 -31.724 187.721 -31.156C188.817 -30.596 189.661 -29.796 190.253 -28.756C190.845 -27.724 191.141 -26.496 191.141 -25.072C191.141 -24.832 191.137 -24.628 191.129 -24.46C191.121 -24.292 191.109 -24.156 191.093 -24.052H181.469C181.621 -23.436 181.901 -22.964 182.309 -22.636C182.725 -22.308 183.301 -22.144 184.037 -22.144C184.813 -22.144 185.357 -22.24 185.669 -22.432C185.989 -22.632 186.165 -22.832 186.197 -23.032H190.973ZM183.893 -28.6C182.661 -28.6 181.869 -28.044 181.517 -26.932H186.269C186.213 -27.324 186.001 -27.7 185.633 -28.06C185.265 -28.42 184.685 -28.6 183.893 -28.6ZM198.468 -18.688C197.716 -18.688 196.972 -18.78 196.236 -18.964C195.5 -19.14 194.828 -19.408 194.22 -19.768C193.62 -20.136 193.136 -20.596 192.768 -21.148C192.408 -21.7 192.228 -22.348 192.228 -23.092V-23.212H197.016V-23.092C197.016 -22.756 197.16 -22.52 197.448 -22.384C197.736 -22.248 198.124 -22.18 198.612 -22.18C198.788 -22.18 198.992 -22.2 199.224 -22.24C199.456 -22.288 199.656 -22.364 199.824 -22.468C200 -22.58 200.088 -22.724 200.088 -22.9C200.088 -23.164 199.904 -23.348 199.536 -23.452C199.176 -23.564 198.544 -23.692 197.64 -23.836C197.096 -23.924 196.52 -24.052 195.912 -24.22C195.304 -24.396 194.732 -24.632 194.196 -24.928C193.66 -25.232 193.224 -25.616 192.888 -26.08C192.552 -26.544 192.384 -27.116 192.384 -27.796C192.384 -28.724 192.664 -29.5 193.224 -30.124C193.792 -30.748 194.54 -31.216 195.468 -31.528C196.404 -31.848 197.424 -32.008 198.528 -32.008C199.576 -32.008 200.56 -31.828 201.48 -31.468C202.4 -31.116 203.148 -30.612 203.724 -29.956C204.3 -29.3 204.588 -28.524 204.588 -27.628V-27.508H199.848V-27.628C199.848 -27.956 199.696 -28.192 199.392 -28.336C199.096 -28.48 198.796 -28.552 198.492 -28.552C198.332 -28.552 198.14 -28.532 197.916 -28.492C197.7 -28.46 197.512 -28.396 197.352 -28.3C197.192 -28.204 197.112 -28.064 197.112 -27.88C197.112 -27.64 197.336 -27.452 197.784 -27.316C198.232 -27.188 198.788 -27.076 199.452 -26.98C199.908 -26.916 200.436 -26.812 201.036 -26.668C201.636 -26.524 202.22 -26.308 202.788 -26.02C203.356 -25.74 203.824 -25.356 204.192 -24.868C204.568 -24.388 204.756 -23.772 204.756 -23.02C204.756 -22.212 204.568 -21.532 204.192 -20.98C203.824 -20.428 203.328 -19.984 202.704 -19.648C202.088 -19.312 201.412 -19.068 200.676 -18.916C199.94 -18.764 199.204 -18.688 198.468 -18.688ZM213.585 -18.688C213.033 -18.688 212.449 -18.732 211.833 -18.82C211.225 -18.9 210.653 -19.072 210.117 -19.336C209.581 -19.6 209.145 -19.996 208.809 -20.524C208.473 -21.06 208.305 -21.776 208.305 -22.672V-28.144H205.461V-31.744H205.521C206.145 -31.744 206.641 -31.772 207.009 -31.828C207.385 -31.884 207.665 -32.02 207.849 -32.236C208.033 -32.452 208.153 -32.792 208.209 -33.256C208.273 -33.72 208.305 -34.36 208.305 -35.176V-35.92H213.153V-31.744H216.669V-28.144H213.153V-23.92C213.153 -23.456 213.209 -23.064 213.321 -22.744C213.433 -22.424 213.733 -22.264 214.221 -22.264C214.509 -22.264 214.781 -22.292 215.037 -22.348C215.293 -22.404 215.485 -22.46 215.613 -22.516V-19.024C215.429 -18.944 215.161 -18.868 214.809 -18.796C214.465 -18.724 214.057 -18.688 213.585 -18.688ZM48.2805 6.312C47.7285 6.312 47.1445 6.268 46.5285 6.18C45.9205 6.1 45.3485 5.928 44.8125 5.664C44.2765 5.4 43.8405 5.004 43.5045 4.476C43.1685 3.94 43.0005 3.224 43.0005 2.328V-3.144H40.1565V-6.744H40.2165C40.8405 -6.744 41.3365 -6.772 41.7045 -6.828C42.0805 -6.884 42.3605 -7.02 42.5445 -7.236C42.7285 -7.452 42.8485 -7.792 42.9045 -8.256C42.9685 -8.72 43.0005 -9.36 43.0005 -10.176V-10.92H47.8485V-6.744H51.3645V-3.144H47.8485V1.08C47.8485 1.544 47.9045 1.936 48.0165 2.256C48.1285 2.576 48.4285 2.736 48.9165 2.736C49.2045 2.736 49.4765 2.708 49.7325 2.652C49.9885 2.596 50.1805 2.54 50.3085 2.484V5.976C50.1245 6.056 49.8565 6.132 49.5045 6.204C49.1605 6.276 48.7525 6.312 48.2805 6.312ZM66.9182 1.968C66.8382 2.72 66.5062 3.428 65.9222 4.092C65.3462 4.748 64.5382 5.284 63.4982 5.7C62.4662 6.108 61.2262 6.312 59.7782 6.312C58.2822 6.312 56.9862 6.032 55.8902 5.472C54.7942 4.904 53.9502 4.12 53.3582 3.12C52.7662 2.112 52.4702 0.956 52.4702 -0.348001C52.4702 -1.684 52.7742 -2.852 53.3822 -3.852C53.9902 -4.852 54.8422 -5.628 55.9382 -6.18C57.0422 -6.732 58.3222 -7.008 59.7782 -7.008C61.2822 -7.008 62.5782 -6.724 63.6662 -6.156C64.7622 -5.596 65.6062 -4.796 66.1982 -3.756C66.7902 -2.724 67.0862 -1.496 67.0862 -0.0720005C67.0862 0.168 67.0822 0.372 67.0742 0.54C67.0662 0.708 67.0542 0.844 67.0382 0.948H57.4142C57.5662 1.564 57.8462 2.036 58.2542 2.364C58.6702 2.692 59.2462 2.856 59.9822 2.856C60.7582 2.856 61.3022 2.76 61.6142 2.568C61.9342 2.368 62.1102 2.168 62.1422 1.968H66.9182ZM59.8382 -3.6C58.6062 -3.6 57.8142 -3.044 57.4622 -1.932H62.2142C62.1582 -2.324 61.9462 -2.7 61.5782 -3.06C61.2102 -3.42 60.6302 -3.6 59.8382 -3.6ZM75.5053 6.312C73.9773 6.312 72.6653 6.02 71.5693 5.436C70.4733 4.852 69.6333 4.052 69.0493 3.036C68.4653 2.02 68.1733 0.864 68.1733 -0.432C68.1733 -1.736 68.4653 -2.88 69.0493 -3.864C69.6333 -4.848 70.4733 -5.616 71.5693 -6.168C72.6653 -6.728 73.9773 -7.008 75.5053 -7.008C76.6333 -7.008 77.6253 -6.848 78.4813 -6.528C79.3373 -6.208 80.0493 -5.784 80.6173 -5.256C81.1933 -4.736 81.6253 -4.164 81.9133 -3.54C82.2093 -2.916 82.3573 -2.296 82.3573 -1.68V-1.572H77.5693C77.5693 -1.66 77.5573 -1.744 77.5333 -1.824C77.4693 -2.032 77.3693 -2.248 77.2333 -2.472C77.0973 -2.696 76.8893 -2.884 76.6093 -3.036C76.3373 -3.196 75.9533 -3.276 75.4573 -3.276C74.7293 -3.276 74.1493 -3.024 73.7173 -2.52C73.2933 -2.024 73.0813 -1.328 73.0813 -0.432C73.0813 0.448 73.2933 1.172 73.7173 1.74C74.1493 2.3 74.7293 2.58 75.4573 2.58C76.1693 2.58 76.6813 2.424 76.9933 2.112C77.3053 1.792 77.4933 1.392 77.5573 0.912H82.3573C82.3573 1.52 82.2093 2.144 81.9133 2.784C81.6253 3.416 81.1933 4 80.6173 4.536C80.0493 5.064 79.3373 5.492 78.4813 5.82C77.6253 6.148 76.6333 6.312 75.5053 6.312ZM84.0911 6V-12.756H88.9271V-4.836C89.3831 -5.532 89.9831 -6.068 90.7271 -6.444C91.4711 -6.82 92.3231 -7.008 93.2831 -7.008C94.8591 -7.008 96.0031 -6.552 96.7151 -5.64C97.4351 -4.728 97.7951 -3.452 97.7951 -1.812V6H92.9591V-0.384C92.9591 -1.192 92.8391 -1.832 92.5991 -2.304C92.3591 -2.776 91.8431 -3.012 91.0511 -3.012C90.2751 -3.012 89.7271 -2.78 89.4071 -2.316C89.0871 -1.86 88.9271 -1.216 88.9271 -0.384V6H84.0911ZM108.139 -8.244C107.427 -8.244 106.803 -8.428 106.267 -8.796C105.739 -9.164 105.475 -9.688 105.475 -10.368C105.475 -11.056 105.739 -11.58 106.267 -11.94C106.803 -12.308 107.427 -12.492 108.139 -12.492C108.851 -12.492 109.471 -12.308 109.999 -11.94C110.535 -11.58 110.803 -11.056 110.803 -10.368C110.803 -9.68 110.535 -9.152 109.999 -8.784C109.471 -8.424 108.851 -8.244 108.139 -8.244ZM105.751 6V-6.744H110.539V6H105.751ZM112.615 6V-6.744H117.451V-4.728C117.931 -5.456 118.559 -6.016 119.335 -6.408C120.111 -6.808 120.971 -7.008 121.915 -7.008C123.003 -7.008 123.867 -6.784 124.507 -6.336C125.147 -5.896 125.607 -5.284 125.887 -4.5C126.175 -3.716 126.319 -2.82 126.319 -1.812V6H121.483V-0.384C121.483 -0.824 121.443 -1.244 121.363 -1.644C121.291 -2.044 121.119 -2.372 120.847 -2.628C120.583 -2.884 120.159 -3.012 119.575 -3.012C118.815 -3.012 118.271 -2.78 117.943 -2.316C117.615 -1.852 117.451 -1.208 117.451 -0.384V6H112.615ZM130.123 6V-3.144H127.555V-6.744H130.123V-7.116C130.123 -8.14 130.271 -8.996 130.567 -9.684C130.863 -10.38 131.251 -10.94 131.731 -11.364C132.219 -11.796 132.751 -12.124 133.327 -12.348C133.903 -12.572 134.475 -12.724 135.043 -12.804C135.619 -12.884 136.135 -12.924 136.591 -12.924C137.207 -12.924 137.655 -12.888 137.935 -12.816C138.215 -12.752 138.403 -12.7 138.499 -12.66V-9.024C138.403 -9.056 138.227 -9.092 137.971 -9.132C137.715 -9.18 137.439 -9.204 137.143 -9.204C136.319 -9.204 135.747 -9.02 135.427 -8.652C135.107 -8.284 134.947 -7.756 134.947 -7.068V-6.744H138.175V-3.144H134.947V6H130.123ZM146.016 6.3C144.576 6.3 143.308 6.02 142.212 5.46C141.124 4.9 140.272 4.12 139.656 3.12C139.048 2.12 138.744 0.96 138.744 -0.36C138.744 -1.68 139.048 -2.84 139.656 -3.84C140.272 -4.84 141.124 -5.616 142.212 -6.168C143.308 -6.728 144.576 -7.008 146.016 -7.008C147.456 -7.008 148.72 -6.728 149.808 -6.168C150.904 -5.616 151.756 -4.84 152.364 -3.84C152.98 -2.84 153.288 -1.68 153.288 -0.36C153.288 0.96 152.98 2.12 152.364 3.12C151.756 4.12 150.904 4.9 149.808 5.46C148.72 6.02 147.456 6.3 146.016 6.3ZM146.016 2.64C146.752 2.64 147.328 2.368 147.744 1.824C148.168 1.28 148.38 0.552 148.38 -0.36C148.38 -1.272 148.168 -1.996 147.744 -2.532C147.328 -3.068 146.752 -3.336 146.016 -3.336C145.28 -3.336 144.7 -3.068 144.276 -2.532C143.86 -1.996 143.652 -1.272 143.652 -0.36C143.652 0.552 143.86 1.28 144.276 1.824C144.7 2.368 145.28 2.64 146.016 2.64ZM157.616 6.384C156.96 6.384 156.4 6.156 155.936 5.7C155.48 5.236 155.252 4.676 155.252 4.02C155.252 3.372 155.48 2.82 155.936 2.364C156.4 1.9 156.96 1.668 157.616 1.668C158.264 1.668 158.816 1.9 159.272 2.364C159.736 2.82 159.968 3.372 159.968 4.02C159.968 4.676 159.736 5.236 159.272 5.7C158.816 6.156 158.264 6.384 157.616 6.384Z" fill="#384989"/>
<path d="M40.7725 47L38.7205 33.725H40.7365L42.2845 45.506L44.7505 33.725H47.2615L49.7185 45.497L51.2665 33.725H53.2915L51.2215 47H48.2155L46.0105 35.777L43.7875 47H40.7725ZM63.9842 43.994C63.9362 44.51 63.7262 45.014 63.3542 45.506C62.9822 45.998 62.4512 46.403 61.7612 46.721C61.0712 47.039 60.2312 47.198 59.2412 47.198C58.2512 47.198 57.3782 46.988 56.6222 46.568C55.8722 46.148 55.2872 45.566 54.8672 44.822C54.4472 44.078 54.2372 43.22 54.2372 42.248C54.2372 41.264 54.4502 40.4 54.8762 39.656C55.3022 38.912 55.8902 38.333 56.6402 37.919C57.3962 37.499 58.2662 37.289 59.2502 37.289C60.2462 37.289 61.1072 37.499 61.8332 37.919C62.5652 38.339 63.1292 38.918 63.5252 39.656C63.9212 40.394 64.1192 41.243 64.1192 42.203C64.1192 42.311 64.1162 42.443 64.1102 42.599C64.1042 42.749 64.0952 42.851 64.0832 42.905H56.1902C56.3102 43.739 56.6372 44.39 57.1712 44.858C57.7112 45.326 58.4222 45.56 59.3042 45.56C59.9222 45.56 60.4262 45.479 60.8162 45.317C61.2122 45.155 61.5092 44.954 61.7072 44.714C61.9052 44.474 62.0162 44.234 62.0402 43.994H63.9842ZM59.2682 38.909C58.4582 38.909 57.7832 39.128 57.2432 39.566C56.7032 40.004 56.3612 40.61 56.2172 41.384H62.0762C62.0282 40.712 61.7702 40.133 61.3022 39.647C60.8342 39.155 60.1562 38.909 59.2682 38.909ZM74.1256 47.189C73.0456 47.189 72.1726 46.937 71.5066 46.433C70.8466 45.929 70.5166 45.227 70.5166 44.327C70.5166 43.685 70.6846 43.154 71.0206 42.734C71.3626 42.314 71.8306 41.99 72.4246 41.762C73.0246 41.528 73.7056 41.375 74.4676 41.303C75.5956 41.189 76.3936 41.078 76.8616 40.97C77.3296 40.862 77.5636 40.685 77.5636 40.439V40.421C77.5636 39.935 77.3566 39.566 76.9426 39.314C76.5286 39.062 75.9376 38.936 75.1696 38.936C74.3596 38.936 73.7326 39.08 73.2886 39.368C72.8506 39.65 72.6316 40.1 72.6316 40.718H70.7146C70.7146 39.986 70.9036 39.365 71.2816 38.855C71.6656 38.345 72.1936 37.958 72.8656 37.694C73.5376 37.424 74.3086 37.289 75.1786 37.289C75.9766 37.289 76.7026 37.412 77.3566 37.658C78.0166 37.898 78.5416 38.258 78.9316 38.738C79.3216 39.218 79.5166 39.815 79.5166 40.529V45.092C79.5166 45.314 79.5226 45.53 79.5346 45.74C79.5526 45.944 79.5886 46.127 79.6426 46.289C79.6966 46.475 79.7596 46.631 79.8316 46.757C79.9096 46.877 79.9726 46.958 80.0206 47H78.0766C78.0406 46.964 77.9866 46.889 77.9146 46.775C77.8486 46.655 77.7886 46.517 77.7346 46.361C77.6866 46.229 77.6506 46.079 77.6266 45.911C77.2846 46.301 76.8106 46.613 76.2046 46.847C75.6046 47.075 74.9116 47.189 74.1256 47.189ZM74.5306 45.569C75.0886 45.569 75.5986 45.482 76.0606 45.308C76.5226 45.128 76.8886 44.858 77.1586 44.498C77.4346 44.132 77.5726 43.673 77.5726 43.121V42.293C77.2006 42.401 76.7836 42.491 76.3216 42.563C75.8596 42.629 75.3886 42.686 74.9086 42.734C74.0986 42.812 73.4896 42.953 73.0816 43.157C72.6736 43.361 72.4696 43.703 72.4696 44.183C72.4696 45.107 73.1566 45.569 74.5306 45.569ZM81.8879 47V37.442H83.8409V38.711C84.0989 38.291 84.4499 37.949 84.8939 37.685C85.3379 37.421 85.8869 37.289 86.5409 37.289C86.9249 37.289 87.2339 37.319 87.4679 37.379C87.7079 37.439 87.8549 37.487 87.9089 37.523L87.4949 39.359C87.4349 39.317 87.3119 39.263 87.1259 39.197C86.9459 39.131 86.6939 39.098 86.3699 39.098C85.7159 39.098 85.2029 39.248 84.8309 39.548C84.4649 39.848 84.2069 40.223 84.0569 40.673C83.9129 41.117 83.8409 41.564 83.8409 42.014V47H81.8879ZM98.6658 43.994C98.6178 44.51 98.4078 45.014 98.0358 45.506C97.6638 45.998 97.1328 46.403 96.4428 46.721C95.7528 47.039 94.9128 47.198 93.9228 47.198C92.9328 47.198 92.0598 46.988 91.3038 46.568C90.5538 46.148 89.9688 45.566 89.5488 44.822C89.1288 44.078 88.9188 43.22 88.9188 42.248C88.9188 41.264 89.1318 40.4 89.5578 39.656C89.9838 38.912 90.5718 38.333 91.3218 37.919C92.0778 37.499 92.9478 37.289 93.9318 37.289C94.9278 37.289 95.7888 37.499 96.5148 37.919C97.2468 38.339 97.8108 38.918 98.2068 39.656C98.6028 40.394 98.8008 41.243 98.8008 42.203C98.8008 42.311 98.7978 42.443 98.7918 42.599C98.7858 42.749 98.7768 42.851 98.7648 42.905H90.8718C90.9918 43.739 91.3188 44.39 91.8528 44.858C92.3928 45.326 93.1038 45.56 93.9858 45.56C94.6038 45.56 95.1078 45.479 95.4978 45.317C95.8938 45.155 96.1908 44.954 96.3888 44.714C96.5868 44.474 96.6978 44.234 96.7218 43.994H98.6658ZM93.9498 38.909C93.1398 38.909 92.4648 39.128 91.9248 39.566C91.3848 40.004 91.0428 40.61 90.8988 41.384H96.7578C96.7098 40.712 96.4518 40.133 95.9838 39.647C95.5158 39.155 94.8378 38.909 93.9498 38.909ZM109.257 47.189C108.495 47.189 107.799 47.081 107.169 46.865C106.545 46.643 106.044 46.316 105.666 45.884C105.294 45.452 105.108 44.921 105.108 44.291V44.048H107.052V44.228C107.052 44.666 107.253 44.999 107.655 45.227C108.057 45.449 108.609 45.56 109.311 45.56C109.923 45.56 110.448 45.467 110.886 45.281C111.324 45.089 111.543 44.789 111.543 44.381C111.543 43.949 111.327 43.64 110.895 43.454C110.469 43.262 109.821 43.094 108.951 42.95C108.321 42.842 107.724 42.683 107.16 42.473C106.596 42.263 106.134 41.969 105.774 41.591C105.42 41.213 105.243 40.715 105.243 40.097C105.243 39.497 105.423 38.987 105.783 38.567C106.143 38.147 106.626 37.829 107.232 37.613C107.844 37.397 108.522 37.289 109.266 37.289C109.98 37.289 110.64 37.403 111.246 37.631C111.858 37.859 112.35 38.195 112.722 38.639C113.094 39.077 113.28 39.608 113.28 40.232V40.394H111.345V40.268C111.345 39.956 111.246 39.701 111.048 39.503C110.85 39.299 110.592 39.149 110.274 39.053C109.962 38.957 109.629 38.909 109.275 38.909C108.951 38.909 108.624 38.945 108.294 39.017C107.97 39.083 107.7 39.2 107.484 39.368C107.268 39.53 107.16 39.752 107.16 40.034C107.16 40.46 107.391 40.769 107.853 40.961C108.321 41.147 108.939 41.309 109.707 41.447C110.331 41.555 110.928 41.711 111.498 41.915C112.068 42.113 112.536 42.401 112.902 42.779C113.268 43.151 113.451 43.658 113.451 44.3C113.451 44.96 113.253 45.503 112.857 45.929C112.467 46.355 111.954 46.673 111.318 46.883C110.682 47.087 109.995 47.189 109.257 47.189ZM120.22 47.18C119.236 47.18 118.366 46.967 117.61 46.541C116.86 46.115 116.272 45.53 115.846 44.786C115.426 44.036 115.216 43.178 115.216 42.212C115.216 41.252 115.426 40.403 115.846 39.665C116.272 38.921 116.86 38.342 117.61 37.928C118.366 37.508 119.236 37.298 120.22 37.298C121.204 37.298 122.071 37.508 122.821 37.928C123.577 38.342 124.165 38.921 124.585 39.665C125.011 40.403 125.224 41.252 125.224 42.212C125.224 43.178 125.011 44.036 124.585 44.786C124.165 45.53 123.577 46.115 122.821 46.541C122.071 46.967 121.204 47.18 120.22 47.18ZM120.22 45.506C121.12 45.506 121.852 45.206 122.416 44.606C122.98 44.006 123.262 43.208 123.262 42.212C123.262 41.222 122.98 40.436 122.416 39.854C121.852 39.266 121.12 38.972 120.22 38.972C119.32 38.972 118.588 39.266 118.024 39.854C117.46 40.436 117.178 41.222 117.178 42.212C117.178 43.208 117.46 44.006 118.024 44.606C118.588 45.206 119.32 45.506 120.22 45.506ZM132.033 47.189C131.067 47.189 130.206 46.988 129.45 46.586C128.694 46.178 128.097 45.602 127.659 44.858C127.227 44.108 127.011 43.223 127.011 42.203C127.011 41.189 127.227 40.316 127.659 39.584C128.097 38.846 128.694 38.279 129.45 37.883C130.206 37.487 131.067 37.289 132.033 37.289C132.999 37.289 133.821 37.478 134.499 37.856C135.177 38.228 135.696 38.696 136.056 39.26C136.416 39.824 136.596 40.394 136.596 40.97V41.033H134.661C134.661 41.003 134.658 40.97 134.652 40.934C134.646 40.892 134.64 40.853 134.634 40.817C134.556 40.289 134.286 39.851 133.824 39.503C133.362 39.149 132.759 38.972 132.015 38.972C131.463 38.972 130.959 39.092 130.503 39.332C130.047 39.566 129.681 39.923 129.405 40.403C129.129 40.883 128.991 41.483 128.991 42.203C128.991 42.923 129.126 43.529 129.396 44.021C129.672 44.507 130.038 44.876 130.494 45.128C130.956 45.38 131.463 45.506 132.015 45.506C132.903 45.506 133.554 45.305 133.968 44.903C134.388 44.501 134.619 44.03 134.661 43.49H136.596C136.596 44.072 136.422 44.648 136.074 45.218C135.726 45.788 135.213 46.259 134.535 46.631C133.857 47.003 133.023 47.189 132.033 47.189ZM139.752 35.462C139.416 35.462 139.125 35.372 138.879 35.192C138.639 35.006 138.519 34.751 138.519 34.427C138.519 34.109 138.639 33.86 138.879 33.68C139.125 33.494 139.416 33.401 139.752 33.401C140.082 33.401 140.367 33.494 140.607 33.68C140.853 33.86 140.976 34.109 140.976 34.427C140.976 34.757 140.853 35.012 140.607 35.192C140.367 35.372 140.082 35.462 139.752 35.462ZM138.78 47V37.442H140.706V47H138.78ZM146.618 47.189C145.538 47.189 144.665 46.937 143.999 46.433C143.339 45.929 143.009 45.227 143.009 44.327C143.009 43.685 143.177 43.154 143.513 42.734C143.855 42.314 144.323 41.99 144.917 41.762C145.517 41.528 146.198 41.375 146.96 41.303C148.088 41.189 148.886 41.078 149.354 40.97C149.822 40.862 150.056 40.685 150.056 40.439V40.421C150.056 39.935 149.849 39.566 149.435 39.314C149.021 39.062 148.43 38.936 147.662 38.936C146.852 38.936 146.225 39.08 145.781 39.368C145.343 39.65 145.124 40.1 145.124 40.718H143.207C143.207 39.986 143.396 39.365 143.774 38.855C144.158 38.345 144.686 37.958 145.358 37.694C146.03 37.424 146.801 37.289 147.671 37.289C148.469 37.289 149.195 37.412 149.849 37.658C150.509 37.898 151.034 38.258 151.424 38.738C151.814 39.218 152.009 39.815 152.009 40.529V45.092C152.009 45.314 152.015 45.53 152.027 45.74C152.045 45.944 152.081 46.127 152.135 46.289C152.189 46.475 152.252 46.631 152.324 46.757C152.402 46.877 152.465 46.958 152.513 47H150.569C150.533 46.964 150.479 46.889 150.407 46.775C150.341 46.655 150.281 46.517 150.227 46.361C150.179 46.229 150.143 46.079 150.119 45.911C149.777 46.301 149.303 46.613 148.697 46.847C148.097 47.075 147.404 47.189 146.618 47.189ZM147.023 45.569C147.581 45.569 148.091 45.482 148.553 45.308C149.015 45.128 149.381 44.858 149.651 44.498C149.927 44.132 150.065 43.673 150.065 43.121V42.293C149.693 42.401 149.276 42.491 148.814 42.563C148.352 42.629 147.881 42.686 147.401 42.734C146.591 42.812 145.982 42.953 145.574 43.157C145.166 43.361 144.962 43.703 144.962 44.183C144.962 45.107 145.649 45.569 147.023 45.569ZM156.441 32.933V47H154.515V32.933H156.441ZM163.556 47V37.442H165.509V38.864C165.881 38.378 166.346 37.994 166.904 37.712C167.462 37.43 168.065 37.289 168.713 37.289C169.841 37.289 170.723 37.613 171.359 38.261C171.995 38.903 172.313 39.779 172.313 40.889V47H170.36V41.429C170.36 40.733 170.192 40.163 169.856 39.719C169.52 39.275 168.938 39.053 168.11 39.053C167.624 39.053 167.183 39.173 166.787 39.413C166.397 39.653 166.085 39.98 165.851 40.394C165.623 40.808 165.509 41.273 165.509 41.789V47H163.556ZM184.131 43.994C184.083 44.51 183.873 45.014 183.501 45.506C183.129 45.998 182.598 46.403 181.908 46.721C181.218 47.039 180.378 47.198 179.388 47.198C178.398 47.198 177.525 46.988 176.769 46.568C176.019 46.148 175.434 45.566 175.014 44.822C174.594 44.078 174.384 43.22 174.384 42.248C174.384 41.264 174.597 40.4 175.023 39.656C175.449 38.912 176.037 38.333 176.787 37.919C177.543 37.499 178.413 37.289 179.397 37.289C180.393 37.289 181.254 37.499 181.98 37.919C182.712 38.339 183.276 38.918 183.672 39.656C184.068 40.394 184.266 41.243 184.266 42.203C184.266 42.311 184.263 42.443 184.257 42.599C184.251 42.749 184.242 42.851 184.23 42.905H176.337C176.457 43.739 176.784 44.39 177.318 44.858C177.858 45.326 178.569 45.56 179.451 45.56C180.069 45.56 180.573 45.479 180.963 45.317C181.359 45.155 181.656 44.954 181.854 44.714C182.052 44.474 182.163 44.234 182.187 43.994H184.131ZM179.415 38.909C178.605 38.909 177.93 39.128 177.39 39.566C176.85 40.004 176.508 40.61 176.364 41.384H182.223C182.175 40.712 181.917 40.133 181.449 39.647C180.981 39.155 180.303 38.909 179.415 38.909ZM190.37 47.162C189.95 47.162 189.533 47.102 189.119 46.982C188.711 46.856 188.372 46.613 188.102 46.253C187.832 45.893 187.697 45.356 187.697 44.642V39.062H185.402V37.442H186.608C186.95 37.442 187.196 37.421 187.346 37.379C187.502 37.331 187.598 37.217 187.634 37.037C187.676 36.851 187.697 36.548 187.697 36.128V34.283H189.65V37.442H192.575V39.062H189.65V43.994C189.65 44.474 189.707 44.852 189.821 45.128C189.941 45.404 190.211 45.542 190.631 45.542C190.811 45.542 190.982 45.527 191.144 45.497C191.306 45.467 191.429 45.434 191.513 45.398V46.991C191.405 47.033 191.252 47.072 191.054 47.108C190.856 47.144 190.628 47.162 190.37 47.162ZM195.62 47L193.595 37.442H195.62L197.033 45.524L199.157 37.442H201.281L203.432 45.524L204.827 37.442H206.852L204.836 47H202.145L200.219 39.503L198.329 47H195.62ZM213.05 47.18C212.066 47.18 211.196 46.967 210.44 46.541C209.69 46.115 209.102 45.53 208.676 44.786C208.256 44.036 208.046 43.178 208.046 42.212C208.046 41.252 208.256 40.403 208.676 39.665C209.102 38.921 209.69 38.342 210.44 37.928C211.196 37.508 212.066 37.298 213.05 37.298C214.034 37.298 214.901 37.508 215.651 37.928C216.407 38.342 216.995 38.921 217.415 39.665C217.841 40.403 218.054 41.252 218.054 42.212C218.054 43.178 217.841 44.036 217.415 44.786C216.995 45.53 216.407 46.115 215.651 46.541C214.901 46.967 214.034 47.18 213.05 47.18ZM213.05 45.506C213.95 45.506 214.682 45.206 215.246 44.606C215.81 44.006 216.092 43.208 216.092 42.212C216.092 41.222 215.81 40.436 215.246 39.854C214.682 39.266 213.95 38.972 213.05 38.972C212.15 38.972 211.418 39.266 210.854 39.854C210.29 40.436 210.008 41.222 210.008 42.212C210.008 43.208 210.29 44.006 210.854 44.606C211.418 45.206 212.15 45.506 213.05 45.506ZM220.228 47V37.442H222.181V38.711C222.439 38.291 222.79 37.949 223.234 37.685C223.678 37.421 224.227 37.289 224.881 37.289C225.265 37.289 225.574 37.319 225.808 37.379C226.048 37.439 226.195 37.487 226.249 37.523L225.835 39.359C225.775 39.317 225.652 39.263 225.466 39.197C225.286 39.131 225.034 39.098 224.71 39.098C224.056 39.098 223.543 39.248 223.171 39.548C222.805 39.848 222.547 40.223 222.397 40.673C222.253 41.117 222.181 41.564 222.181 42.014V47H220.228ZM227.821 47V32.933H229.675V40.727L233.464 37.442H235.921L231.952 40.952L235.921 47H233.842L230.71 42.059L229.675 42.968V47H227.821ZM238.418 35.462C238.082 35.462 237.791 35.372 237.545 35.192C237.305 35.006 237.185 34.751 237.185 34.427C237.185 34.109 237.305 33.86 237.545 33.68C237.791 33.494 238.082 33.401 238.418 33.401C238.748 33.401 239.033 33.494 239.273 33.68C239.519 33.86 239.642 34.109 239.642 34.427C239.642 34.757 239.519 35.012 239.273 35.192C239.033 35.372 238.748 35.462 238.418 35.462ZM237.446 47V37.442H239.372V47H237.446ZM241.972 47V37.442H243.925V38.864C244.297 38.378 244.762 37.994 245.32 37.712C245.878 37.43 246.481 37.289 247.129 37.289C248.257 37.289 249.139 37.613 249.775 38.261C250.411 38.903 250.729 39.779 250.729 40.889V47H248.776V41.429C248.776 40.733 248.608 40.163 248.272 39.719C247.936 39.275 247.354 39.053 246.526 39.053C246.04 39.053 245.599 39.173 245.203 39.413C244.813 39.653 244.501 39.98 244.267 40.394C244.039 40.808 243.925 41.273 243.925 41.789V47H241.972ZM259.46 46.235C260.264 46.307 260.918 46.502 261.422 46.82C261.932 47.138 262.187 47.66 262.187 48.386C262.187 49.208 261.773 49.865 260.945 50.357C260.117 50.849 258.887 51.095 257.255 51.095C255.695 51.095 254.507 50.87 253.691 50.42C252.881 49.97 252.476 49.358 252.476 48.584C252.476 48.356 252.503 48.149 252.557 47.963C252.611 47.783 252.677 47.633 252.755 47.513L254.573 47.783C254.525 47.843 254.48 47.933 254.438 48.053C254.402 48.173 254.384 48.314 254.384 48.476C254.384 48.902 254.645 49.205 255.167 49.385C255.689 49.565 256.412 49.655 257.336 49.655C258.35 49.655 259.106 49.55 259.604 49.34C260.108 49.136 260.36 48.857 260.36 48.503C260.36 48.149 260.207 47.927 259.901 47.837C259.595 47.747 259.226 47.684 258.794 47.648L255.167 47.351C254.537 47.297 254.021 47.108 253.619 46.784C253.223 46.46 253.025 46.052 253.025 45.56C253.025 45.182 253.139 44.837 253.367 44.525C253.601 44.207 253.835 43.976 254.069 43.832C253.271 43.148 252.872 42.248 252.872 41.132C252.872 40.394 253.058 39.737 253.43 39.161C253.802 38.579 254.312 38.123 254.96 37.793C255.608 37.457 256.352 37.289 257.192 37.289C257.942 37.289 258.605 37.427 259.181 37.703C259.757 37.973 260.195 38.306 260.495 38.702L260.657 37.442H262.43L261.701 41.177C261.569 41.873 261.326 42.503 260.972 43.067C260.624 43.625 260.15 44.066 259.55 44.39C258.956 44.714 258.215 44.876 257.327 44.876C256.541 44.876 255.836 44.756 255.212 44.516C255.11 44.594 255.02 44.69 254.942 44.804C254.864 44.918 254.825 45.041 254.825 45.173C254.825 45.377 254.909 45.545 255.077 45.677C255.251 45.809 255.587 45.896 256.085 45.938L259.46 46.235ZM257.318 43.283C258.098 43.283 258.713 43.094 259.163 42.716C259.619 42.338 259.847 41.798 259.847 41.096C259.847 40.418 259.619 39.884 259.163 39.494C258.713 39.098 258.101 38.9 257.327 38.9C256.583 38.9 255.974 39.101 255.5 39.503C255.026 39.905 254.789 40.445 254.789 41.123C254.789 41.807 255.014 42.338 255.464 42.716C255.92 43.094 256.538 43.283 257.318 43.283ZM43.3645 65.162C42.9445 65.162 42.5275 65.102 42.1135 64.982C41.7055 64.856 41.3665 64.613 41.0965 64.253C40.8265 63.893 40.6915 63.356 40.6915 62.642V57.062H38.3965V55.442H39.6025C39.9445 55.442 40.1905 55.421 40.3405 55.379C40.4965 55.331 40.5925 55.217 40.6285 55.037C40.6705 54.851 40.6915 54.548 40.6915 54.128V52.283H42.6445V55.442H45.5695V57.062H42.6445V61.994C42.6445 62.474 42.7015 62.852 42.8155 63.128C42.9355 63.404 43.2055 63.542 43.6255 63.542C43.8055 63.542 43.9765 63.527 44.1385 63.497C44.3005 63.467 44.4235 63.434 44.5075 63.398V64.991C44.3995 65.033 44.2465 65.072 44.0485 65.108C43.8505 65.144 43.6225 65.162 43.3645 65.162ZM47.4347 65V50.933H49.3877V56.63C49.7537 56.216 50.2067 55.889 50.7467 55.649C51.2927 55.409 51.8957 55.289 52.5557 55.289C53.7077 55.289 54.6017 55.634 55.2377 56.324C55.8797 57.008 56.2007 57.962 56.2007 59.186V65H54.2477V59.672C54.2477 58.814 54.0707 58.163 53.7167 57.719C53.3687 57.275 52.7957 57.053 51.9977 57.053C51.1937 57.053 50.5577 57.281 50.0897 57.737C49.6217 58.193 49.3877 58.775 49.3877 59.483V65H47.4347ZM61.9792 65.189C60.8992 65.189 60.0262 64.937 59.3602 64.433C58.7002 63.929 58.3702 63.227 58.3702 62.327C58.3702 61.685 58.5382 61.154 58.8742 60.734C59.2162 60.314 59.6842 59.99 60.2782 59.762C60.8782 59.528 61.5592 59.375 62.3212 59.303C63.4492 59.189 64.2472 59.078 64.7152 58.97C65.1832 58.862 65.4172 58.685 65.4172 58.439V58.421C65.4172 57.935 65.2102 57.566 64.7962 57.314C64.3822 57.062 63.7912 56.936 63.0232 56.936C62.2132 56.936 61.5862 57.08 61.1422 57.368C60.7042 57.65 60.4852 58.1 60.4852 58.718H58.5682C58.5682 57.986 58.7572 57.365 59.1352 56.855C59.5192 56.345 60.0472 55.958 60.7192 55.694C61.3912 55.424 62.1622 55.289 63.0322 55.289C63.8302 55.289 64.5562 55.412 65.2102 55.658C65.8702 55.898 66.3952 56.258 66.7852 56.738C67.1752 57.218 67.3702 57.815 67.3702 58.529V63.092C67.3702 63.314 67.3762 63.53 67.3882 63.74C67.4062 63.944 67.4422 64.127 67.4962 64.289C67.5502 64.475 67.6132 64.631 67.6852 64.757C67.7632 64.877 67.8262 64.958 67.8742 65H65.9302C65.8942 64.964 65.8402 64.889 65.7682 64.775C65.7022 64.655 65.6422 64.517 65.5882 64.361C65.5402 64.229 65.5042 64.079 65.4802 63.911C65.1382 64.301 64.6642 64.613 64.0582 64.847C63.4582 65.075 62.7652 65.189 61.9792 65.189ZM62.3842 63.569C62.9422 63.569 63.4522 63.482 63.9142 63.308C64.3762 63.128 64.7422 62.858 65.0122 62.498C65.2882 62.132 65.4262 61.673 65.4262 61.121V60.293C65.0542 60.401 64.6372 60.491 64.1752 60.563C63.7132 60.629 63.2422 60.686 62.7622 60.734C61.9522 60.812 61.3432 60.953 60.9352 61.157C60.5272 61.361 60.3232 61.703 60.3232 62.183C60.3232 63.107 61.0102 63.569 62.3842 63.569ZM73.5813 65.162C73.1613 65.162 72.7443 65.102 72.3303 64.982C71.9223 64.856 71.5833 64.613 71.3133 64.253C71.0433 63.893 70.9083 63.356 70.9083 62.642V57.062H68.6133V55.442H69.8193C70.1613 55.442 70.4073 55.421 70.5573 55.379C70.7133 55.331 70.8093 55.217 70.8453 55.037C70.8873 54.851 70.9083 54.548 70.9083 54.128V52.283H72.8613V55.442H75.7863V57.062H72.8613V61.994C72.8613 62.474 72.9183 62.852 73.0323 63.128C73.1523 63.404 73.4223 63.542 73.8423 63.542C74.0223 63.542 74.1933 63.527 74.3553 63.497C74.5173 63.467 74.6403 63.434 74.7243 63.398V64.991C74.6163 65.033 74.4633 65.072 74.2653 65.108C74.0673 65.144 73.8393 65.162 73.5813 65.162ZM86.8041 65.189C85.8381 65.189 84.9771 64.988 84.2211 64.586C83.4651 64.178 82.8681 63.602 82.4301 62.858C81.9981 62.108 81.7821 61.223 81.7821 60.203C81.7821 59.189 81.9981 58.316 82.4301 57.584C82.8681 56.846 83.4651 56.279 84.2211 55.883C84.9771 55.487 85.8381 55.289 86.8041 55.289C87.7701 55.289 88.5921 55.478 89.2701 55.856C89.9481 56.228 90.4671 56.696 90.8271 57.26C91.1871 57.824 91.3671 58.394 91.3671 58.97V59.033H89.4321C89.4321 59.003 89.4291 58.97 89.4231 58.934C89.4171 58.892 89.4111 58.853 89.4051 58.817C89.3271 58.289 89.0571 57.851 88.5951 57.503C88.1331 57.149 87.5301 56.972 86.7861 56.972C86.2341 56.972 85.7301 57.092 85.2741 57.332C84.8181 57.566 84.4521 57.923 84.1761 58.403C83.9001 58.883 83.7621 59.483 83.7621 60.203C83.7621 60.923 83.8971 61.529 84.1671 62.021C84.4431 62.507 84.8091 62.876 85.2651 63.128C85.7271 63.38 86.2341 63.506 86.7861 63.506C87.6741 63.506 88.3251 63.305 88.7391 62.903C89.1591 62.501 89.3901 62.03 89.4321 61.49H91.3671C91.3671 62.072 91.1931 62.648 90.8451 63.218C90.4971 63.788 89.9841 64.259 89.3061 64.631C88.6281 65.003 87.7941 65.189 86.8041 65.189ZM96.8366 65.189C95.7566 65.189 94.8836 64.937 94.2176 64.433C93.5576 63.929 93.2276 63.227 93.2276 62.327C93.2276 61.685 93.3956 61.154 93.7316 60.734C94.0736 60.314 94.5416 59.99 95.1356 59.762C95.7356 59.528 96.4166 59.375 97.1786 59.303C98.3066 59.189 99.1046 59.078 99.5726 58.97C100.041 58.862 100.275 58.685 100.275 58.439V58.421C100.275 57.935 100.068 57.566 99.6536 57.314C99.2396 57.062 98.6486 56.936 97.8806 56.936C97.0706 56.936 96.4436 57.08 95.9996 57.368C95.5616 57.65 95.3426 58.1 95.3426 58.718H93.4256C93.4256 57.986 93.6146 57.365 93.9926 56.855C94.3766 56.345 94.9046 55.958 95.5766 55.694C96.2486 55.424 97.0196 55.289 97.8896 55.289C98.6876 55.289 99.4136 55.412 100.068 55.658C100.728 55.898 101.253 56.258 101.643 56.738C102.033 57.218 102.228 57.815 102.228 58.529V63.092C102.228 63.314 102.234 63.53 102.246 63.74C102.264 63.944 102.3 64.127 102.354 64.289C102.408 64.475 102.471 64.631 102.543 64.757C102.621 64.877 102.684 64.958 102.732 65H100.788C100.752 64.964 100.698 64.889 100.626 64.775C100.56 64.655 100.5 64.517 100.446 64.361C100.398 64.229 100.362 64.079 100.338 63.911C99.9956 64.301 99.5216 64.613 98.9156 64.847C98.3156 65.075 97.6226 65.189 96.8366 65.189ZM97.2416 63.569C97.7996 63.569 98.3096 63.482 98.7716 63.308C99.2336 63.128 99.5996 62.858 99.8696 62.498C100.146 62.132 100.284 61.673 100.284 61.121V60.293C99.9116 60.401 99.4946 60.491 99.0326 60.563C98.5706 60.629 98.0996 60.686 97.6196 60.734C96.8096 60.812 96.2006 60.953 95.7926 61.157C95.3846 61.361 95.1806 61.703 95.1806 62.183C95.1806 63.107 95.8676 63.569 97.2416 63.569ZM108.439 65.162C108.019 65.162 107.602 65.102 107.188 64.982C106.78 64.856 106.441 64.613 106.171 64.253C105.901 63.893 105.766 63.356 105.766 62.642V57.062H103.471V55.442H104.677C105.019 55.442 105.265 55.421 105.415 55.379C105.571 55.331 105.667 55.217 105.703 55.037C105.745 54.851 105.766 54.548 105.766 54.128V52.283H107.719V55.442H110.644V57.062H107.719V61.994C107.719 62.474 107.776 62.852 107.89 63.128C108.01 63.404 108.28 63.542 108.7 63.542C108.88 63.542 109.051 63.527 109.213 63.497C109.375 63.467 109.498 63.434 109.582 63.398V64.991C109.474 65.033 109.321 65.072 109.123 65.108C108.925 65.144 108.697 65.162 108.439 65.162ZM121.588 61.994C121.54 62.51 121.33 63.014 120.958 63.506C120.586 63.998 120.055 64.403 119.365 64.721C118.675 65.039 117.835 65.198 116.845 65.198C115.855 65.198 114.982 64.988 114.226 64.568C113.476 64.148 112.891 63.566 112.471 62.822C112.051 62.078 111.841 61.22 111.841 60.248C111.841 59.264 112.054 58.4 112.48 57.656C112.906 56.912 113.494 56.333 114.244 55.919C115 55.499 115.87 55.289 116.854 55.289C117.85 55.289 118.711 55.499 119.437 55.919C120.169 56.339 120.733 56.918 121.129 57.656C121.525 58.394 121.723 59.243 121.723 60.203C121.723 60.311 121.72 60.443 121.714 60.599C121.708 60.749 121.699 60.851 121.687 60.905H113.794C113.914 61.739 114.241 62.39 114.775 62.858C115.315 63.326 116.026 63.56 116.908 63.56C117.526 63.56 118.03 63.479 118.42 63.317C118.816 63.155 119.113 62.954 119.311 62.714C119.509 62.474 119.62 62.234 119.644 61.994H121.588ZM116.872 56.909C116.062 56.909 115.387 57.128 114.847 57.566C114.307 58.004 113.965 58.61 113.821 59.384H119.68C119.632 58.712 119.374 58.133 118.906 57.647C118.438 57.155 117.76 56.909 116.872 56.909ZM123.9 65V55.442H125.853V56.711C126.111 56.291 126.462 55.949 126.906 55.685C127.35 55.421 127.899 55.289 128.553 55.289C128.937 55.289 129.246 55.319 129.48 55.379C129.72 55.439 129.867 55.487 129.921 55.523L129.507 57.359C129.447 57.317 129.324 57.263 129.138 57.197C128.958 57.131 128.706 57.098 128.382 57.098C127.728 57.098 127.215 57.248 126.843 57.548C126.477 57.848 126.219 58.223 126.069 58.673C125.925 59.117 125.853 59.564 125.853 60.014V65H123.9ZM135.08 65.189C134.318 65.189 133.622 65.081 132.992 64.865C132.368 64.643 131.867 64.316 131.489 63.884C131.117 63.452 130.931 62.921 130.931 62.291V62.048H132.875V62.228C132.875 62.666 133.076 62.999 133.478 63.227C133.88 63.449 134.432 63.56 135.134 63.56C135.746 63.56 136.271 63.467 136.709 63.281C137.147 63.089 137.366 62.789 137.366 62.381C137.366 61.949 137.15 61.64 136.718 61.454C136.292 61.262 135.644 61.094 134.774 60.95C134.144 60.842 133.547 60.683 132.983 60.473C132.419 60.263 131.957 59.969 131.597 59.591C131.243 59.213 131.066 58.715 131.066 58.097C131.066 57.497 131.246 56.987 131.606 56.567C131.966 56.147 132.449 55.829 133.055 55.613C133.667 55.397 134.345 55.289 135.089 55.289C135.803 55.289 136.463 55.403 137.069 55.631C137.681 55.859 138.173 56.195 138.545 56.639C138.917 57.077 139.103 57.608 139.103 58.232V58.394H137.168V58.268C137.168 57.956 137.069 57.701 136.871 57.503C136.673 57.299 136.415 57.149 136.097 57.053C135.785 56.957 135.452 56.909 135.098 56.909C134.774 56.909 134.447 56.945 134.117 57.017C133.793 57.083 133.523 57.2 133.307 57.368C133.091 57.53 132.983 57.752 132.983 58.034C132.983 58.46 133.214 58.769 133.676 58.961C134.144 59.147 134.762 59.309 135.53 59.447C136.154 59.555 136.751 59.711 137.321 59.915C137.891 60.113 138.359 60.401 138.725 60.779C139.091 61.151 139.274 61.658 139.274 62.3C139.274 62.96 139.076 63.503 138.68 63.929C138.29 64.355 137.777 64.673 137.141 64.883C136.505 65.087 135.818 65.189 135.08 65.189ZM150.011 65.162C149.591 65.162 149.174 65.102 148.76 64.982C148.352 64.856 148.013 64.613 147.743 64.253C147.473 63.893 147.338 63.356 147.338 62.642V57.062H145.043V55.442H146.249C146.591 55.442 146.837 55.421 146.987 55.379C147.143 55.331 147.239 55.217 147.275 55.037C147.317 54.851 147.338 54.548 147.338 54.128V52.283H149.291V55.442H152.216V57.062H149.291V61.994C149.291 62.474 149.348 62.852 149.462 63.128C149.582 63.404 149.852 63.542 150.272 63.542C150.452 63.542 150.623 63.527 150.785 63.497C150.947 63.467 151.07 63.434 151.154 63.398V64.991C151.046 65.033 150.893 65.072 150.695 65.108C150.497 65.144 150.269 65.162 150.011 65.162ZM158.417 65.18C157.433 65.18 156.563 64.967 155.807 64.541C155.057 64.115 154.469 63.53 154.043 62.786C153.623 62.036 153.413 61.178 153.413 60.212C153.413 59.252 153.623 58.403 154.043 57.665C154.469 56.921 155.057 56.342 155.807 55.928C156.563 55.508 157.433 55.298 158.417 55.298C159.401 55.298 160.268 55.508 161.018 55.928C161.774 56.342 162.362 56.921 162.782 57.665C163.208 58.403 163.421 59.252 163.421 60.212C163.421 61.178 163.208 62.036 162.782 62.786C162.362 63.53 161.774 64.115 161.018 64.541C160.268 64.967 159.401 65.18 158.417 65.18ZM158.417 63.506C159.317 63.506 160.049 63.206 160.613 62.606C161.177 62.006 161.459 61.208 161.459 60.212C161.459 59.222 161.177 58.436 160.613 57.854C160.049 57.266 159.317 56.972 158.417 56.972C157.517 56.972 156.785 57.266 156.221 57.854C155.657 58.436 155.375 59.222 155.375 60.212C155.375 61.208 155.657 62.006 156.221 62.606C156.785 63.206 157.517 63.506 158.417 63.506ZM173.874 65.189C173.112 65.189 172.416 65.081 171.786 64.865C171.162 64.643 170.661 64.316 170.283 63.884C169.911 63.452 169.725 62.921 169.725 62.291V62.048H171.669V62.228C171.669 62.666 171.87 62.999 172.272 63.227C172.674 63.449 173.226 63.56 173.928 63.56C174.54 63.56 175.065 63.467 175.503 63.281C175.941 63.089 176.16 62.789 176.16 62.381C176.16 61.949 175.944 61.64 175.512 61.454C175.086 61.262 174.438 61.094 173.568 60.95C172.938 60.842 172.341 60.683 171.777 60.473C171.213 60.263 170.751 59.969 170.391 59.591C170.037 59.213 169.86 58.715 169.86 58.097C169.86 57.497 170.04 56.987 170.4 56.567C170.76 56.147 171.243 55.829 171.849 55.613C172.461 55.397 173.139 55.289 173.883 55.289C174.597 55.289 175.257 55.403 175.863 55.631C176.475 55.859 176.967 56.195 177.339 56.639C177.711 57.077 177.897 57.608 177.897 58.232V58.394H175.962V58.268C175.962 57.956 175.863 57.701 175.665 57.503C175.467 57.299 175.209 57.149 174.891 57.053C174.579 56.957 174.246 56.909 173.892 56.909C173.568 56.909 173.241 56.945 172.911 57.017C172.587 57.083 172.317 57.2 172.101 57.368C171.885 57.53 171.777 57.752 171.777 58.034C171.777 58.46 172.008 58.769 172.47 58.961C172.938 59.147 173.556 59.309 174.324 59.447C174.948 59.555 175.545 59.711 176.115 59.915C176.685 60.113 177.153 60.401 177.519 60.779C177.885 61.151 178.068 61.658 178.068 62.3C178.068 62.96 177.87 63.503 177.474 63.929C177.084 64.355 176.571 64.673 175.935 64.883C175.299 65.087 174.612 65.189 173.874 65.189ZM184.837 65.18C183.853 65.18 182.983 64.967 182.227 64.541C181.477 64.115 180.889 63.53 180.463 62.786C180.043 62.036 179.833 61.178 179.833 60.212C179.833 59.252 180.043 58.403 180.463 57.665C180.889 56.921 181.477 56.342 182.227 55.928C182.983 55.508 183.853 55.298 184.837 55.298C185.821 55.298 186.688 55.508 187.438 55.928C188.194 56.342 188.782 56.921 189.202 57.665C189.628 58.403 189.841 59.252 189.841 60.212C189.841 61.178 189.628 62.036 189.202 62.786C188.782 63.53 188.194 64.115 187.438 64.541C186.688 64.967 185.821 65.18 184.837 65.18ZM184.837 63.506C185.737 63.506 186.469 63.206 187.033 62.606C187.597 62.006 187.879 61.208 187.879 60.212C187.879 59.222 187.597 58.436 187.033 57.854C186.469 57.266 185.737 56.972 184.837 56.972C183.937 56.972 183.205 57.266 182.641 57.854C182.077 58.436 181.795 59.222 181.795 60.212C181.795 61.208 182.077 62.006 182.641 62.606C183.205 63.206 183.937 63.506 184.837 63.506ZM193.106 65V57.062H191.045V55.442H193.106V54.398C193.106 53.57 193.271 52.892 193.601 52.364C193.931 51.83 194.369 51.437 194.915 51.185C195.467 50.927 196.073 50.798 196.733 50.798C197.057 50.798 197.309 50.819 197.489 50.861C197.669 50.903 197.792 50.936 197.858 50.96V52.589C197.786 52.565 197.663 52.538 197.489 52.508C197.321 52.478 197.135 52.463 196.931 52.463C196.415 52.463 196.022 52.562 195.752 52.76C195.482 52.958 195.296 53.222 195.194 53.552C195.098 53.882 195.05 54.242 195.05 54.632V55.442H197.768V57.062H195.05V65H193.106ZM203.501 65.162C203.081 65.162 202.664 65.102 202.25 64.982C201.842 64.856 201.503 64.613 201.233 64.253C200.963 63.893 200.828 63.356 200.828 62.642V57.062H198.533V55.442H199.739C200.081 55.442 200.327 55.421 200.477 55.379C200.633 55.331 200.729 55.217 200.765 55.037C200.807 54.851 200.828 54.548 200.828 54.128V52.283H202.781V55.442H205.706V57.062H202.781V61.994C202.781 62.474 202.838 62.852 202.952 63.128C203.072 63.404 203.342 63.542 203.762 63.542C203.942 63.542 204.113 63.527 204.275 63.497C204.437 63.467 204.56 63.434 204.644 63.398V64.991C204.536 65.033 204.383 65.072 204.185 65.108C203.987 65.144 203.759 65.162 203.501 65.162ZM208.75 65L206.725 55.442H208.75L210.163 63.524L212.287 55.442H214.411L216.562 63.524L217.957 55.442H219.982L217.966 65H215.275L213.349 57.503L211.459 65H208.75ZM224.876 65.189C223.796 65.189 222.923 64.937 222.257 64.433C221.597 63.929 221.267 63.227 221.267 62.327C221.267 61.685 221.435 61.154 221.771 60.734C222.113 60.314 222.581 59.99 223.175 59.762C223.775 59.528 224.456 59.375 225.218 59.303C226.346 59.189 227.144 59.078 227.612 58.97C228.08 58.862 228.314 58.685 228.314 58.439V58.421C228.314 57.935 228.107 57.566 227.693 57.314C227.279 57.062 226.688 56.936 225.92 56.936C225.11 56.936 224.483 57.08 224.039 57.368C223.601 57.65 223.382 58.1 223.382 58.718H221.465C221.465 57.986 221.654 57.365 222.032 56.855C222.416 56.345 222.944 55.958 223.616 55.694C224.288 55.424 225.059 55.289 225.929 55.289C226.727 55.289 227.453 55.412 228.107 55.658C228.767 55.898 229.292 56.258 229.682 56.738C230.072 57.218 230.267 57.815 230.267 58.529V63.092C230.267 63.314 230.273 63.53 230.285 63.74C230.303 63.944 230.339 64.127 230.393 64.289C230.447 64.475 230.51 64.631 230.582 64.757C230.66 64.877 230.723 64.958 230.771 65H228.827C228.791 64.964 228.737 64.889 228.665 64.775C228.599 64.655 228.539 64.517 228.485 64.361C228.437 64.229 228.401 64.079 228.377 63.911C228.035 64.301 227.561 64.613 226.955 64.847C226.355 65.075 225.662 65.189 224.876 65.189ZM225.281 63.569C225.839 63.569 226.349 63.482 226.811 63.308C227.273 63.128 227.639 62.858 227.909 62.498C228.185 62.132 228.323 61.673 228.323 61.121V60.293C227.951 60.401 227.534 60.491 227.072 60.563C226.61 60.629 226.139 60.686 225.659 60.734C224.849 60.812 224.24 60.953 223.832 61.157C223.424 61.361 223.22 61.703 223.22 62.183C223.22 63.107 223.907 63.569 225.281 63.569ZM232.638 65V55.442H234.591V56.711C234.849 56.291 235.2 55.949 235.644 55.685C236.088 55.421 236.637 55.289 237.291 55.289C237.675 55.289 237.984 55.319 238.218 55.379C238.458 55.439 238.605 55.487 238.659 55.523L238.245 57.359C238.185 57.317 238.062 57.263 237.876 57.197C237.696 57.131 237.444 57.098 237.12 57.098C236.466 57.098 235.953 57.248 235.581 57.548C235.215 57.848 234.957 58.223 234.807 58.673C234.663 59.117 234.591 59.564 234.591 60.014V65H232.638ZM249.416 61.994C249.368 62.51 249.158 63.014 248.786 63.506C248.414 63.998 247.883 64.403 247.193 64.721C246.503 65.039 245.663 65.198 244.673 65.198C243.683 65.198 242.81 64.988 242.054 64.568C241.304 64.148 240.719 63.566 240.299 62.822C239.879 62.078 239.669 61.22 239.669 60.248C239.669 59.264 239.882 58.4 240.308 57.656C240.734 56.912 241.322 56.333 242.072 55.919C242.828 55.499 243.698 55.289 244.682 55.289C245.678 55.289 246.539 55.499 247.265 55.919C247.997 56.339 248.561 56.918 248.957 57.656C249.353 58.394 249.551 59.243 249.551 60.203C249.551 60.311 249.548 60.443 249.542 60.599C249.536 60.749 249.527 60.851 249.515 60.905H241.622C241.742 61.739 242.069 62.39 242.603 62.858C243.143 63.326 243.854 63.56 244.736 63.56C245.354 63.56 245.858 63.479 246.248 63.317C246.644 63.155 246.941 62.954 247.139 62.714C247.337 62.474 247.448 62.234 247.472 61.994H249.416ZM244.7 56.909C243.89 56.909 243.215 57.128 242.675 57.566C242.135 58.004 241.793 58.61 241.649 59.384H247.508C247.46 58.712 247.202 58.133 246.734 57.647C246.266 57.155 245.588 56.909 244.7 56.909ZM43.2385 83.189C42.4525 83.189 41.7295 83 41.0695 82.622C40.4095 82.238 39.8815 81.677 39.4855 80.939C39.0895 80.195 38.8915 79.283 38.8915 78.203C38.8915 77.153 39.0925 76.262 39.4945 75.53C39.8965 74.798 40.4275 74.243 41.0875 73.865C41.7475 73.481 42.4645 73.289 43.2385 73.289C43.8325 73.289 44.3935 73.406 44.9215 73.64C45.4555 73.868 45.9175 74.192 46.3075 74.612V68.933H48.2695V83H46.3075V81.83C45.9295 82.25 45.4765 82.583 44.9485 82.829C44.4205 83.069 43.8505 83.189 43.2385 83.189ZM43.6255 81.416C44.1055 81.416 44.5495 81.302 44.9575 81.074C45.3655 80.84 45.6925 80.522 45.9385 80.12C46.1845 79.718 46.3075 79.259 46.3075 78.743V77.582C46.3075 77.09 46.1785 76.649 45.9205 76.259C45.6685 75.869 45.3385 75.563 44.9305 75.341C44.5225 75.113 44.0875 74.999 43.6255 74.999C42.8515 74.999 42.2035 75.26 41.6815 75.782C41.1595 76.298 40.8985 77.105 40.8985 78.203C40.8985 79.295 41.1595 80.105 41.6815 80.633C42.2095 81.155 42.8575 81.416 43.6255 81.416ZM60.1346 79.994C60.0866 80.51 59.8766 81.014 59.5046 81.506C59.1326 81.998 58.6016 82.403 57.9116 82.721C57.2216 83.039 56.3816 83.198 55.3916 83.198C54.4016 83.198 53.5286 82.988 52.7726 82.568C52.0226 82.148 51.4376 81.566 51.0176 80.822C50.5976 80.078 50.3876 79.22 50.3876 78.248C50.3876 77.264 50.6006 76.4 51.0266 75.656C51.4526 74.912 52.0406 74.333 52.7906 73.919C53.5466 73.499 54.4166 73.289 55.4006 73.289C56.3966 73.289 57.2576 73.499 57.9836 73.919C58.7156 74.339 59.2796 74.918 59.6756 75.656C60.0716 76.394 60.2696 77.243 60.2696 78.203C60.2696 78.311 60.2666 78.443 60.2606 78.599C60.2546 78.749 60.2456 78.851 60.2336 78.905H52.3406C52.4606 79.739 52.7876 80.39 53.3216 80.858C53.8616 81.326 54.5726 81.56 55.4546 81.56C56.0726 81.56 56.5766 81.479 56.9666 81.317C57.3626 81.155 57.6596 80.954 57.8576 80.714C58.0556 80.474 58.1666 80.234 58.1906 79.994H60.1346ZM55.4186 74.909C54.6086 74.909 53.9336 75.128 53.3936 75.566C52.8536 76.004 52.5116 76.61 52.3676 77.384H58.2266C58.1786 76.712 57.9206 76.133 57.4526 75.647C56.9846 75.155 56.3066 74.909 55.4186 74.909ZM70.1315 73.442L67.0355 83H64.4435L61.2665 73.442H63.2825L65.7305 81.659L68.1155 73.442H70.1315ZM80.7186 79.994C80.6706 80.51 80.4606 81.014 80.0886 81.506C79.7166 81.998 79.1856 82.403 78.4956 82.721C77.8056 83.039 76.9656 83.198 75.9756 83.198C74.9856 83.198 74.1126 82.988 73.3566 82.568C72.6066 82.148 72.0216 81.566 71.6016 80.822C71.1816 80.078 70.9716 79.22 70.9716 78.248C70.9716 77.264 71.1846 76.4 71.6106 75.656C72.0366 74.912 72.6246 74.333 73.3746 73.919C74.1306 73.499 75.0006 73.289 75.9846 73.289C76.9806 73.289 77.8416 73.499 78.5676 73.919C79.2996 74.339 79.8636 74.918 80.2596 75.656C80.6556 76.394 80.8536 77.243 80.8536 78.203C80.8536 78.311 80.8506 78.443 80.8446 78.599C80.8386 78.749 80.8296 78.851 80.8176 78.905H72.9246C73.0446 79.739 73.3716 80.39 73.9056 80.858C74.4456 81.326 75.1566 81.56 76.0386 81.56C76.6566 81.56 77.1606 81.479 77.5506 81.317C77.9466 81.155 78.2436 80.954 78.4416 80.714C78.6396 80.474 78.7506 80.234 78.7746 79.994H80.7186ZM76.0026 74.909C75.1926 74.909 74.5176 75.128 73.9776 75.566C73.4376 76.004 73.0956 76.61 72.9516 77.384H78.8106C78.7626 76.712 78.5046 76.133 78.0366 75.647C77.5686 75.155 76.8906 74.909 76.0026 74.909ZM85.0914 68.933V83H83.1654V68.933H85.0914ZM92.3232 83.18C91.3392 83.18 90.4692 82.967 89.7132 82.541C88.9632 82.115 88.3752 81.53 87.9492 80.786C87.5292 80.036 87.3192 79.178 87.3192 78.212C87.3192 77.252 87.5292 76.403 87.9492 75.665C88.3752 74.921 88.9632 74.342 89.7132 73.928C90.4692 73.508 91.3392 73.298 92.3232 73.298C93.3072 73.298 94.1742 73.508 94.9242 73.928C95.6802 74.342 96.2682 74.921 96.6882 75.665C97.1142 76.403 97.3272 77.252 97.3272 78.212C97.3272 79.178 97.1142 80.036 96.6882 80.786C96.2682 81.53 95.6802 82.115 94.9242 82.541C94.1742 82.967 93.3072 83.18 92.3232 83.18ZM92.3232 81.506C93.2232 81.506 93.9552 81.206 94.5192 80.606C95.0832 80.006 95.3652 79.208 95.3652 78.212C95.3652 77.222 95.0832 76.436 94.5192 75.854C93.9552 75.266 93.2232 74.972 92.3232 74.972C91.4232 74.972 90.6912 75.266 90.1272 75.854C89.5632 76.436 89.2812 77.222 89.2812 78.212C89.2812 79.208 89.5632 80.006 90.1272 80.606C90.6912 81.206 91.4232 81.506 92.3232 81.506ZM99.5011 86.933V73.442H101.454V74.621C101.844 74.201 102.306 73.874 102.84 73.64C103.38 73.406 103.944 73.289 104.532 73.289C105.306 73.289 106.023 73.481 106.683 73.865C107.343 74.243 107.874 74.798 108.276 75.53C108.684 76.262 108.888 77.153 108.888 78.203C108.888 79.283 108.69 80.195 108.294 80.939C107.898 81.677 107.37 82.238 106.71 82.622C106.05 83 105.324 83.189 104.532 83.189C103.944 83.189 103.38 83.069 102.84 82.829C102.306 82.583 101.844 82.244 101.454 81.812V86.933H99.5011ZM101.463 78.815C101.463 79.307 101.589 79.751 101.841 80.147C102.093 80.537 102.423 80.846 102.831 81.074C103.245 81.302 103.686 81.416 104.154 81.416C104.922 81.416 105.567 81.155 106.089 80.633C106.617 80.105 106.881 79.295 106.881 78.203C106.881 77.105 106.617 76.298 106.089 75.782C105.567 75.26 104.922 74.999 104.154 74.999C103.686 74.999 103.248 75.113 102.84 75.341C102.432 75.563 102.099 75.869 101.841 76.259C101.589 76.649 101.463 77.09 101.463 77.582H101.454V78.725H101.463V78.815ZM120.41 79.994C120.362 80.51 120.152 81.014 119.78 81.506C119.408 81.998 118.877 82.403 118.187 82.721C117.497 83.039 116.657 83.198 115.667 83.198C114.677 83.198 113.804 82.988 113.048 82.568C112.298 82.148 111.713 81.566 111.293 80.822C110.873 80.078 110.663 79.22 110.663 78.248C110.663 77.264 110.876 76.4 111.302 75.656C111.728 74.912 112.316 74.333 113.066 73.919C113.822 73.499 114.692 73.289 115.676 73.289C116.672 73.289 117.533 73.499 118.259 73.919C118.991 74.339 119.555 74.918 119.951 75.656C120.347 76.394 120.545 77.243 120.545 78.203C120.545 78.311 120.542 78.443 120.536 78.599C120.53 78.749 120.521 78.851 120.509 78.905H112.616C112.736 79.739 113.063 80.39 113.597 80.858C114.137 81.326 114.848 81.56 115.73 81.56C116.348 81.56 116.852 81.479 117.242 81.317C117.638 81.155 117.935 80.954 118.133 80.714C118.331 80.474 118.442 80.234 118.466 79.994H120.41ZM115.694 74.909C114.884 74.909 114.209 75.128 113.669 75.566C113.129 76.004 112.787 76.61 112.643 77.384H118.502C118.454 76.712 118.196 76.133 117.728 75.647C117.26 75.155 116.582 74.909 115.694 74.909ZM122.722 83V73.442H124.675V74.711C124.933 74.291 125.284 73.949 125.728 73.685C126.172 73.421 126.721 73.289 127.375 73.289C127.759 73.289 128.068 73.319 128.302 73.379C128.542 73.439 128.689 73.487 128.743 73.523L128.329 75.359C128.269 75.317 128.146 75.263 127.96 75.197C127.78 75.131 127.528 75.098 127.204 75.098C126.55 75.098 126.037 75.248 125.665 75.548C125.299 75.848 125.041 76.223 124.891 76.673C124.747 77.117 124.675 77.564 124.675 78.014V83H122.722ZM133.902 83.189C133.14 83.189 132.444 83.081 131.814 82.865C131.19 82.643 130.689 82.316 130.311 81.884C129.939 81.452 129.753 80.921 129.753 80.291V80.048H131.697V80.228C131.697 80.666 131.898 80.999 132.3 81.227C132.702 81.449 133.254 81.56 133.956 81.56C134.568 81.56 135.093 81.467 135.531 81.281C135.969 81.089 136.188 80.789 136.188 80.381C136.188 79.949 135.972 79.64 135.54 79.454C135.114 79.262 134.466 79.094 133.596 78.95C132.966 78.842 132.369 78.683 131.805 78.473C131.241 78.263 130.779 77.969 130.419 77.591C130.065 77.213 129.888 76.715 129.888 76.097C129.888 75.497 130.068 74.987 130.428 74.567C130.788 74.147 131.271 73.829 131.877 73.613C132.489 73.397 133.167 73.289 133.911 73.289C134.625 73.289 135.285 73.403 135.891 73.631C136.503 73.859 136.995 74.195 137.367 74.639C137.739 75.077 137.925 75.608 137.925 76.232V76.394H135.99V76.268C135.99 75.956 135.891 75.701 135.693 75.503C135.495 75.299 135.237 75.149 134.919 75.053C134.607 74.957 134.274 74.909 133.92 74.909C133.596 74.909 133.269 74.945 132.939 75.017C132.615 75.083 132.345 75.2 132.129 75.368C131.913 75.53 131.805 75.752 131.805 76.034C131.805 76.46 132.036 76.769 132.498 76.961C132.966 77.147 133.584 77.309 134.352 77.447C134.976 77.555 135.573 77.711 136.143 77.915C136.713 78.113 137.181 78.401 137.547 78.779C137.913 79.151 138.096 79.658 138.096 80.3C138.096 80.96 137.898 81.503 137.502 81.929C137.112 82.355 136.599 82.673 135.963 82.883C135.327 83.087 134.64 83.189 133.902 83.189ZM148.077 83.189C146.997 83.189 146.124 82.937 145.458 82.433C144.798 81.929 144.468 81.227 144.468 80.327C144.468 79.685 144.636 79.154 144.972 78.734C145.314 78.314 145.782 77.99 146.376 77.762C146.976 77.528 147.657 77.375 148.419 77.303C149.547 77.189 150.345 77.078 150.813 76.97C151.281 76.862 151.515 76.685 151.515 76.439V76.421C151.515 75.935 151.308 75.566 150.894 75.314C150.48 75.062 149.889 74.936 149.121 74.936C148.311 74.936 147.684 75.08 147.24 75.368C146.802 75.65 146.583 76.1 146.583 76.718H144.666C144.666 75.986 144.855 75.365 145.233 74.855C145.617 74.345 146.145 73.958 146.817 73.694C147.489 73.424 148.26 73.289 149.13 73.289C149.928 73.289 150.654 73.412 151.308 73.658C151.968 73.898 152.493 74.258 152.883 74.738C153.273 75.218 153.468 75.815 153.468 76.529V81.092C153.468 81.314 153.474 81.53 153.486 81.74C153.504 81.944 153.54 82.127 153.594 82.289C153.648 82.475 153.711 82.631 153.783 82.757C153.861 82.877 153.924 82.958 153.972 83H152.028C151.992 82.964 151.938 82.889 151.866 82.775C151.8 82.655 151.74 82.517 151.686 82.361C151.638 82.229 151.602 82.079 151.578 81.911C151.236 82.301 150.762 82.613 150.156 82.847C149.556 83.075 148.863 83.189 148.077 83.189ZM148.482 81.569C149.04 81.569 149.55 81.482 150.012 81.308C150.474 81.128 150.84 80.858 151.11 80.498C151.386 80.132 151.524 79.673 151.524 79.121V78.293C151.152 78.401 150.735 78.491 150.273 78.563C149.811 78.629 149.34 78.686 148.86 78.734C148.05 78.812 147.441 78.953 147.033 79.157C146.625 79.361 146.421 79.703 146.421 80.183C146.421 81.107 147.108 81.569 148.482 81.569ZM155.839 83V73.442H157.792V74.864C158.164 74.378 158.629 73.994 159.187 73.712C159.745 73.43 160.348 73.289 160.996 73.289C162.124 73.289 163.006 73.613 163.642 74.261C164.278 74.903 164.596 75.779 164.596 76.889V83H162.643V77.429C162.643 76.733 162.475 76.163 162.139 75.719C161.803 75.275 161.221 75.053 160.393 75.053C159.907 75.053 159.466 75.173 159.07 75.413C158.68 75.653 158.368 75.98 158.134 76.394C157.906 76.808 157.792 77.273 157.792 77.789V83H155.839ZM171.014 83.189C170.228 83.189 169.505 83 168.845 82.622C168.185 82.238 167.657 81.677 167.261 80.939C166.865 80.195 166.667 79.283 166.667 78.203C166.667 77.153 166.868 76.262 167.27 75.53C167.672 74.798 168.203 74.243 168.863 73.865C169.523 73.481 170.24 73.289 171.014 73.289C171.608 73.289 172.169 73.406 172.697 73.64C173.231 73.868 173.693 74.192 174.083 74.612V68.933H176.045V83H174.083V81.83C173.705 82.25 173.252 82.583 172.724 82.829C172.196 83.069 171.626 83.189 171.014 83.189ZM171.401 81.416C171.881 81.416 172.325 81.302 172.733 81.074C173.141 80.84 173.468 80.522 173.714 80.12C173.96 79.718 174.083 79.259 174.083 78.743V77.582C174.083 77.09 173.954 76.649 173.696 76.259C173.444 75.869 173.114 75.563 172.706 75.341C172.298 75.113 171.863 74.999 171.401 74.999C170.627 74.999 169.979 75.26 169.457 75.782C168.935 76.298 168.674 77.105 168.674 78.203C168.674 79.295 168.935 80.105 169.457 80.633C169.985 81.155 170.633 81.416 171.401 81.416ZM187.703 83.189C186.737 83.189 185.876 82.988 185.12 82.586C184.364 82.178 183.767 81.602 183.329 80.858C182.897 80.108 182.681 79.223 182.681 78.203C182.681 77.189 182.897 76.316 183.329 75.584C183.767 74.846 184.364 74.279 185.12 73.883C185.876 73.487 186.737 73.289 187.703 73.289C188.669 73.289 189.491 73.478 190.169 73.856C190.847 74.228 191.366 74.696 191.726 75.26C192.086 75.824 192.266 76.394 192.266 76.97V77.033H190.331C190.331 77.003 190.328 76.97 190.322 76.934C190.316 76.892 190.31 76.853 190.304 76.817C190.226 76.289 189.956 75.851 189.494 75.503C189.032 75.149 188.429 74.972 187.685 74.972C187.133 74.972 186.629 75.092 186.173 75.332C185.717 75.566 185.351 75.923 185.075 76.403C184.799 76.883 184.661 77.483 184.661 78.203C184.661 78.923 184.796 79.529 185.066 80.021C185.342 80.507 185.708 80.876 186.164 81.128C186.626 81.38 187.133 81.506 187.685 81.506C188.573 81.506 189.224 81.305 189.638 80.903C190.058 80.501 190.289 80.03 190.331 79.49H192.266C192.266 80.072 192.092 80.648 191.744 81.218C191.396 81.788 190.883 82.259 190.205 82.631C189.527 83.003 188.693 83.189 187.703 83.189ZM194.423 83V73.442H196.376V74.711C196.634 74.291 196.985 73.949 197.429 73.685C197.873 73.421 198.422 73.289 199.076 73.289C199.46 73.289 199.769 73.319 200.003 73.379C200.243 73.439 200.39 73.487 200.444 73.523L200.03 75.359C199.97 75.317 199.847 75.263 199.661 75.197C199.481 75.131 199.229 75.098 198.905 75.098C198.251 75.098 197.738 75.248 197.366 75.548C197 75.848 196.742 76.223 196.592 76.673C196.448 77.117 196.376 77.564 196.376 78.014V83H194.423ZM211.201 79.994C211.153 80.51 210.943 81.014 210.571 81.506C210.199 81.998 209.668 82.403 208.978 82.721C208.288 83.039 207.448 83.198 206.458 83.198C205.468 83.198 204.595 82.988 203.839 82.568C203.089 82.148 202.504 81.566 202.084 80.822C201.664 80.078 201.454 79.22 201.454 78.248C201.454 77.264 201.667 76.4 202.093 75.656C202.519 74.912 203.107 74.333 203.857 73.919C204.613 73.499 205.483 73.289 206.467 73.289C207.463 73.289 208.324 73.499 209.05 73.919C209.782 74.339 210.346 74.918 210.742 75.656C211.138 76.394 211.336 77.243 211.336 78.203C211.336 78.311 211.333 78.443 211.327 78.599C211.321 78.749 211.312 78.851 211.3 78.905H203.407C203.527 79.739 203.854 80.39 204.388 80.858C204.928 81.326 205.639 81.56 206.521 81.56C207.139 81.56 207.643 81.479 208.033 81.317C208.429 81.155 208.726 80.954 208.924 80.714C209.122 80.474 209.233 80.234 209.257 79.994H211.201ZM206.485 74.909C205.675 74.909 205 75.128 204.46 75.566C203.92 76.004 203.578 76.61 203.434 77.384H209.293C209.245 76.712 208.987 76.133 208.519 75.647C208.051 75.155 207.373 74.909 206.485 74.909ZM216.825 83.189C215.745 83.189 214.872 82.937 214.206 82.433C213.546 81.929 213.216 81.227 213.216 80.327C213.216 79.685 213.384 79.154 213.72 78.734C214.062 78.314 214.53 77.99 215.124 77.762C215.724 77.528 216.405 77.375 217.167 77.303C218.295 77.189 219.093 77.078 219.561 76.97C220.029 76.862 220.263 76.685 220.263 76.439V76.421C220.263 75.935 220.056 75.566 219.642 75.314C219.228 75.062 218.637 74.936 217.869 74.936C217.059 74.936 216.432 75.08 215.988 75.368C215.55 75.65 215.331 76.1 215.331 76.718H213.414C213.414 75.986 213.603 75.365 213.981 74.855C214.365 74.345 214.893 73.958 215.565 73.694C216.237 73.424 217.008 73.289 217.878 73.289C218.676 73.289 219.402 73.412 220.056 73.658C220.716 73.898 221.241 74.258 221.631 74.738C222.021 75.218 222.216 75.815 222.216 76.529V81.092C222.216 81.314 222.222 81.53 222.234 81.74C222.252 81.944 222.288 82.127 222.342 82.289C222.396 82.475 222.459 82.631 222.531 82.757C222.609 82.877 222.672 82.958 222.72 83H220.776C220.74 82.964 220.686 82.889 220.614 82.775C220.548 82.655 220.488 82.517 220.434 82.361C220.386 82.229 220.35 82.079 220.326 81.911C219.984 82.301 219.51 82.613 218.904 82.847C218.304 83.075 217.611 83.189 216.825 83.189ZM217.23 81.569C217.788 81.569 218.298 81.482 218.76 81.308C219.222 81.128 219.588 80.858 219.858 80.498C220.134 80.132 220.272 79.673 220.272 79.121V78.293C219.9 78.401 219.483 78.491 219.021 78.563C218.559 78.629 218.088 78.686 217.608 78.734C216.798 78.812 216.189 78.953 215.781 79.157C215.373 79.361 215.169 79.703 215.169 80.183C215.169 81.107 215.856 81.569 217.23 81.569ZM228.427 83.162C228.007 83.162 227.59 83.102 227.176 82.982C226.768 82.856 226.429 82.613 226.159 82.253C225.889 81.893 225.754 81.356 225.754 80.642V75.062H223.459V73.442H224.665C225.007 73.442 225.253 73.421 225.403 73.379C225.559 73.331 225.655 73.217 225.691 73.037C225.733 72.851 225.754 72.548 225.754 72.128V70.283H227.707V73.442H230.632V75.062H227.707V79.994C227.707 80.474 227.764 80.852 227.878 81.128C227.998 81.404 228.268 81.542 228.688 81.542C228.868 81.542 229.039 81.527 229.201 81.497C229.363 81.467 229.486 81.434 229.57 81.398V82.991C229.462 83.033 229.309 83.072 229.111 83.108C228.913 83.144 228.685 83.162 228.427 83.162ZM233.496 71.462C233.16 71.462 232.869 71.372 232.623 71.192C232.383 71.006 232.263 70.751 232.263 70.427C232.263 70.109 232.383 69.86 232.623 69.68C232.869 69.494 233.16 69.401 233.496 69.401C233.826 69.401 234.111 69.494 234.351 69.68C234.597 69.86 234.72 70.109 234.72 70.427C234.72 70.757 234.597 71.012 234.351 71.192C234.111 71.372 233.826 71.462 233.496 71.462ZM232.524 83V73.442H234.45V83H232.524ZM245.069 73.442L241.973 83H239.381L236.204 73.442H238.22L240.668 81.659L243.053 73.442H245.069ZM255.656 79.994C255.608 80.51 255.398 81.014 255.026 81.506C254.654 81.998 254.123 82.403 253.433 82.721C252.743 83.039 251.903 83.198 250.913 83.198C249.923 83.198 249.05 82.988 248.294 82.568C247.544 82.148 246.959 81.566 246.539 80.822C246.119 80.078 245.909 79.22 245.909 78.248C245.909 77.264 246.122 76.4 246.548 75.656C246.974 74.912 247.562 74.333 248.312 73.919C249.068 73.499 249.938 73.289 250.922 73.289C251.918 73.289 252.779 73.499 253.505 73.919C254.237 74.339 254.801 74.918 255.197 75.656C255.593 76.394 255.791 77.243 255.791 78.203C255.791 78.311 255.788 78.443 255.782 78.599C255.776 78.749 255.767 78.851 255.755 78.905H247.862C247.982 79.739 248.309 80.39 248.843 80.858C249.383 81.326 250.094 81.56 250.976 81.56C251.594 81.56 252.098 81.479 252.488 81.317C252.884 81.155 253.181 80.954 253.379 80.714C253.577 80.474 253.688 80.234 253.712 79.994H255.656ZM250.94 74.909C250.13 74.909 249.455 75.128 248.915 75.566C248.375 76.004 248.033 76.61 247.889 77.384H253.748C253.7 76.712 253.442 76.133 252.974 75.647C252.506 75.155 251.828 74.909 250.94 74.909ZM261.73 83.189C260.968 83.189 260.272 83.081 259.642 82.865C259.018 82.643 258.517 82.316 258.139 81.884C257.767 81.452 257.581 80.921 257.581 80.291V80.048H259.525V80.228C259.525 80.666 259.726 80.999 260.128 81.227C260.53 81.449 261.082 81.56 261.784 81.56C262.396 81.56 262.921 81.467 263.359 81.281C263.797 81.089 264.016 80.789 264.016 80.381C264.016 79.949 263.8 79.64 263.368 79.454C262.942 79.262 262.294 79.094 261.424 78.95C260.794 78.842 260.197 78.683 259.633 78.473C259.069 78.263 258.607 77.969 258.247 77.591C257.893 77.213 257.716 76.715 257.716 76.097C257.716 75.497 257.896 74.987 258.256 74.567C258.616 74.147 259.099 73.829 259.705 73.613C260.317 73.397 260.995 73.289 261.739 73.289C262.453 73.289 263.113 73.403 263.719 73.631C264.331 73.859 264.823 74.195 265.195 74.639C265.567 75.077 265.753 75.608 265.753 76.232V76.394H263.818V76.268C263.818 75.956 263.719 75.701 263.521 75.503C263.323 75.299 263.065 75.149 262.747 75.053C262.435 74.957 262.102 74.909 261.748 74.909C261.424 74.909 261.097 74.945 260.767 75.017C260.443 75.083 260.173 75.2 259.957 75.368C259.741 75.53 259.633 75.752 259.633 76.034C259.633 76.46 259.864 76.769 260.326 76.961C260.794 77.147 261.412 77.309 262.18 77.447C262.804 77.555 263.401 77.711 263.971 77.915C264.541 78.113 265.009 78.401 265.375 78.779C265.741 79.151 265.924 79.658 265.924 80.3C265.924 80.96 265.726 81.503 265.33 81.929C264.94 82.355 264.427 82.673 263.791 82.883C263.155 83.087 262.468 83.189 261.73 83.189ZM40.4575 101L38.4325 91.442H40.4575L41.8705 99.524L43.9945 91.442H46.1185L48.2695 99.524L49.6645 91.442H51.6895L49.6735 101H46.9825L45.0565 93.503L43.1665 101H40.4575ZM54.4103 89.462C54.0743 89.462 53.7833 89.372 53.5373 89.192C53.2973 89.006 53.1773 88.751 53.1773 88.427C53.1773 88.109 53.2973 87.86 53.5373 87.68C53.7833 87.494 54.0743 87.401 54.4103 87.401C54.7403 87.401 55.0253 87.494 55.2653 87.68C55.5113 87.86 55.6343 88.109 55.6343 88.427C55.6343 88.757 55.5113 89.012 55.2653 89.192C55.0253 89.372 54.7403 89.462 54.4103 89.462ZM53.4383 101V91.442H55.3643V101H53.4383ZM62.05 101.162C61.63 101.162 61.213 101.102 60.799 100.982C60.391 100.856 60.052 100.613 59.782 100.253C59.512 99.893 59.377 99.356 59.377 98.642V93.062H57.082V91.442H58.288C58.63 91.442 58.876 91.421 59.026 91.379C59.182 91.331 59.278 91.217 59.314 91.037C59.356 90.851 59.377 90.548 59.377 90.128V88.283H61.33V91.442H64.255V93.062H61.33V97.994C61.33 98.474 61.387 98.852 61.501 99.128C61.621 99.404 61.891 99.542 62.311 99.542C62.491 99.542 62.662 99.527 62.824 99.497C62.986 99.467 63.109 99.434 63.193 99.398V100.991C63.085 101.033 62.932 101.072 62.734 101.108C62.536 101.144 62.308 101.162 62.05 101.162ZM66.1203 101V86.933H68.0733V92.63C68.4393 92.216 68.8923 91.889 69.4323 91.649C69.9783 91.409 70.5813 91.289 71.2413 91.289C72.3933 91.289 73.2873 91.634 73.9233 92.324C74.5653 93.008 74.8863 93.962 74.8863 95.186V101H72.9333V95.672C72.9333 94.814 72.7563 94.163 72.4023 93.719C72.0543 93.275 71.4813 93.053 70.6833 93.053C69.8793 93.053 69.2433 93.281 68.7753 93.737C68.3073 94.193 68.0733 94.775 68.0733 95.483V101H66.1203ZM78.3517 89.462C78.0157 89.462 77.7247 89.372 77.4787 89.192C77.2387 89.006 77.1187 88.751 77.1187 88.427C77.1187 88.109 77.2387 87.86 77.4787 87.68C77.7247 87.494 78.0157 87.401 78.3517 87.401C78.6817 87.401 78.9667 87.494 79.2067 87.68C79.4527 87.86 79.5757 88.109 79.5757 88.427C79.5757 88.757 79.4527 89.012 79.2067 89.192C78.9667 89.372 78.6817 89.462 78.3517 89.462ZM77.3797 101V91.442H79.3057V101H77.3797ZM81.9054 101V91.442H83.8584V92.864C84.2304 92.378 84.6954 91.994 85.2534 91.712C85.8114 91.43 86.4144 91.289 87.0624 91.289C88.1904 91.289 89.0724 91.613 89.7084 92.261C90.3444 92.903 90.6624 93.779 90.6624 94.889V101H88.7094V95.429C88.7094 94.733 88.5414 94.163 88.2054 93.719C87.8694 93.275 87.2874 93.053 86.4594 93.053C85.9734 93.053 85.5324 93.173 85.1364 93.413C84.7464 93.653 84.4344 93.98 84.2004 94.394C83.9724 94.808 83.8584 95.273 83.8584 95.789V101H81.9054ZM101.706 101.162C101.286 101.162 100.869 101.102 100.455 100.982C100.047 100.856 99.7083 100.613 99.4383 100.253C99.1683 99.893 99.0333 99.356 99.0333 98.642V93.062H96.7383V91.442H97.9443C98.2863 91.442 98.5323 91.421 98.6823 91.379C98.8383 91.331 98.9343 91.217 98.9703 91.037C99.0123 90.851 99.0333 90.548 99.0333 90.128V88.283H100.986V91.442H103.911V93.062H100.986V97.994C100.986 98.474 101.043 98.852 101.157 99.128C101.277 99.404 101.547 99.542 101.967 99.542C102.147 99.542 102.318 99.527 102.48 99.497C102.642 99.467 102.765 99.434 102.849 99.398V100.991C102.741 101.033 102.588 101.072 102.39 101.108C102.192 101.144 101.964 101.162 101.706 101.162ZM105.777 101V86.933H107.73V92.63C108.096 92.216 108.549 91.889 109.089 91.649C109.635 91.409 110.238 91.289 110.898 91.289C112.05 91.289 112.944 91.634 113.58 92.324C114.222 93.008 114.543 93.962 114.543 95.186V101H112.59V95.672C112.59 94.814 112.413 94.163 112.059 93.719C111.711 93.275 111.138 93.053 110.34 93.053C109.536 93.053 108.9 93.281 108.432 93.737C107.964 94.193 107.73 94.775 107.73 95.483V101H105.777ZM126.369 97.994C126.321 98.51 126.111 99.014 125.739 99.506C125.367 99.998 124.836 100.403 124.146 100.721C123.456 101.039 122.616 101.198 121.626 101.198C120.636 101.198 119.763 100.988 119.007 100.568C118.257 100.148 117.672 99.566 117.252 98.822C116.832 98.078 116.622 97.22 116.622 96.248C116.622 95.264 116.835 94.4 117.261 93.656C117.687 92.912 118.275 92.333 119.025 91.919C119.781 91.499 120.651 91.289 121.635 91.289C122.631 91.289 123.492 91.499 124.218 91.919C124.95 92.339 125.514 92.918 125.91 93.656C126.306 94.394 126.504 95.243 126.504 96.203C126.504 96.311 126.501 96.443 126.495 96.599C126.489 96.749 126.48 96.851 126.468 96.905H118.575C118.695 97.739 119.022 98.39 119.556 98.858C120.096 99.326 120.807 99.56 121.689 99.56C122.307 99.56 122.811 99.479 123.201 99.317C123.597 99.155 123.894 98.954 124.092 98.714C124.29 98.474 124.401 98.234 124.425 97.994H126.369ZM121.653 92.909C120.843 92.909 120.168 93.128 119.628 93.566C119.088 94.004 118.746 94.61 118.602 95.384H124.461C124.413 94.712 124.155 94.133 123.687 93.647C123.219 93.155 122.541 92.909 121.653 92.909ZM137.267 101.162C136.847 101.162 136.43 101.102 136.016 100.982C135.608 100.856 135.269 100.613 134.999 100.253C134.729 99.893 134.594 99.356 134.594 98.642V93.062H132.299V91.442H133.505C133.847 91.442 134.093 91.421 134.243 91.379C134.399 91.331 134.495 91.217 134.531 91.037C134.573 90.851 134.594 90.548 134.594 90.128V88.283H136.547V91.442H139.472V93.062H136.547V97.994C136.547 98.474 136.604 98.852 136.718 99.128C136.838 99.404 137.108 99.542 137.528 99.542C137.708 99.542 137.879 99.527 138.041 99.497C138.203 99.467 138.326 99.434 138.41 99.398V100.991C138.302 101.033 138.149 101.072 137.951 101.108C137.753 101.144 137.525 101.162 137.267 101.162ZM150.416 97.994C150.368 98.51 150.158 99.014 149.786 99.506C149.414 99.998 148.883 100.403 148.193 100.721C147.503 101.039 146.663 101.198 145.673 101.198C144.683 101.198 143.81 100.988 143.054 100.568C142.304 100.148 141.719 99.566 141.299 98.822C140.879 98.078 140.669 97.22 140.669 96.248C140.669 95.264 140.882 94.4 141.308 93.656C141.734 92.912 142.322 92.333 143.072 91.919C143.828 91.499 144.698 91.289 145.682 91.289C146.678 91.289 147.539 91.499 148.265 91.919C148.997 92.339 149.561 92.918 149.957 93.656C150.353 94.394 150.551 95.243 150.551 96.203C150.551 96.311 150.548 96.443 150.542 96.599C150.536 96.749 150.527 96.851 150.515 96.905H142.622C142.742 97.739 143.069 98.39 143.603 98.858C144.143 99.326 144.854 99.56 145.736 99.56C146.354 99.56 146.858 99.479 147.248 99.317C147.644 99.155 147.941 98.954 148.139 98.714C148.337 98.474 148.448 98.234 148.472 97.994H150.416ZM145.7 92.909C144.89 92.909 144.215 93.128 143.675 93.566C143.135 94.004 142.793 94.61 142.649 95.384H148.508C148.46 94.712 148.202 94.133 147.734 93.647C147.266 93.155 146.588 92.909 145.7 92.909ZM157.363 101.189C156.397 101.189 155.536 100.988 154.78 100.586C154.024 100.178 153.427 99.602 152.989 98.858C152.557 98.108 152.341 97.223 152.341 96.203C152.341 95.189 152.557 94.316 152.989 93.584C153.427 92.846 154.024 92.279 154.78 91.883C155.536 91.487 156.397 91.289 157.363 91.289C158.329 91.289 159.151 91.478 159.829 91.856C160.507 92.228 161.026 92.696 161.386 93.26C161.746 93.824 161.926 94.394 161.926 94.97V95.033H159.991C159.991 95.003 159.988 94.97 159.982 94.934C159.976 94.892 159.97 94.853 159.964 94.817C159.886 94.289 159.616 93.851 159.154 93.503C158.692 93.149 158.089 92.972 157.345 92.972C156.793 92.972 156.289 93.092 155.833 93.332C155.377 93.566 155.011 93.923 154.735 94.403C154.459 94.883 154.321 95.483 154.321 96.203C154.321 96.923 154.456 97.529 154.726 98.021C155.002 98.507 155.368 98.876 155.824 99.128C156.286 99.38 156.793 99.506 157.345 99.506C158.233 99.506 158.884 99.305 159.298 98.903C159.718 98.501 159.949 98.03 159.991 97.49H161.926C161.926 98.072 161.752 98.648 161.404 99.218C161.056 99.788 160.543 100.259 159.865 100.631C159.187 101.003 158.353 101.189 157.363 101.189ZM164.083 101V86.933H166.036V92.63C166.402 92.216 166.855 91.889 167.395 91.649C167.941 91.409 168.544 91.289 169.204 91.289C170.356 91.289 171.25 91.634 171.886 92.324C172.528 93.008 172.849 93.962 172.849 95.186V101H170.896V95.672C170.896 94.814 170.719 94.163 170.365 93.719C170.017 93.275 169.444 93.053 168.646 93.053C167.842 93.053 167.206 93.281 166.738 93.737C166.27 94.193 166.036 94.775 166.036 95.483V101H164.083ZM184.468 101.189C183.502 101.189 182.641 100.988 181.885 100.586C181.129 100.178 180.532 99.602 180.094 98.858C179.662 98.108 179.446 97.223 179.446 96.203C179.446 95.189 179.662 94.316 180.094 93.584C180.532 92.846 181.129 92.279 181.885 91.883C182.641 91.487 183.502 91.289 184.468 91.289C185.434 91.289 186.256 91.478 186.934 91.856C187.612 92.228 188.131 92.696 188.491 93.26C188.851 93.824 189.031 94.394 189.031 94.97V95.033H187.096C187.096 95.003 187.093 94.97 187.087 94.934C187.081 94.892 187.075 94.853 187.069 94.817C186.991 94.289 186.721 93.851 186.259 93.503C185.797 93.149 185.194 92.972 184.45 92.972C183.898 92.972 183.394 93.092 182.938 93.332C182.482 93.566 182.116 93.923 181.84 94.403C181.564 94.883 181.426 95.483 181.426 96.203C181.426 96.923 181.561 97.529 181.831 98.021C182.107 98.507 182.473 98.876 182.929 99.128C183.391 99.38 183.898 99.506 184.45 99.506C185.338 99.506 185.989 99.305 186.403 98.903C186.823 98.501 187.054 98.03 187.096 97.49H189.031C189.031 98.072 188.857 98.648 188.509 99.218C188.161 99.788 187.648 100.259 186.97 100.631C186.292 101.003 185.458 101.189 184.468 101.189ZM195.806 101.18C194.822 101.18 193.952 100.967 193.196 100.541C192.446 100.115 191.858 99.53 191.432 98.786C191.012 98.036 190.802 97.178 190.802 96.212C190.802 95.252 191.012 94.403 191.432 93.665C191.858 92.921 192.446 92.342 193.196 91.928C193.952 91.508 194.822 91.298 195.806 91.298C196.79 91.298 197.657 91.508 198.407 91.928C199.163 92.342 199.751 92.921 200.171 93.665C200.597 94.403 200.81 95.252 200.81 96.212C200.81 97.178 200.597 98.036 200.171 98.786C199.751 99.53 199.163 100.115 198.407 100.541C197.657 100.967 196.79 101.18 195.806 101.18ZM195.806 99.506C196.706 99.506 197.438 99.206 198.002 98.606C198.566 98.006 198.848 97.208 198.848 96.212C198.848 95.222 198.566 94.436 198.002 93.854C197.438 93.266 196.706 92.972 195.806 92.972C194.906 92.972 194.174 93.266 193.61 93.854C193.046 94.436 192.764 95.222 192.764 96.212C192.764 97.208 193.046 98.006 193.61 98.606C194.174 99.206 194.906 99.506 195.806 99.506ZM202.984 101V91.442H204.937V92.684C205.255 92.258 205.651 91.919 206.125 91.667C206.599 91.415 207.136 91.289 207.736 91.289C208.498 91.289 209.107 91.451 209.563 91.775C210.019 92.093 210.349 92.522 210.553 93.062C210.853 92.534 211.261 92.108 211.777 91.784C212.293 91.454 212.899 91.289 213.595 91.289C214.675 91.289 215.467 91.607 215.971 92.243C216.475 92.873 216.727 93.689 216.727 94.691V101H214.783V95.294C214.783 94.97 214.75 94.634 214.684 94.286C214.624 93.938 214.468 93.647 214.216 93.413C213.97 93.173 213.568 93.053 213.01 93.053C212.458 93.053 212.023 93.191 211.705 93.467C211.387 93.737 211.162 94.076 211.03 94.484C210.898 94.892 210.832 95.3 210.832 95.708V101H208.897V95.321C208.897 95.003 208.864 94.67 208.798 94.322C208.732 93.968 208.576 93.668 208.33 93.422C208.09 93.176 207.697 93.053 207.151 93.053C206.605 93.053 206.17 93.191 205.846 93.467C205.528 93.743 205.297 94.094 205.153 94.52C205.009 94.94 204.937 95.372 204.937 95.816V101H202.984ZM219.208 101V91.442H221.161V92.684C221.479 92.258 221.875 91.919 222.349 91.667C222.823 91.415 223.36 91.289 223.96 91.289C224.722 91.289 225.331 91.451 225.787 91.775C226.243 92.093 226.573 92.522 226.777 93.062C227.077 92.534 227.485 92.108 228.001 91.784C228.517 91.454 229.123 91.289 229.819 91.289C230.899 91.289 231.691 91.607 232.195 92.243C232.699 92.873 232.951 93.689 232.951 94.691V101H231.007V95.294C231.007 94.97 230.974 94.634 230.908 94.286C230.848 93.938 230.692 93.647 230.44 93.413C230.194 93.173 229.792 93.053 229.234 93.053C228.682 93.053 228.247 93.191 227.929 93.467C227.611 93.737 227.386 94.076 227.254 94.484C227.122 94.892 227.056 95.3 227.056 95.708V101H225.121V95.321C225.121 95.003 225.088 94.67 225.022 94.322C224.956 93.968 224.8 93.668 224.554 93.422C224.314 93.176 223.921 93.053 223.375 93.053C222.829 93.053 222.394 93.191 222.07 93.467C221.752 93.743 221.521 94.094 221.377 94.52C221.233 94.94 221.161 95.372 221.161 95.816V101H219.208ZM238.916 101.171C238.238 101.171 237.671 101.057 237.215 100.829C236.765 100.595 236.411 100.292 236.153 99.92C235.895 99.542 235.709 99.131 235.595 98.687C235.487 98.237 235.433 97.799 235.433 97.373V91.442H237.395V96.878C237.395 97.34 237.455 97.766 237.575 98.156C237.695 98.54 237.905 98.852 238.205 99.092C238.511 99.326 238.937 99.443 239.483 99.443C239.993 99.443 240.437 99.29 240.815 98.984C241.193 98.678 241.487 98.294 241.697 97.832C241.907 97.37 242.012 96.905 242.012 96.437V91.442H243.965V101H242.012V99.587C241.67 100.061 241.235 100.445 240.707 100.739C240.185 101.027 239.588 101.171 238.916 101.171ZM246.437 101V91.442H248.39V92.864C248.762 92.378 249.227 91.994 249.785 91.712C250.343 91.43 250.946 91.289 251.594 91.289C252.722 91.289 253.604 91.613 254.24 92.261C254.876 92.903 255.194 93.779 255.194 94.889V101H253.241V95.429C253.241 94.733 253.073 94.163 252.737 93.719C252.401 93.275 251.819 93.053 250.991 93.053C250.505 93.053 250.064 93.173 249.668 93.413C249.278 93.653 248.966 93.98 248.732 94.394C248.504 94.808 248.39 95.273 248.39 95.789V101H246.437ZM258.651 89.462C258.315 89.462 258.024 89.372 257.778 89.192C257.538 89.006 257.418 88.751 257.418 88.427C257.418 88.109 257.538 87.86 257.778 87.68C258.024 87.494 258.315 87.401 258.651 87.401C258.981 87.401 259.266 87.494 259.506 87.68C259.752 87.86 259.875 88.109 259.875 88.427C259.875 88.757 259.752 89.012 259.506 89.192C259.266 89.372 258.981 89.462 258.651 89.462ZM257.679 101V91.442H259.605V101H257.679ZM266.29 101.162C265.87 101.162 265.453 101.102 265.039 100.982C264.631 100.856 264.292 100.613 264.022 100.253C263.752 99.893 263.617 99.356 263.617 98.642V93.062H261.322V91.442H262.528C262.87 91.442 263.116 91.421 263.266 91.379C263.422 91.331 263.518 91.217 263.554 91.037C263.596 90.851 263.617 90.548 263.617 90.128V88.283H265.57V91.442H268.495V93.062H265.57V97.994C265.57 98.474 265.627 98.852 265.741 99.128C265.861 99.404 266.131 99.542 266.551 99.542C266.731 99.542 266.902 99.527 267.064 99.497C267.226 99.467 267.349 99.434 267.433 99.398V100.991C267.325 101.033 267.172 101.072 266.974 101.108C266.776 101.144 266.548 101.162 266.29 101.162ZM270.82 105.068C270.562 105.068 270.328 105.053 270.118 105.023C269.908 104.999 269.776 104.975 269.722 104.951V103.358C269.8 103.394 269.929 103.424 270.109 103.448C270.295 103.472 270.487 103.484 270.685 103.484C271.213 103.484 271.633 103.325 271.945 103.007C272.263 102.689 272.506 102.287 272.674 101.801L272.917 101.081L269.623 91.442H271.657L273.988 99.128L276.256 91.442H278.263L274.834 101.702C274.624 102.344 274.366 102.917 274.06 103.421C273.754 103.931 273.346 104.333 272.836 104.627C272.326 104.921 271.654 105.068 270.82 105.068ZM280.222 101.243C279.886 101.243 279.601 101.129 279.367 100.901C279.139 100.667 279.025 100.385 279.025 100.055C279.025 99.725 279.139 99.446 279.367 99.218C279.601 98.984 279.886 98.867 280.222 98.867C280.546 98.867 280.825 98.984 281.059 99.218C281.293 99.446 281.41 99.725 281.41 100.055C281.41 100.385 281.293 100.667 281.059 100.901C280.825 101.129 280.546 101.243 280.222 101.243Z" fill="#384989"/>
<g filter="url(#filter0_d)">
<path d="M26.0005 144C26.0005 138.477 30.4776 134 36.0005 134H259C264.523 134 269 138.477 269 144V162C269 167.523 264.523 172 259 172H36.0005C30.4776 172 26.0005 167.523 26.0005 162V144Z" fill="#EE9062"/>
</g>
<path d="M130.888 157H128.968V145.937H132.065L135.815 155.455V145.937H137.743V157H134.6L130.888 147.572V157ZM146.171 155.425V157H139.676V145.937H146.171V147.512H141.663V150.662H145.338V152.237H141.663V155.425H146.171ZM154.136 157L151.924 152.935L149.711 157H147.499L150.694 151.525L147.589 145.937H149.801L151.924 150.115L154.031 145.937H156.251L153.169 151.517L156.356 157H154.136ZM164.781 147.512H162.006V157H160.026V147.512H157.259V145.937H164.781V147.512Z" fill="#384989"/>
</g>
<defs>
<filter id="filter0_d" x="22.0005" y="134" width="251" height="46" filterUnits="userSpaceOnUse" color-interpolation-filters="sRGB">
<feFlood flood-opacity="0" result="BackgroundImageFix"/>
<feColorMatrix in="SourceAlpha" type="matrix" values="0 0 0 0 0 0 0 0 0 0 0 0 0 0 0 0 0 0 127 0" result="hardAlpha"/>
<feOffset dy="4"/>
<feGaussianBlur stdDeviation="2"/>
<feColorMatrix type="matrix" values="0 0 0 0 0.219608 0 0 0 0 0.286275 0 0 0 0 0.537255 0 0 0 1 0"/>
<feBlend mode="normal" in2="BackgroundImageFix" result="effect1_dropShadow"/>
<feBlend mode="normal" in="SourceGraphic" in2="effect1_dropShadow" result="shape"/>
</filter>
<clipPath id="clip0">
<rect width="360" height="640" fill="white" transform="translate(-27.9995 -419)"/>
</clipPath>
</defs>
</svg>
