<svg width="360" height="487" viewBox="0 0 360 487" fill="none" xmlns="http://www.w3.org/2000/svg">
<path d="M265.9 93.3485L259.768 255.763L398.252 187.683L265.9 93.3485Z" fill="#914C75" fill-opacity="0.85"/>
<g style="mix-blend-mode:hard-light">
<path d="M-21.8008 289.149L149.434 179.109L-46.633 87.1257L-21.8008 289.149Z" fill="#384989"/>
</g>
<g style="mix-blend-mode:color">
<path d="M283.211 282.441L274.089 124.043L144.511 205.399L283.211 282.441Z" fill="#EE9062"/>
</g>
<g style="mix-blend-mode:color">
<path d="M97.8697 116.458L45.9142 314.177L246 257.346L97.8697 116.458Z" fill="#F8C164"/>
</g>
<path d="M236.566 153.545L131.321 110.493L150.189 227.498L236.566 153.545Z" fill="#639CC8" fill-opacity="0.85"/>
<path d="M70.0995 -57.6945L76.2322 104.72L-62.2518 36.6404L70.0995 -57.6945Z" fill="#914C75" fill-opacity="0.85"/>
<g style="mix-blend-mode:hard-light">
<path d="M357.801 138.106L186.566 28.0658L382.633 -63.9173L357.801 138.106Z" fill="#384989"/>
</g>
<g style="mix-blend-mode:color">
<path d="M52.7886 131.398L61.9113 -26.9999L191.489 54.3557L52.7886 131.398Z" fill="#EE9062"/>
</g>
<g style="mix-blend-mode:color">
<path d="M238.13 -34.5847L290.086 163.134L90.0001 106.303L238.13 -34.5847Z" fill="#F8C164"/>
</g>
<path d="M99.4338 2.50244L204.679 -40.55L185.811 76.4549L99.4338 2.50244Z" fill="#639CC8" fill-opacity="0.85"/>
<path d="M95.0995 237.348L101.232 399.763L-37.2518 331.683L95.0995 237.348Z" fill="#914C75" fill-opacity="0.85"/>
<g style="mix-blend-mode:hard-light">
<path d="M382.801 433.149L211.566 323.109L407.633 231.126L382.801 433.149Z" fill="#384989"/>
</g>
<g style="mix-blend-mode:color">
<path d="M77.7886 426.441L86.9113 268.043L216.489 349.399L77.7886 426.441Z" fill="#EE9062"/>
</g>
<g style="mix-blend-mode:color">
<path d="M263.13 260.458L315.086 458.177L115 401.346L263.13 260.458Z" fill="#F8C164"/>
</g>
<path d="M124.434 297.545L229.679 254.493L210.811 371.498L124.434 297.545Z" fill="#639CC8" fill-opacity="0.85"/>
</svg>
