<svg width="767" height="824" viewBox="0 0 767 824" fill="none" xmlns="http://www.w3.org/2000/svg">
<path d="M459.957 292.642L451.774 512.287L636.566 420.218L459.957 292.642Z" fill="#914C75" fill-opacity="0.85"/>
<g style="mix-blend-mode:hard-light">
<path d="M76.0519 557.438L304.546 408.622L42.9161 284.227L76.0519 557.438Z" fill="#384989"/>
</g>
<g style="mix-blend-mode:color">
<path d="M483.057 548.366L470.884 334.153L297.977 444.176L483.057 548.366Z" fill="#EE9062"/>
</g>
<g style="mix-blend-mode:color">
<path d="M235.739 323.895L166.41 591.285L433.402 514.428L235.739 323.895Z" fill="#F8C164"/>
</g>
<path d="M420.814 374.051L280.377 315.828L305.553 474.062L420.814 374.051Z" fill="#639CC8" fill-opacity="0.85"/>
<path d="M198.683 88.3755L206.866 308.02L22.0744 215.952L198.683 88.3755Z" fill="#914C75" fill-opacity="0.85"/>
<g style="mix-blend-mode:hard-light">
<path d="M582.588 353.172L354.095 204.355L615.724 79.9599L582.588 353.172Z" fill="#384989"/>
</g>
<g style="mix-blend-mode:color">
<path d="M175.583 344.1L187.756 129.886L360.663 239.909L175.583 344.1Z" fill="#EE9062"/>
</g>
<g style="mix-blend-mode:color">
<path d="M422.901 119.628L492.23 387.018L225.238 310.162L422.901 119.628Z" fill="#F8C164"/>
</g>
<path d="M237.826 169.784L378.264 111.561L353.087 269.796L237.826 169.784Z" fill="#639CC8" fill-opacity="0.85"/>
<path d="M232.043 487.384L240.226 707.028L55.4343 614.96L232.043 487.384Z" fill="#914C75" fill-opacity="0.85"/>
<g style="mix-blend-mode:hard-light">
<path d="M615.948 752.18L387.454 603.364L649.084 478.968L615.948 752.18Z" fill="#384989"/>
</g>
<g style="mix-blend-mode:color">
<path d="M208.943 743.108L221.116 528.894L394.023 638.917L208.943 743.108Z" fill="#EE9062"/>
</g>
<g style="mix-blend-mode:color">
<path d="M456.261 518.637L525.59 786.026L258.598 709.17L456.261 518.637Z" fill="#F8C164"/>
</g>
<path d="M271.186 568.792L411.624 510.57L386.447 668.804L271.186 568.792Z" fill="#639CC8" fill-opacity="0.85"/>
</svg>
