<svg width="699" height="868" viewBox="0 0 699 868" fill="none" xmlns="http://www.w3.org/2000/svg">
<path d="M70.0611 586.513L75.0942 605.116L52.4522 593.836L70.0611 586.513Z" fill="#914C75" fill-opacity="0.85"/>
<path d="M516.458 645.513L521.491 664.116L498.849 652.836L516.458 645.513Z" fill="#639CC8" fill-opacity="0.85"/>
<path d="M300.458 730.513L305.491 749.116L282.849 737.836L300.458 730.513Z" fill="#EE9062"/>
<path d="M139.458 843.513L144.491 862.116L121.849 850.836L139.458 843.513Z" fill="#F8C164"/>
<path d="M617.467 210.394L638.889 199.111L633.957 227.899L617.467 210.394Z" fill="#F8C164"/>
<path d="M2.29544 57.4236L23.5489 46.0984L18.959 74.9455L2.29544 57.4236Z" fill="#639CC8" fill-opacity="0.85"/>
<path d="M677.073 6.51303L672.04 25.1164L694.682 13.8355L677.073 6.51303Z" fill="#914C75" fill-opacity="0.85"/>
<path d="M264.323 161.171L262.118 137L286.762 152.681L264.323 161.171Z" fill="#EE9062"/>
</svg>
