<svg width="360" height="610" viewBox="0 0 360 610" fill="none" xmlns="http://www.w3.org/2000/svg">
<path d="M94.0995 392.907L100.232 230.493L-38.2518 298.572L94.0995 392.907Z" fill="#914C75" fill-opacity="0.85"/>
<g style="mix-blend-mode:hard-light">
<path d="M381.801 197.106L210.566 307.147L406.633 399.13L381.801 197.106Z" fill="#384989"/>
</g>
<g style="mix-blend-mode:color">
<path d="M76.7886 203.815L85.9113 362.213L215.489 280.857L76.7886 203.815Z" fill="#EE9062"/>
</g>
<g style="mix-blend-mode:color">
<path d="M262.13 369.798L314.086 172.079L114 228.91L262.13 369.798Z" fill="#F8C164"/>
</g>
<path d="M123.434 332.71L228.679 375.763L209.811 258.758L123.434 332.71Z" fill="#639CC8" fill-opacity="0.85"/>
<path d="M289.9 543.95L283.768 381.536L422.252 449.615L289.9 543.95Z" fill="#914C75" fill-opacity="0.85"/>
<g style="mix-blend-mode:hard-light">
<path d="M2.19919 348.149L173.434 458.19L-22.633 550.173L2.19919 348.149Z" fill="#384989"/>
</g>
<g style="mix-blend-mode:color">
<path d="M307.211 354.857L298.089 513.256L168.511 431.9L307.211 354.857Z" fill="#EE9062"/>
</g>
<g style="mix-blend-mode:color">
<path d="M121.87 520.841L69.9143 323.122L270 379.953L121.87 520.841Z" fill="#F8C164"/>
</g>
<path d="M260.566 483.753L155.321 526.806L174.189 409.801L260.566 483.753Z" fill="#639CC8" fill-opacity="0.85"/>
<path d="M264.9 248.907L258.768 86.4933L397.252 154.572L264.9 248.907Z" fill="#914C75" fill-opacity="0.85"/>
<g style="mix-blend-mode:hard-light">
<path d="M-22.8008 53.1064L148.434 163.147L-47.633 255.13L-22.8008 53.1064Z" fill="#384989"/>
</g>
<g style="mix-blend-mode:color">
<path d="M282.211 59.8145L273.089 218.213L143.511 136.857L282.211 59.8145Z" fill="#EE9062"/>
</g>
<g style="mix-blend-mode:color">
<path d="M96.8698 225.798L44.9143 28.0791L245 84.9096L96.8698 225.798Z" fill="#F8C164"/>
</g>
<path d="M235.566 188.71L130.321 231.763L149.189 114.758L235.566 188.71Z" fill="#639CC8" fill-opacity="0.85"/>
</svg>
