<svg width="938" height="1024" viewBox="0 0 938 1024" fill="none" xmlns="http://www.w3.org/2000/svg">
<path d="M752.912 503.037L583.175 642.679L774.681 719.814L752.912 503.037Z" fill="#914C75" fill-opacity="0.85"/>
<g style="mix-blend-mode:hard-light">
<path d="M300.057 391.581L563.016 463.748L482.445 185.481L300.057 391.581Z" fill="#384989"/>
</g>
<g style="mix-blend-mode:color">
<path d="M576.946 690.024L729.111 538.758L532.061 482.429L576.946 690.024Z" fill="#EE9062"/>
</g>
<g style="mix-blend-mode:color">
<path d="M580.735 356.049L334.703 481.636L569.381 630.357L580.735 356.049Z" fill="#F8C164"/>
</g>
<path d="M666.037 527.781L616.392 384.087L514.732 507.93L666.037 527.781Z" fill="#639CC8" fill-opacity="0.85"/>
<path d="M732.325 172.03L573.449 323.915L519.688 124.581L732.325 172.03Z" fill="#914C75" fill-opacity="0.85"/>
<g style="mix-blend-mode:hard-light">
<path d="M789.015 634.941L748.702 365.255L1015.38 478.416L789.015 634.941Z" fill="#384989"/>
</g>
<g style="mix-blend-mode:color">
<path d="M525.699 324.458L694.022 191.404L726.465 393.764L525.699 324.458Z" fill="#EE9062"/>
</g>
<g style="mix-blend-mode:color">
<path d="M857.745 360.499L703.731 589.81L584.039 339.08L857.745 360.499Z" fill="#F8C164"/>
</g>
<path d="M697.404 255.337L834.157 321.754L699.08 407.93L697.404 255.337Z" fill="#639CC8" fill-opacity="0.85"/>
<path d="M455.982 461.781L297.106 613.666L243.345 414.331L455.982 461.781Z" fill="#914C75" fill-opacity="0.85"/>
<g style="mix-blend-mode:hard-light">
<path d="M512.672 924.692L472.359 655.006L739.04 768.167L512.672 924.692Z" fill="#384989"/>
</g>
<g style="mix-blend-mode:color">
<path d="M249.356 614.208L417.679 481.155L450.122 683.514L249.356 614.208Z" fill="#EE9062"/>
</g>
<g style="mix-blend-mode:color">
<path d="M581.402 650.25L427.388 879.56L307.696 628.83L581.402 650.25Z" fill="#F8C164"/>
</g>
<path d="M421.061 545.088L557.814 611.505L422.737 697.68L421.061 545.088Z" fill="#639CC8" fill-opacity="0.85"/>
</svg>
