<svg width="20" height="20" viewBox="0 0 20 20" fill="none" xmlns="http://www.w3.org/2000/svg">
<path d="M17.14 10.936C17.176 10.636 17.2 10.324 17.2 10C17.2 9.67602 17.176 9.36403 17.128 9.06402L19.156 7.48002C19.336 7.33602 19.384 7.07202 19.276 6.86802L17.356 3.54402C17.236 3.32802 16.984 3.25602 16.768 3.32802L14.38 4.28802C13.876 3.90402 13.348 3.59202 12.76 3.35202L12.4 0.808024C12.364 0.568024 12.16 0.400024 11.92 0.400024H8.07998C7.83998 0.400024 7.64799 0.568024 7.61199 0.808024L7.25199 3.35202C6.66398 3.59202 6.12399 3.91602 5.63199 4.28802L3.24398 3.32802C3.02798 3.24402 2.77598 3.32802 2.65598 3.54402L0.735985 6.86802C0.615985 7.08402 0.663985 7.33602 0.855985 7.48002L2.88398 9.06402C2.83598 9.36403 2.79998 9.68802 2.79998 10C2.79998 10.312 2.82398 10.636 2.87198 10.936L0.843984 12.52C0.663984 12.664 0.615985 12.928 0.723985 13.132L2.64398 16.456C2.76398 16.672 3.01598 16.744 3.23198 16.672L5.61998 15.712C6.12398 16.096 6.65198 16.408 7.23998 16.648L7.59999 19.192C7.64798 19.432 7.83998 19.6 8.07998 19.6H11.92C12.16 19.6 12.364 19.432 12.388 19.192L12.748 16.648C13.336 16.408 13.876 16.084 14.368 15.712L16.756 16.672C16.972 16.756 17.224 16.672 17.344 16.456L19.264 13.132C19.384 12.916 19.336 12.664 19.144 12.52L17.14 10.936ZM9.99998 13.6C8.01999 13.6 6.39998 11.98 6.39998 10C6.39998 8.02002 8.01999 6.40002 9.99998 6.40002C11.98 6.40002 13.6 8.02002 13.6 10C13.6 11.98 11.98 13.6 9.99998 13.6Z" fill="#0038FF"/>
</svg>
