<svg width="79" height="25" viewBox="0 0 79 25" fill="none" xmlns="http://www.w3.org/2000/svg">
<path fill-rule="evenodd" clip-rule="evenodd" d="M6.69276 24.1136L6.68541 24.1111C4.74597 23.4452 3.06556 22.3848 1.83353 20.9158L1.81616 20.8951L1.79908 20.8742C0.488297 19.2725 0.000488281 17.4721 0.000488281 15.7334V10.6824H0.357985C0.199761 10.045 0.130841 9.40501 0.130841 8.77814C0.130841 7.03594 0.718562 5.28322 2.12492 3.76764C3.38077 2.4073 5.02993 1.45235 6.86225 0.847559C8.64632 0.251662 10.528 0 12.4187 0C13.9415 0 15.4646 0.153169 16.9345 0.516832V0.233613H45.6994L45.7059 0.212374H60.6001L61.1034 1.86693C61.6629 1.51916 62.2532 1.23083 62.8479 0.993619C64.6459 0.272698 66.5926 0.0637127 68.355 0.0637127C69.9557 0.0637127 71.692 0.218878 73.32 0.743967C74.6924 1.18425 76.235 1.92321 77.3838 3.19007C78.3742 4.27315 79.0005 5.60783 79.0005 7.10038C79.0005 7.80141 78.8688 8.4824 78.6141 9.12847C78.8862 9.85117 79.0005 10.5827 79.0005 11.2842C79.0005 12.7384 78.4406 14.0625 77.5228 15.178C76.4496 16.4863 74.9652 17.3207 73.5275 17.847L73.5146 17.8518L73.5016 17.8564C71.8034 18.4695 69.9869 18.65 68.329 18.65C67.6407 18.65 66.9145 18.6211 66.1758 18.5418L68.0628 24.7451H16.9345V24.5181C15.4813 24.8577 13.9764 25 12.4709 25C10.5087 25 8.54759 24.7452 6.70012 24.1161L6.69276 24.1136ZM7.66873 19.5314C7.13439 19.2268 6.68423 18.8563 6.31824 18.4199C5.85465 17.8535 5.5729 17.1802 5.473 16.4003C5.44557 16.186 5.43184 15.9637 5.43184 15.7334V15.1069H9.48581V15.6697C9.48581 15.6911 9.48601 15.7123 9.48641 15.7334C9.49238 16.0467 9.54274 16.3264 9.63748 16.5727C9.64222 16.585 9.64707 16.5973 9.65203 16.6094C9.67947 16.6766 9.71031 16.7413 9.74454 16.8034C9.75102 16.8151 9.75762 16.8268 9.76435 16.8384C9.87274 17.0249 10.0128 17.1875 10.1844 17.3263C10.1871 17.3285 10.1898 17.3306 10.1925 17.3328C10.2947 17.4144 10.4079 17.4877 10.5321 17.5527C10.7768 17.6805 11.0644 17.7761 11.395 17.8392C11.4183 17.8436 11.4419 17.8479 11.4657 17.8521C11.5485 17.8665 11.6339 17.8789 11.722 17.8894C11.9536 17.917 12.2033 17.931 12.4709 17.9315C12.4752 17.9315 12.4796 17.9315 12.4839 17.9315C13.4833 17.9315 14.2524 17.8005 14.7912 17.5386C14.8247 17.5223 14.8573 17.5053 14.8887 17.4877C14.8956 17.4839 14.9024 17.4801 14.9091 17.4762C15.2349 17.2886 15.4454 17.0314 15.5405 16.7044C15.5411 16.7024 15.5416 16.7004 15.5422 16.6984C15.5803 16.5652 15.5993 16.4205 15.5993 16.2643C15.5993 16.2322 15.5982 16.2003 15.5958 16.1688C15.5835 16.0055 15.5396 15.8502 15.464 15.7026C15.4612 15.6971 15.4583 15.6915 15.4553 15.686C15.3554 15.4977 15.2035 15.3224 14.9997 15.16C14.9963 15.1573 14.9928 15.1545 14.9894 15.1518C14.9781 15.1429 14.9667 15.134 14.9552 15.1252C14.9427 15.1155 14.93 15.1059 14.9172 15.0963C14.8374 15.0368 14.7522 14.9785 14.6616 14.9215C14.3065 14.6983 13.8673 14.4946 13.3442 14.3105C13.1439 14.2371 12.936 14.1651 12.7205 14.0946C12.7136 14.0923 12.7067 14.0901 12.6997 14.0878C12.6916 14.0852 12.6835 14.0825 12.6754 14.0799C12.6122 14.0594 12.5484 14.039 12.4839 14.0187C12.3694 13.9828 12.2529 13.9472 12.1344 13.912C12.0374 13.8832 11.9391 13.8547 11.8394 13.8264C11.5649 13.7486 11.28 13.6728 10.9849 13.599C10.6988 13.5256 10.4189 13.4452 10.1451 13.3581C10.0697 13.3341 9.99477 13.3096 9.92031 13.2845C9.77368 13.2352 9.62884 13.1839 9.48581 13.1306C9.07563 12.9776 8.68022 12.8082 8.2996 12.6221C7.97546 12.4637 7.6761 12.2883 7.40153 12.0961C7.39049 12.0884 7.37949 12.0806 7.36853 12.0728C6.95782 11.7811 6.60338 11.4509 6.3052 11.0824C6.20401 10.9551 6.11315 10.8218 6.03263 10.6824C5.71901 10.1396 5.56219 9.50479 5.56219 8.77814C5.56219 7.85785 5.86201 7.07561 6.46163 6.4314C6.94725 5.90394 7.57538 5.47863 8.34601 5.15547C8.35375 5.15222 8.36151 5.14899 8.36928 5.14576C8.54308 5.07361 8.72407 5.00662 8.91225 4.94478C9.94638 4.5979 11.1152 4.42447 12.4187 4.42447C12.4361 4.42447 12.4535 4.42449 12.4709 4.42455C13.8138 4.42892 15 4.60233 16.0295 4.94478C16.3034 5.0333 16.5617 5.13359 16.8044 5.24565C16.8483 5.26591 16.8916 5.28656 16.9345 5.3076C17.0238 5.35141 17.1108 5.3969 17.1957 5.44405C17.2053 5.44939 17.2149 5.45474 17.2244 5.46012C17.7256 5.7426 18.1486 6.08406 18.4932 6.4845C18.99 7.04757 19.281 7.72728 19.3662 8.52362C19.3727 8.58522 19.3781 8.64752 19.3822 8.71052C19.3843 8.74236 19.3861 8.77438 19.3875 8.80658C19.3909 8.8811 19.3926 8.95656 19.3926 9.03299V9.67011H15.3517V9.18165C15.3517 9.13124 15.3504 9.08168 15.3479 9.03299C15.3359 8.80172 15.2953 8.58982 15.2263 8.39728C15.2216 8.38422 15.2168 8.37125 15.2118 8.35838C15.1982 8.32278 15.1835 8.28786 15.1678 8.25363C15.1624 8.24171 15.1568 8.22988 15.1511 8.21813C15.0459 8.00119 14.8993 7.81233 14.7114 7.65157C14.7024 7.64389 14.6933 7.63627 14.6842 7.62872C14.6722 7.61885 14.6601 7.6091 14.6478 7.59946C14.6101 7.56937 14.5707 7.5405 14.5295 7.51286C14.2546 7.32845 13.9007 7.19882 13.468 7.12397C13.4224 7.11608 13.3759 7.1088 13.3285 7.10213C13.307 7.0991 13.2854 7.0962 13.2635 7.09342C13.0215 7.06267 12.7572 7.04729 12.4709 7.04729C12.4534 7.04729 12.436 7.04734 12.4187 7.04743C11.4879 7.05251 10.7623 7.19404 10.2418 7.47204C10.2281 7.4795 10.2146 7.48706 10.2012 7.49473C10.1943 7.49867 10.1875 7.50263 10.1808 7.50662C9.84583 7.70417 9.62759 7.96984 9.52603 8.30364C9.52428 8.30941 9.52255 8.3152 9.52087 8.32102C9.48011 8.4615 9.45973 8.61387 9.45973 8.77814C9.45973 8.97389 9.49942 9.15611 9.57879 9.3248C9.58259 9.33288 9.58648 9.34092 9.59046 9.34894C9.6669 9.50278 9.77685 9.64518 9.92031 9.77616C9.95199 9.80508 9.9853 9.83344 10.0203 9.86125C10.0662 9.89701 10.1142 9.9323 10.1642 9.96714C10.1841 9.98096 10.2042 9.99471 10.2247 10.0084C10.4852 10.1824 10.797 10.3447 11.1601 10.4952C11.1745 10.5012 11.189 10.5072 11.2035 10.5131C11.3249 10.5626 11.4519 10.6108 11.5845 10.6577C11.6078 10.6659 11.6313 10.6742 11.6549 10.6824C11.7784 10.7257 11.9051 10.769 12.0349 10.8122C12.0433 10.8151 12.0518 10.8179 12.0603 10.8207C12.1938 10.8651 12.3307 10.9095 12.4709 10.9539C12.7072 11.0287 12.9529 11.1036 13.208 11.1784C13.4125 11.2385 13.623 11.2985 13.8396 11.3585C14.1584 11.449 14.4657 11.5422 14.7617 11.6382C14.7783 11.6436 14.7949 11.649 14.8115 11.6544C14.8469 11.6659 14.8821 11.6775 14.9172 11.6892C15.0649 11.7382 15.2098 11.788 15.3517 11.8385C15.8889 12.0295 16.3842 12.2305 16.8377 12.4416C16.8702 12.4563 16.9025 12.4712 16.9345 12.4862C17.2114 12.6163 17.4674 12.7574 17.7024 12.9095C18.1577 13.2042 18.5343 13.5402 18.8321 13.9176C18.878 13.975 18.9216 14.034 18.963 14.0946C19.345 14.6534 19.536 15.3448 19.536 16.1688C19.536 16.2008 19.5356 16.2326 19.5349 16.2643C19.5152 17.1645 19.2158 17.9326 18.6366 18.5686C18.1983 19.0516 17.6309 19.451 16.9345 19.7665C16.8082 19.8238 16.6778 19.8782 16.543 19.9299C16.4189 19.9776 16.2912 20.0229 16.1599 20.0658C15.1029 20.4046 13.8776 20.5745 12.4839 20.5755C12.4796 20.5755 12.4752 20.5755 12.4709 20.5755C11.0805 20.5755 9.85514 20.395 8.79494 20.034C8.38523 19.8933 8.00983 19.7258 7.66873 19.5314ZM26.2113 6.90925V20.3207H22.3659V4.65808H29.2094L32.5464 18.0908L35.9095 4.65808H42.753V20.3207H38.9206V6.93048L35.2447 20.3207H29.9524L26.2113 6.90925ZM45.1531 20.3207L49.9501 4.63684H56.3504L59.7753 15.8961L61.1213 20.3207H56.9761L55.9593 16.6891H50.3281L49.2983 20.3207H45.1531ZM51.0581 14.1194H55.2424L53.1567 6.69687L51.0581 14.1194ZM77.34 7.08905C76.7477 6.44382 76.0614 5.96378 75.3435 5.60932C75.213 5.31833 75.0458 5.02813 74.8366 4.74368M72.3247 2.81658C73.1536 3.17475 74.0535 3.74365 74.7371 4.61283C74.7665 4.65027 74.7952 4.68783 74.8232 4.72549M71.0692 4.78329C71.0437 4.77638 71.018 4.7696 70.9922 4.76294C70.9652 4.75602 70.9381 4.74922 70.9107 4.74256L70.9083 4.74197L70.9082 4.67411C70.9012 4.67427 70.8265 4.67598 70.7009 4.69507C70.0605 4.56045 69.3002 4.49153 68.4202 4.4883C68.3986 4.48822 68.3768 4.48818 68.355 4.48818C68.3507 4.48818 68.3463 4.48818 68.342 4.48818C68.1954 4.48831 68.052 4.4905 67.9118 4.49478C67.7222 4.50056 67.5386 4.51014 67.3608 4.52351C67.3278 4.52599 67.295 4.5286 67.2624 4.53135C66.9401 4.55848 66.6377 4.59841 66.3552 4.65113C66.3176 4.65816 66.2803 4.66541 66.2433 4.67289C66.0258 4.71693 65.8206 4.76884 65.6276 4.82863C65.6203 4.83088 65.6131 4.83314 65.6058 4.83541C65.4784 4.87548 65.3563 4.91902 65.2396 4.96602C64.4575 5.2775 63.8839 5.67747 63.519 6.16594C63.4463 6.2617 63.3809 6.35845 63.3228 6.45618C63.0886 6.84969 62.9715 7.2591 62.9715 7.68441H66.2433C66.2433 7.63478 66.2458 7.58681 66.2509 7.5405C66.2516 7.5342 66.2523 7.52792 66.2531 7.52168C66.2585 7.4789 66.266 7.43758 66.2758 7.39771C66.3115 7.25186 66.3767 7.12542 66.4713 7.01837C66.4741 7.01522 66.4769 7.01208 66.4798 7.00896C66.5759 6.90333 66.7013 6.817 66.856 6.74996C67.1545 6.6233 67.5065 6.54196 67.9118 6.50595C68.02 6.49635 68.1319 6.48997 68.2476 6.48681C68.2788 6.48596 68.3102 6.48535 68.342 6.48496C68.3463 6.48491 68.3507 6.48486 68.355 6.48482C68.3766 6.4846 68.3984 6.4845 68.4202 6.4845C68.4938 6.4845 68.5655 6.4859 68.6354 6.48871C68.6515 6.48936 68.6675 6.49008 68.6833 6.49087C69.1128 6.51235 69.4727 6.58809 69.7628 6.71811C69.9914 6.81348 70.1467 6.94091 70.2286 7.10038L70.2309 7.10493C70.233 7.10913 70.2351 7.11336 70.2371 7.11761C70.2772 7.20221 70.2973 7.29557 70.2973 7.39771C70.2973 7.41617 70.2965 7.43439 70.295 7.45237C70.2937 7.46682 70.292 7.48111 70.2897 7.49524C70.2791 7.56174 70.2575 7.62479 70.2247 7.68441C70.1441 7.83129 69.9962 7.95729 69.781 8.06242C69.7734 8.06612 69.7658 8.06979 69.7581 8.07343C69.7553 8.07473 69.7526 8.07602 69.7498 8.0773C69.6917 8.10321 69.631 8.12705 69.5677 8.14883C69.5301 8.16175 69.4916 8.17395 69.4522 8.18541C69.4105 8.19754 69.3678 8.20885 69.3241 8.21935C69.2239 8.2434 69.1183 8.2632 69.0073 8.27876C68.9668 8.28444 68.9256 8.28954 68.8837 8.29409C68.8447 8.29831 68.8051 8.30205 68.7649 8.30529C68.7393 8.30736 68.7135 8.30923 68.6874 8.3109C68.64 8.31394 68.5918 8.31632 68.5427 8.31806C68.5024 8.31948 68.4616 8.32047 68.4202 8.32102C68.4029 8.32125 68.3855 8.3214 68.3681 8.32148C68.3637 8.3215 68.3594 8.32153 68.355 8.32154M68.2461 8.32154H68.342H68.2461ZM68.3603 8.02044C68.363 8.00966 68.3656 7.99887 68.3681 7.98807C68.3826 7.9242 68.3926 7.86007 68.398 7.79655C68.3853 7.79552 68.3752 7.79488 68.3681 7.7945C68.3652 7.79435 68.3608 7.79416 68.3608 7.79416L68.355 7.79419C68.3509 7.79422 68.3465 7.79427 68.342 7.79434C68.32 7.79466 68.2937 7.79543 68.2634 7.79695C68.2765 7.83274 68.2906 7.86832 68.3058 7.90365C68.3175 7.93091 68.3296 7.95745 68.342 7.98326C68.3463 7.99225 68.3506 8.00115 68.355 8.00996C68.3568 8.01347 68.3585 8.01696 68.3603 8.02044ZM67.9118 7.83582C67.8195 7.85113 67.7172 7.87192 67.607 7.90009L67.9118 8.36698V8.40139L67.5935 7.90355C67.4838 7.93203 67.3664 7.96781 67.2434 8.01273C67.2331 8.0165 67.2227 8.02034 67.2123 8.02424C67.1813 8.03588 67.15 8.04809 67.1183 8.06091C67.1126 8.06323 67.1069 8.06556 67.1012 8.06791C66.9834 8.11631 66.8615 8.17318 66.7371 8.24001C66.7283 8.24474 66.7195 8.24953 66.7106 8.25437C66.7027 8.25876 66.6947 8.26318 66.6868 8.26764C66.6557 8.28508 66.6247 8.30305 66.5936 8.32154C66.4755 8.39197 66.3581 8.46996 66.2433 8.55557C65.9765 8.7545 65.7236 8.99452 65.507 9.27626C65.5338 9.31296 65.5615 9.34961 65.5903 9.38618C65.793 9.64395 66.0166 9.86025 66.2433 10.0407L66.2447 10.0418C66.5288 10.2676 66.8175 10.4372 67.0757 10.5613L67.5551 9.79738C67.4602 9.75788 67.3994 9.74142 67.386 9.73806C67.3942 9.73991 67.4206 9.74546 67.4679 9.75258C67.5241 9.76103 67.5997 9.77019 67.6967 9.77825C67.7381 9.78169 67.7834 9.78492 67.8327 9.78782C67.858 9.78931 67.8844 9.7907 67.9118 9.79199V10.0327C67.8544 9.98157 67.8013 9.9408 67.7564 9.9093C67.7132 9.87903 67.6776 9.85731 67.6529 9.8432C67.6366 9.83389 67.6251 9.82789 67.6193 9.82494L67.1264 10.5853C67.1329 10.5883 67.1393 10.5913 67.1458 10.5943C67.1683 10.6046 67.1905 10.6146 67.2125 10.6242C67.2377 10.635 67.2626 10.6453 67.2873 10.6553C67.3734 10.6899 67.4565 10.7198 67.5358 10.7456L67.6709 10.6883L67.9118 10.3285V10.0418H68.342C68.3507 10.0418 68.3594 10.0418 68.3681 10.0418C68.3855 10.0419 68.4029 10.0421 68.4202 10.0423M67.7215 10.6668L67.9118 10.3939L67.7215 10.6668ZM67.6433 10.7789L67.6497 10.7697L67.6433 10.7789ZM66.2804 11.2786C66.2638 11.2041 66.2528 11.1245 66.2473 11.0399C66.2446 10.9987 66.2433 10.9562 66.2433 10.9125V10.8806H62.9715V10.9125C62.9715 11.3194 63.0609 11.7182 63.2399 12.1089C63.2975 12.2348 63.3645 12.3598 63.4407 12.4841C63.6987 12.8874 64.1022 13.236 64.6512 13.5299C64.7864 13.6023 64.9304 13.6713 65.0832 13.7371C65.2079 13.789 65.3401 13.8368 65.48 13.8804C65.4947 13.885 65.5095 13.8895 65.5244 13.894C65.7454 13.9608 65.9851 14.0175 66.2433 14.0641C66.5154 14.1132 66.808 14.1511 67.1213 14.1778C67.3717 14.1992 67.6352 14.2133 67.9118 14.2204C68.0477 14.2238 68.1867 14.2255 68.329 14.2255C68.3333 14.2255 68.3377 14.2255 68.342 14.2255C68.3507 14.2255 68.3594 14.2255 68.3681 14.2255C69.5651 14.2226 70.5416 14.0849 71.2976 13.8126L71.301 13.8114C71.3095 13.8083 71.318 13.8052 71.3265 13.802C71.5981 13.7013 71.8443 13.5905 72.0649 13.4695C72.462 13.2518 72.7766 13.0012 73.0086 12.7177C73.3823 12.2646 73.5691 11.7868 73.5691 11.2842C73.5691 11.2769 73.5691 11.2696 73.569 11.2623C73.5685 11.1866 73.565 11.1125 73.5586 11.0399C73.5257 10.6656 73.4154 10.3329 73.2276 10.0418C73.1602 9.93731 73.0829 9.8382 72.9956 9.74444C72.7113 9.43202 72.2709 9.23232 71.6747 9.14532C71.5405 9.12575 71.3985 9.11189 71.2486 9.10373C71.1891 9.10049 71.1284 9.09814 71.0664 9.0967C71.1314 9.09516 71.1951 9.09262 71.2575 9.0891C71.404 9.08081 71.5431 9.06705 71.6747 9.04781C72.2573 8.96263 72.6933 8.77009 72.9825 8.4702C73.0298 8.42142 73.0742 8.37187 73.1158 8.32154C73.3498 8.03818 73.4932 7.73024 73.546 7.39771C73.5601 7.3091 73.5677 7.21874 73.569 7.12664C73.5691 7.1179 73.5691 7.10915 73.5691 7.10038C73.5691 6.64732 73.3866 6.22257 73.0217 5.82614C72.6654 5.4297 72.1005 5.1076 71.3271 4.85983C71.2906 4.84802 71.2537 4.8365 71.2162 4.82525C71.168 4.8108 71.119 4.79681 71.0692 4.78329M66.2804 11.2786C66.2838 11.2936 66.2874 11.3084 66.2912 11.3231L66.2804 11.2786ZM67.9118 8.92563V8.73654C67.7939 8.84196 67.6937 8.90255 67.6453 8.92907C67.6367 8.93379 67.6298 8.93743 67.6246 8.94006C67.6216 8.94158 67.6175 8.94361 67.6175 8.94361C67.5707 8.96124 67.5424 8.9689 67.5371 8.97024C67.542 8.96906 67.5673 8.96326 67.6165 8.9557C67.6828 8.94555 67.7799 8.93414 67.9118 8.92563ZM62.5996 3.89707H62.4805V4.00306C62.2767 4.18954 62.0937 4.3844 61.9304 4.58545M58.8897 3.85182C58.8106 3.95652 58.7346 4.06269 58.6617 4.17026C58.3327 4.65616 58.0686 5.17088 57.8795 5.70933M62.9715 3.60095C62.8409 3.6967 62.7171 3.79553 62.5996 3.89707L62.9715 3.60095ZM63.4877 3.25995H62.9715V3.60095M64.0282 2.97042C63.8386 3.06178 63.6585 3.15848 63.4877 3.25995L64.0282 2.97042ZM67.9118 8.32154H68.2461H67.9118ZM68.355 7.79419C68.355 7.79419 68.3566 7.79399 68.3589 7.79408L68.355 7.79419ZM13.0097 15.1069L13.422 15.6697L13.0097 15.1069ZM14.834 15.298L14.3876 15.6697L14.834 15.298ZM12.4839 14.3891L12.5213 14.4401L12.4839 14.3891ZM67.9118 7.83582V8.32154V7.83582Z" fill="url(#paint0_linear)"/>
<defs>
<linearGradient id="paint0_linear" x1="39.688" y1="3.50772" x2="39.688" y2="25.63" gradientUnits="userSpaceOnUse">
<stop stop-color="#F8C164"/>
<stop offset="0.333333" stop-color="#EE9062"/>
<stop offset="0.479167" stop-color="#914C75" stop-opacity="0.85"/>
<stop offset="0.6875" stop-color="#384989"/>
<stop offset="1" stop-color="#639CC8" stop-opacity="0.85"/>
</linearGradient>
</defs>
</svg>
