<svg width="1440" height="1024" viewBox="0 0 1440 1024" fill="none" xmlns="http://www.w3.org/2000/svg">
<path d="M1000.07 523.639L674.337 791.615L1041.84 939.639L1000.07 523.639Z" fill="#914C75" fill-opacity="0.85"/>
<g style="mix-blend-mode:hard-light">
<path d="M131.028 309.752L635.652 448.243L481.035 -85.7574L131.028 309.752Z" fill="#384989"/>
</g>
<g style="mix-blend-mode:color">
<path d="M662.383 882.471L954.393 592.189L576.249 484.092L662.383 882.471Z" fill="#EE9062"/>
</g>
<g style="mix-blend-mode:color">
<path d="M669.654 241.566L197.514 482.569L647.866 767.969L669.654 241.566Z" fill="#F8C164"/>
</g>
<path d="M833.352 571.124L738.082 295.372L542.994 533.03L833.352 571.124Z" fill="#639CC8" fill-opacity="0.85"/>
<path d="M960.56 -111.57L655.673 179.901L552.504 -202.626L960.56 -111.57Z" fill="#914C75" fill-opacity="0.85"/>
<g style="mix-blend-mode:hard-light">
<path d="M1069.35 776.767L991.987 259.234L1503.75 476.392L1069.35 776.767Z" fill="#384989"/>
</g>
<g style="mix-blend-mode:color">
<path d="M564.04 180.942L887.055 -74.3902L949.314 313.941L564.04 180.942Z" fill="#EE9062"/>
</g>
<g style="mix-blend-mode:color">
<path d="M1201.24 250.106L905.687 690.158L675.995 209.002L1201.24 250.106Z" fill="#F8C164"/>
</g>
<path d="M893.544 48.2985L1155.98 175.754L896.761 341.127L893.544 48.2985Z" fill="#639CC8" fill-opacity="0.85"/>
<path d="M430.253 444.467L125.366 735.937L22.197 353.41L430.253 444.467Z" fill="#914C75" fill-opacity="0.85"/>
<g style="mix-blend-mode:hard-light">
<path d="M539.04 1332.8L461.679 815.27L973.446 1032.43L539.04 1332.8Z" fill="#384989"/>
</g>
<g style="mix-blend-mode:color">
<path d="M33.7322 736.978L356.747 481.646L419.006 869.978L33.7322 736.978Z" fill="#EE9062"/>
</g>
<g style="mix-blend-mode:color">
<path d="M670.936 806.143L375.38 1246.19L145.688 765.038L670.936 806.143Z" fill="#F8C164"/>
</g>
<path d="M363.237 604.335L625.669 731.79L366.454 897.163L363.237 604.335Z" fill="#639CC8" fill-opacity="0.85"/>
</svg>
